<?xml version="1.0" encoding="UTF-8"?> <svg xmlns="http://www.w3.org/2000/svg" width="900" height="172" viewBox="0 0 900 172" fill="none"><path d="M900 0H0V172H900V0Z" fill="black"></path><path d="M900 0H0V172H900V0Z" fill="white"></path><path d="M139.637 50.449C139.658 50.2706 139.64 50.0899 139.585 49.919C139.53 49.748 139.439 49.5908 139.318 49.4578C139.198 49.3248 139.05 49.219 138.885 49.1477C138.721 49.0763 138.543 49.041 138.363 49.044C137.981 49.0515 137.614 49.1984 137.333 49.4572C137.052 49.716 136.874 50.0687 136.835 50.449C136.814 50.6273 136.832 50.8081 136.887 50.979C136.942 51.1499 137.033 51.307 137.154 51.4397C137.275 51.5724 137.423 51.6776 137.588 51.7483C137.753 51.8189 137.932 51.8532 138.111 51.849C138.493 51.8438 138.86 51.6983 139.142 51.4401C139.424 51.182 139.601 50.8292 139.639 50.449H139.637ZM139.437 50.431C139.402 50.7608 139.247 51.0664 139.002 51.2905C138.758 51.5145 138.44 51.6416 138.108 51.648C137.957 51.6513 137.806 51.6221 137.667 51.5624C137.528 51.5027 137.403 51.4138 137.301 51.3018C137.199 51.1898 137.122 51.0572 137.076 50.9131C137.03 50.7689 137.015 50.6164 137.032 50.466C137.068 50.136 137.223 49.8304 137.468 49.6065C137.713 49.3826 138.031 49.2559 138.363 49.25C138.514 49.2472 138.664 49.2767 138.803 49.3366C138.942 49.3965 139.067 49.4853 139.169 49.5972C139.271 49.7091 139.347 49.8415 139.394 49.9854C139.441 50.1294 139.456 50.2816 139.439 50.432L139.437 50.431ZM138.467 50.619L138.69 51.272H138.473L138.255 50.637H137.943L137.825 51.272H137.619L137.931 49.62H138.472C138.528 49.6183 138.585 49.6277 138.637 49.6477C138.69 49.6678 138.738 49.6981 138.779 49.7368C138.82 49.7756 138.853 49.822 138.876 49.8735C138.899 49.9251 138.912 49.9806 138.913 50.037C138.912 50.1693 138.867 50.2976 138.787 50.4026C138.706 50.5075 138.594 50.5835 138.467 50.619ZM138.473 49.819H138.097L137.979 50.436H138.32C138.412 50.4316 138.5 50.397 138.57 50.3375C138.64 50.278 138.689 50.197 138.708 50.107C138.716 50.0721 138.715 50.036 138.707 50.0013C138.698 49.9666 138.682 49.9342 138.66 49.9065C138.637 49.8789 138.609 49.8566 138.576 49.8415C138.544 49.8263 138.509 49.8186 138.473 49.819ZM92.419 35.702C92.4345 36.2288 92.3419 36.7533 92.1468 37.2429C91.9518 37.7326 91.6585 38.1771 91.285 38.549C90.0197 39.6362 88.3774 40.1819 86.713 40.068C85.457 40.0788 84.217 39.7855 83.099 39.213L83.632 36.413C84.6902 36.9885 85.864 37.3193 87.067 37.381C87.977 37.381 88.59 36.961 88.59 36.287C88.59 35.676 88.159 35.249 87.058 34.711C85.316 33.84 84.445 32.736 84.445 31.435C84.445 28.875 86.626 27.145 89.897 27.145C91.1108 27.0837 92.3175 27.364 93.38 27.954L92.848 30.754C91.9112 30.1667 90.8267 29.8577 89.721 29.863C88.768 29.863 88.146 30.263 88.146 30.931C88.146 31.411 88.621 31.84 89.627 32.331C90.938 32.986 92.418 33.955 92.418 35.709L92.419 35.702ZM69.741 27.167C68.6905 27.127 67.6427 27.3003 66.661 27.6763C65.6792 28.0524 64.7839 28.6235 64.0289 29.3552C63.274 30.0869 62.6751 30.9639 62.2685 31.9334C61.8619 32.9029 61.6559 33.9447 61.663 34.996C61.663 38.078 63.711 40.069 66.888 40.069C68.0982 40.0984 69.301 39.8725 70.418 39.406L71 36.331C70.0566 36.8479 68.9997 37.1228 67.924 37.131C67.5919 37.1488 67.26 37.0945 66.9509 36.9716C66.6419 36.8487 66.3632 36.6603 66.134 36.4194C65.9049 36.1784 65.7307 35.8906 65.6234 35.5758C65.5162 35.261 65.4786 34.9268 65.513 34.596C65.4888 34.0265 65.5781 33.4578 65.7756 32.9231C65.9732 32.3884 66.2751 31.8983 66.6638 31.4814C67.0524 31.0644 67.5201 30.7289 68.0397 30.4943C68.5592 30.2597 69.1202 30.1308 69.69 30.115C70.3975 30.0936 71.098 30.2602 71.72 30.598L72.29 27.608C71.4743 27.3075 70.6103 27.1594 69.741 27.171V27.167ZM134.363 37.196C135.889 37.1996 137.385 36.7774 138.684 35.977L138.095 39.077C136.648 39.7444 135.072 40.0832 133.479 40.069C130.057 40.069 128.101 38.169 128.101 34.844C128.105 32.9163 128.788 31.0516 130.03 29.577C130.68 28.8077 131.491 28.1908 132.405 27.7698C133.32 27.3488 134.316 27.1341 135.323 27.141C137.912 27.141 139.638 28.641 139.638 30.875C139.655 31.3418 139.574 31.807 139.402 32.2413C139.23 32.6755 138.97 33.0694 138.638 33.398C137.402 34.598 134.355 35.278 131.58 34.733C131.456 36.296 132.633 37.196 134.363 37.196ZM131.99 32.348C134.148 32.366 135.362 32.148 135.89 31.623C136.464 31.053 136.284 29.832 134.87 29.832C134.176 29.8645 133.514 30.1308 132.99 30.5877C132.467 31.0445 132.114 31.6649 131.988 32.348H131.99ZM126.244 27.167C125.193 27.1266 124.145 27.2995 123.163 27.6754C122.181 28.0513 121.285 28.6224 120.53 29.3541C119.775 30.0858 119.176 30.963 118.769 31.9327C118.362 32.9024 118.156 33.9444 118.163 34.996C118.163 38.078 120.211 40.069 123.388 40.069C124.598 40.0983 125.801 39.8724 126.918 39.406L127.5 36.331C126.557 36.8479 125.5 37.1228 124.424 37.131C124.092 37.1484 123.761 37.0937 123.452 36.9706C123.143 36.8476 122.865 36.6591 122.636 36.4182C122.407 36.1773 122.233 35.8896 122.126 35.5751C122.019 35.2605 121.982 34.9265 122.016 34.596C121.991 34.0261 122.08 33.4569 122.277 32.9216C122.474 32.3863 122.776 31.8956 123.165 31.4781C123.554 31.0606 124.022 30.7246 124.541 30.4897C125.061 30.2549 125.623 30.1258 126.193 30.11C126.9 30.0886 127.601 30.2552 128.223 30.593L128.793 27.603C127.977 27.3025 127.113 27.1554 126.244 27.167ZM117.557 32.875L116.231 39.816H112.718L113.174 37.427C112.944 38.2224 112.454 38.9176 111.782 39.4015C111.11 39.8854 110.295 40.1299 109.468 40.096C107.024 40.096 105.92 37.927 105.919 35.756C105.903 33.325 106.832 30.9828 108.509 29.223C109.172 28.5536 109.964 28.0245 110.836 27.6674C111.708 27.3102 112.643 27.1322 113.585 27.144C114.194 27.0957 114.806 27.1854 115.375 27.4063C115.944 27.6272 116.456 27.9737 116.873 28.42C117.897 29.661 117.813 31.52 117.558 32.877L117.557 32.875ZM114.175 31.275C114.192 31.0971 114.169 30.9177 114.11 30.7492C114.05 30.5808 113.955 30.4273 113.83 30.2994C113.705 30.1716 113.554 30.0724 113.387 30.0088C113.22 29.9452 113.041 29.9186 112.863 29.931C111.133 29.931 109.635 32.917 109.636 34.993C109.636 36.293 110.117 37.098 110.954 37.098C112.292 37.098 113.444 35.698 113.841 33.65C114.021 32.8705 114.135 32.0769 114.179 31.278L114.175 31.275ZM61.055 32.875L59.729 39.816H56.216L56.672 37.427C56.4419 38.2229 55.9513 38.9185 55.2788 39.4025C54.6063 39.8864 53.7908 40.1306 52.963 40.096C50.519 40.096 49.415 37.927 49.414 35.756C49.3982 33.325 50.3268 30.9828 52.004 29.223C52.6673 28.5536 53.4586 28.0246 54.3306 27.6674C55.2027 27.3103 56.1377 27.1323 57.08 27.144C57.6888 27.0957 58.3006 27.1853 58.8698 27.4062C59.4391 27.6271 59.9512 27.9737 60.368 28.42C61.392 29.661 61.308 31.52 61.053 32.877L61.055 32.875ZM57.673 31.275C57.6902 31.0966 57.6683 30.9166 57.6087 30.7475C57.5492 30.5785 57.4535 30.4244 57.3283 30.2962C57.2031 30.1679 57.0514 30.0685 56.8838 30.0049C56.7162 29.9414 56.5368 29.9151 56.358 29.928C54.628 29.928 53.13 32.914 53.131 34.99C53.131 36.29 53.612 37.095 54.449 37.095C55.787 37.095 56.939 35.695 57.336 33.647C57.5164 32.8675 57.6295 32.0739 57.674 31.275H57.673ZM105.673 31.858C105.72 33.3552 105.37 34.8382 104.657 36.1557C103.944 37.4732 102.895 38.5782 101.616 39.358C100.797 39.8131 99.8799 40.0648 98.943 40.092C98.4575 40.145 97.967 40.0559 97.531 39.8356C97.0951 39.6153 96.7324 39.2733 96.487 38.851L95.553 43.788H91.875L94.997 27.368H98.236L97.857 29.361C98.2609 28.7086 98.8184 28.1649 99.4808 27.7776C100.143 27.3903 100.89 27.171 101.657 27.139C104.095 27.141 105.673 28.986 105.673 31.861V31.858ZM101.848 32.137C101.848 31.553 101.71 30.137 100.363 30.137C98.993 30.137 97.837 31.698 97.389 34.064C97.236 34.873 96.806 37.303 98.498 37.303C100.43 37.302 101.849 34.56 101.849 32.14L101.848 32.137ZM45.586 30.129L46.11 27.37H42.872L40.463 40.035H44.141L45.134 34.813C45.72 31.734 47.486 30.502 50 30.882L50.718 27.104C49.6535 27.0068 48.5853 27.2465 47.6644 27.7893C46.7435 28.3321 46.0165 29.1506 45.586 30.129ZM75.086 39.816L76.353 33.152L78.963 39.816H82.918L80.217 33.096L85.127 27.367H81.112L76.375 33.036L78.207 23.396H74.555L71.433 39.816H75.086ZM117.404 48.523C117.429 48.942 117.369 49.3617 117.229 49.7573C117.089 50.1529 116.871 50.5165 116.588 50.8265C116.306 51.1365 115.963 51.3867 115.582 51.5624C115.201 51.738 114.788 51.8354 114.369 51.849C114.081 51.8639 113.793 51.8178 113.524 51.7138C113.256 51.6097 113.012 51.45 112.809 51.2451C112.606 51.0402 112.449 50.7948 112.348 50.5249C112.246 50.255 112.203 49.9667 112.221 49.679C112.197 49.2602 112.257 48.841 112.398 48.4457C112.538 48.0505 112.756 47.6873 113.039 47.3775C113.322 47.0677 113.663 46.8175 114.044 46.6415C114.425 46.4656 114.837 46.3675 115.256 46.353C115.544 46.3386 115.831 46.385 116.1 46.4892C116.369 46.5934 116.612 46.7532 116.815 46.958C117.018 47.1627 117.175 47.408 117.276 47.6777C117.378 47.9473 117.421 48.2354 117.404 48.523ZM113.516 49.646C113.516 50.369 113.894 50.877 114.542 50.877C115.482 50.877 116.108 49.577 116.108 48.532C116.108 47.993 115.86 47.323 115.108 47.323C114.1 47.323 113.516 48.664 113.516 49.646ZM125.963 48.522C125.988 48.941 125.928 49.3607 125.788 49.7563C125.648 50.1519 125.43 50.5155 125.147 50.8255C124.865 51.1355 124.522 51.3857 124.141 51.5614C123.76 51.737 123.347 51.8344 122.928 51.848C122.64 51.8629 122.352 51.8168 122.083 51.7128C121.815 51.6087 121.571 51.449 121.368 51.2441C121.165 51.0392 121.008 50.7938 120.907 50.5239C120.805 50.254 120.762 49.9657 120.78 49.678C120.756 49.2592 120.816 48.84 120.957 48.4447C121.097 48.0495 121.315 47.6863 121.598 47.3765C121.881 47.0667 122.222 46.8165 122.603 46.6405C122.984 46.4646 123.396 46.3665 123.815 46.352C124.103 46.3375 124.39 46.384 124.659 46.4882C124.928 46.5924 125.171 46.7522 125.374 46.957C125.577 47.1617 125.734 47.407 125.835 47.6767C125.937 47.9463 125.98 48.2344 125.963 48.522ZM122.074 49.646C122.074 50.369 122.452 50.877 123.1 50.877C124.04 50.877 124.666 49.577 124.666 48.532C124.666 47.993 124.418 47.323 123.666 47.323C122.666 47.323 122.079 48.663 122.079 49.646H122.074ZM119.285 44.746L117.957 51.726H119.211L120.548 44.746H119.285ZM99.014 46.363C98.5713 46.3598 98.1324 46.4454 97.7233 46.6147C97.3142 46.784 96.9431 47.0335 96.632 47.3486C96.321 47.6637 96.0762 48.0379 95.9122 48.4491C95.7481 48.8604 95.6682 49.3003 95.677 49.743C95.6589 50.0256 95.7018 50.3087 95.8027 50.5733C95.9037 50.8378 96.0603 51.0776 96.2621 51.2762C96.4638 51.4749 96.7059 51.6279 96.9719 51.7249C97.238 51.8218 97.5217 51.8604 97.804 51.838C98.3386 51.8496 98.8689 51.7398 99.355 51.517L99.563 50.426C99.1353 50.681 98.648 50.819 98.15 50.826C97.9894 50.8352 97.8287 50.8091 97.6793 50.7494C97.5299 50.6898 97.3953 50.5981 97.2852 50.4808C97.1751 50.3635 97.092 50.2235 97.0419 50.0706C96.9917 49.9177 96.9757 49.7557 96.995 49.596C96.9639 49.0405 97.1545 48.4953 97.525 48.0802C97.8955 47.6651 98.4155 47.414 98.971 47.382C99.3101 47.3757 99.6447 47.4603 99.94 47.627L100.14 46.581C99.7833 46.4357 99.4012 46.363 99.016 46.367L99.014 46.363ZM91.83 50.316C91.7178 50.0842 91.6695 49.8267 91.69 49.57C93.72 49.613 95.134 49.181 95.134 47.832C95.1329 47.6188 95.0864 47.4082 94.9975 47.2144C94.9086 47.0205 94.7795 46.8479 94.6186 46.7079C94.4577 46.568 94.2688 46.4639 94.0646 46.4027C93.8603 46.3415 93.6453 46.3246 93.434 46.353C92.6055 46.4118 91.8324 46.7905 91.278 47.4089C90.7236 48.0273 90.4313 48.837 90.463 49.667C90.4322 49.9592 90.4667 50.2545 90.564 50.5317C90.6614 50.8089 90.8191 51.061 91.0258 51.2697C91.2325 51.4785 91.4831 51.6386 91.7593 51.7386C92.0356 51.8386 92.3306 51.876 92.623 51.848C93.3167 51.8545 94.0007 51.6849 94.611 51.355L94.826 50.223C94.2744 50.6361 93.6031 50.858 92.914 50.855C92.7019 50.8727 92.489 50.8318 92.2985 50.7367C92.1081 50.6417 91.9474 50.4961 91.834 50.316H91.83ZM93.277 47.296C93.677 47.296 93.946 47.496 93.946 47.836C93.946 48.472 93.114 48.645 91.819 48.636C91.8798 48.2829 92.0558 47.9599 92.3196 47.7175C92.5834 47.475 92.9201 47.3268 93.277 47.296ZM111.353 47.796C111.378 47.6094 111.361 47.4196 111.304 47.2402C111.247 47.0608 111.152 46.8961 111.024 46.758C110.896 46.6199 110.739 46.5117 110.564 46.4412C110.39 46.3707 110.202 46.3395 110.014 46.35C109.627 46.3547 109.247 46.4582 108.911 46.6507C108.575 46.8432 108.293 47.1183 108.093 47.45L108.288 46.434H107.154L106.148 51.725H107.402L107.863 49.296C108.09 48.063 108.812 47.373 109.384 47.373C109.884 47.373 110.044 47.685 110.044 48.129C110.042 48.3394 110.021 48.5493 109.982 48.756L109.417 51.725H110.673L111.26 48.658C111.316 48.3729 111.347 48.0835 111.352 47.793L111.353 47.796ZM104.071 46.35C103.732 46.3518 103.399 46.4312 103.096 46.582C102.792 46.7328 102.528 46.951 102.322 47.22L102.796 44.747H101.532L100.204 51.727H101.463L101.923 49.296C102.15 48.063 102.872 47.373 103.444 47.373C103.944 47.373 104.103 47.685 104.103 48.129C104.101 48.3394 104.08 48.5493 104.041 48.756L103.476 51.725H104.729L105.317 48.658C105.373 48.3729 105.404 48.0835 105.409 47.793C105.434 47.6064 105.417 47.4166 105.36 47.2372C105.303 47.0578 105.208 46.8931 105.08 46.755C104.952 46.6169 104.795 46.5087 104.62 46.4382C104.446 46.3676 104.258 46.3365 104.07 46.347L104.071 46.35ZM89.471 45.115H88.251L87.982 46.469H87.282L87.098 47.441H87.798L87.344 49.785C87.2754 50.1045 87.2388 50.4302 87.235 50.757C87.235 51.357 87.614 51.837 88.477 51.837C88.7548 51.8467 89.0322 51.8102 89.298 51.729L89.488 50.729C89.3234 50.7615 89.1558 50.7773 88.988 50.776C88.924 50.7844 88.859 50.7778 88.798 50.7566C88.737 50.7355 88.6818 50.7004 88.6368 50.6542C88.5917 50.608 88.5581 50.5519 88.5385 50.4904C88.5189 50.4289 88.514 50.3637 88.524 50.3C88.5321 50.0489 88.5656 49.7993 88.624 49.555L89.035 47.438H90.213L90.407 46.466H89.224L89.471 45.115ZM131.721 53.696C131.953 53.8193 132.209 53.8916 132.472 53.9083C132.734 53.9249 132.997 53.8853 133.243 53.7923C133.489 53.6993 133.713 53.555 133.898 53.3688C134.084 53.1827 134.228 52.9591 134.321 52.713L137.839 46.442H136.502L134.502 50.357L134.017 46.442H132.701L133.638 51.592L133.228 52.414C133.162 52.5207 133.075 52.6127 132.972 52.6841C132.869 52.7556 132.752 52.8049 132.629 52.8292C132.506 52.8534 132.379 52.8519 132.257 52.8249C132.134 52.7978 132.018 52.7458 131.917 52.672L131.721 53.696ZM130.009 46.353C129.547 46.3665 129.092 46.4718 128.67 46.6629C128.249 46.854 127.87 47.1271 127.555 47.4661C127.241 47.8052 126.997 48.2035 126.837 48.6379C126.678 49.0722 126.607 49.5339 126.628 49.996C126.628 50.936 127.093 51.854 128.216 51.854C128.562 51.8521 128.902 51.7655 129.207 51.6019C129.511 51.4382 129.771 51.2023 129.964 50.915L129.864 51.375C129.605 52.596 128.979 52.984 128.158 52.984C127.679 52.99 127.206 52.8827 126.776 52.671L126.576 53.697C127.066 53.9037 127.595 54.0032 128.127 53.989C128.829 54.0234 129.522 53.8174 130.091 53.405C130.714 52.7729 131.099 51.9454 131.183 51.062L131.663 48.676C131.731 48.378 131.767 48.0736 131.771 47.768C131.771 46.817 131.112 46.352 130.01 46.352L130.009 46.353ZM130.409 48.611L130.309 49.097C130.093 50.156 129.423 50.826 128.775 50.826C128.192 50.826 127.943 50.34 127.943 49.767C127.943 48.73 128.667 47.315 129.769 47.315C129.861 47.3041 129.954 47.3137 130.042 47.3431C130.13 47.3725 130.21 47.4209 130.277 47.485C130.344 47.549 130.396 47.627 130.429 47.7135C130.462 47.7999 130.476 47.8926 130.469 47.985C130.472 48.1955 130.45 48.4056 130.404 48.611H130.409Z" fill="#262626"></path><path d="M550.205 26.996C546.66 26.996 544.313 28.86 543.983 31.653C543.906 32.2983 543.826 32.9436 543.745 33.589H589.863C589.863 33.589 589.95 32.908 590.017 32.362C590.364 29.548 589.168 26.996 584.821 26.996C584.821 26.996 552.073 26.998 550.205 26.996ZM522.059 26.997L521.25 33.59H542.165L542.971 26.997H522.059ZM592.265 26.997L591.457 33.59H614.131C614.131 33.59 614.159 33.352 614.259 32.576C614.811 28.248 612.021 26.997 609.321 26.997H592.265ZM591.145 36.097L589.379 50.488H597.201L598.969 36.103H591.145V36.097ZM606.006 36.097L604.237 50.488H612.059L613.827 36.103H606.006V36.097ZM520.945 36.097L519.175 50.489H540.088L540.859 44.248H527.763L528.094 41.557H541.184L541.854 36.104H520.945V36.097ZM543.438 36.097C542.864 39.852 544.744 41.549 547.408 41.549H557.989L557.659 44.249H542.439L541.673 50.49C541.673 50.49 558.242 50.496 558.914 50.49C559.469 50.45 563.345 50.344 564.664 47.174C565.104 45.3678 565.409 43.5314 565.576 41.68C566.186 37.18 563.07 36.108 560.617 36.108H543.438V36.097ZM567.784 36.097L566.021 50.489H573.839L574.939 41.555H584.759C587.544 41.555 589.041 40.055 589.319 38.047C589.408 37.3996 589.488 36.7516 589.56 36.103H567.784V36.097Z" fill="#262626"></path><path fill-rule="evenodd" clip-rule="evenodd" d="M361.78 142.789C361.78 142.357 361.908 141.934 362.148 141.575C362.388 141.216 362.73 140.936 363.129 140.77C363.528 140.605 363.967 140.562 364.391 140.646C364.815 140.73 365.204 140.938 365.51 141.244C365.816 141.549 366.024 141.939 366.108 142.363C366.192 142.787 366.149 143.226 365.984 143.625C365.818 144.024 365.538 144.366 365.179 144.606C364.82 144.846 364.397 144.974 363.965 144.974C363.385 144.974 362.83 144.744 362.42 144.334C362.01 143.924 361.78 143.368 361.78 142.789ZM363.966 145.289C364.46 145.289 364.944 145.142 365.355 144.868C365.766 144.593 366.086 144.202 366.276 143.746C366.465 143.289 366.514 142.786 366.418 142.301C366.322 141.816 366.083 141.371 365.734 141.021C365.384 140.672 364.939 140.433 364.454 140.337C363.969 140.241 363.466 140.29 363.009 140.479C362.552 140.668 362.162 140.989 361.887 141.4C361.613 141.811 361.466 142.294 361.466 142.789C361.466 143.117 361.53 143.443 361.656 143.746C361.781 144.05 361.965 144.326 362.198 144.558C362.43 144.79 362.705 144.975 363.009 145.1C363.312 145.226 363.638 145.291 363.966 145.291V145.289Z" fill="#262626"></path><path fill-rule="evenodd" clip-rule="evenodd" d="M363.381 141.659H364.174C364.532 141.659 364.91 141.717 364.91 142.142C364.91 142.616 364.51 142.642 364.136 142.642H363.382L363.381 141.659ZM365.258 142.159C365.258 141.607 364.858 141.414 364.258 141.414H363.049V144.2H363.378V142.913H364.016L364.81 144.2H365.216L364.365 142.913C364.861 142.894 365.258 142.69 365.258 142.159Z" fill="#262626"></path><path fill-rule="evenodd" clip-rule="evenodd" d="M367.086 120.494L365.751 126.018H363.169L364.542 120.494H367.086Z" fill="#262626"></path><path fill-rule="evenodd" clip-rule="evenodd" d="M355.999 144.974V135.088L352.768 120.494H356.86L358.679 130.928L360.672 120.494H363.216L359.976 135.088V144.974H355.999Z" fill="#262626"></path><path fill-rule="evenodd" clip-rule="evenodd" d="M374.535 137.604V140.285C374.535 142.005 373.79 141.885 373.171 141.885C372.406 141.885 371.778 141.885 371.778 140.318L371.749 136.494H368.043V141.094C368.043 145.394 370.375 144.957 373.104 144.957C375.304 144.957 378.444 145.389 378.444 140.998V136.24C378.398 135.572 378.212 134.92 377.899 134.328C377.586 133.736 377.152 133.216 376.626 132.801C376.626 132.801 375.387 131.753 373.278 129.659C372.763 129.255 372.341 128.745 372.042 128.163C371.743 127.581 371.574 126.941 371.546 126.287V124.278C371.546 122.568 372.282 122.702 372.901 122.702C373.656 122.702 374.301 122.702 374.301 124.268L374.32 127.343H378.035V123.961C378.035 119.666 375.704 120.108 372.966 120.108C370.78 120.108 367.635 119.666 367.635 124.047V127.647C367.635 128.983 368.603 130.424 370.906 132.586C370.906 132.586 374.532 134.938 374.532 137.601L374.535 137.604Z" fill="#262626"></path><path fill-rule="evenodd" clip-rule="evenodd" d="M325.147 137.604V140.285C325.147 142.005 324.412 141.885 323.792 141.885C323.038 141.885 322.392 141.885 322.392 140.318L322.382 136.494H318.666V141.094C318.666 145.394 320.988 144.957 323.736 144.957C325.923 144.957 329.077 145.389 329.077 140.998V136.24C329.029 135.572 328.842 134.921 328.529 134.329C328.216 133.737 327.784 133.217 327.259 132.801C327.259 132.801 326.02 131.753 323.902 129.659C323.386 129.257 322.964 128.747 322.667 128.164C322.369 127.581 322.203 126.941 322.179 126.287V124.278C322.179 122.568 322.914 122.702 323.534 122.702C324.289 122.702 324.934 122.702 324.934 124.268L324.953 127.343H328.668V123.961C328.668 119.666 326.337 120.108 323.589 120.108C321.403 120.108 318.258 119.666 318.258 124.047V127.647C318.258 128.983 319.226 130.424 321.538 132.586C321.54 132.588 325.147 134.942 325.147 137.604Z" fill="#262626"></path><path fill-rule="evenodd" clip-rule="evenodd" d="M309.719 123.011H310.57C312.041 123.011 311.876 124.692 311.876 126.402C311.876 126.402 312.041 129.745 310.57 129.745H309.719V123.011ZM305.587 144.974H309.719V133.022H310.454C311.779 133.022 311.867 133.647 311.867 135.05V140.342C311.867 141.975 311.974 144.176 312.419 144.973H316.511C316.056 144.173 316.105 141.973 316.105 140.342V136.02C316.105 133.599 316.192 131.754 313.841 131.331C315.621 131.062 316.279 130.275 316.279 126.422C316.279 121.263 315.399 120.494 310.987 120.494H305.587V144.974Z" fill="#262626"></path><path fill-rule="evenodd" clip-rule="evenodd" d="M351.466 129.698V133.022H347.209V141.448H352.268V144.974H343.236V120.494H352.069V123.742H347.213V129.699L351.466 129.698Z" fill="#262626"></path><path fill-rule="evenodd" clip-rule="evenodd" d="M303.351 129.698V133.022H299.094V141.448H304.144V144.974H295.108V120.494H303.961V123.742H299.094V129.699L303.351 129.698Z" fill="#262626"></path><path fill-rule="evenodd" clip-rule="evenodd" d="M341.076 120.494V144.974H337.099V133.022H334.807V144.974H330.821V120.494H334.807V129.66H337.099V120.494H341.076Z" fill="#262626"></path><path fill-rule="evenodd" clip-rule="evenodd" d="M293.348 120.494V144.974H289.372V133.022H287.079V144.974H283.112V120.494H287.079V129.66H289.372V120.494H293.348Z" fill="#262626"></path><path fill-rule="evenodd" clip-rule="evenodd" d="M149.554 123.478V127.125C147.85 126.468 146.047 126.105 144.222 126.051C143.458 126.017 142.697 126.181 142.014 126.525C141.782 126.623 141.581 126.783 141.433 126.987C141.286 127.192 141.199 127.434 141.18 127.685C141.18 128.293 141.803 128.834 143.058 129.319L146.683 130.988C149.614 132.309 151.068 134.064 151.068 136.268C151.087 137.136 150.883 137.994 150.476 138.76C150.068 139.526 149.47 140.175 148.74 140.644C146.888 141.819 144.717 142.39 142.526 142.278C141.45 142.285 140.375 142.234 139.305 142.127C138.204 142.001 137.112 141.805 136.036 141.541V137.729C137.996 138.398 140.048 138.76 142.119 138.803C144.299 138.803 145.383 138.203 145.383 137.003C145.383 136.403 144.939 135.918 144.037 135.539L140.011 133.916C138.732 133.43 137.594 132.634 136.699 131.599C135.989 130.692 135.611 129.57 135.626 128.418C135.619 127.604 135.821 126.801 136.212 126.086C136.604 125.372 137.172 124.77 137.862 124.338C139.645 123.234 141.721 122.698 143.815 122.799C144.735 122.808 145.654 122.872 146.567 122.99C147.6 123.122 148.593 123.283 149.549 123.483L149.554 123.478Z" fill="#262626"></path><path fill-rule="evenodd" clip-rule="evenodd" d="M42.531 123.478V127.125C40.828 126.468 39.0257 126.104 37.201 126.051C36.4365 126.017 35.6762 126.18 34.993 126.525C34.7605 126.623 34.5596 126.783 34.4124 126.987C34.2652 127.192 34.1775 127.434 34.159 127.685C34.159 128.293 34.791 128.834 36.046 129.319L39.671 130.988C42.59 132.309 44.047 134.064 44.047 136.268C44.0654 137.134 43.8623 137.99 43.457 138.755C43.0516 139.521 42.4575 140.17 41.731 140.641C39.8756 141.816 37.7014 142.387 35.508 142.275C34.4314 142.282 33.3553 142.231 32.284 142.124C31.1852 141.998 30.0954 141.804 29.021 141.541V137.729C30.9811 138.396 33.032 138.758 35.102 138.803C37.282 138.803 38.366 138.203 38.366 137.003C38.366 136.403 37.925 135.918 37.031 135.539L33.005 133.916C31.7229 133.436 30.5835 132.639 29.693 131.599C28.9775 130.695 28.5972 129.571 28.617 128.418C28.6086 127.603 28.8102 126.799 29.2023 126.085C29.5945 125.37 30.164 124.769 30.856 124.338C32.6346 123.231 34.7085 122.693 36.801 122.795C37.724 122.805 38.6455 122.868 39.561 122.986C40.585 123.118 41.578 123.279 42.532 123.479L42.531 123.478Z" fill="#262626"></path><path fill-rule="evenodd" clip-rule="evenodd" d="M46.683 123.156H52.583V141.915H46.683V123.156Z" fill="#262626"></path><path fill-rule="evenodd" clip-rule="evenodd" d="M69.867 123.156V126.623H61.095V130.783H68.704V133.909H61.095V138.276H70.047V141.915H55.413V123.156H69.867Z" fill="#262626"></path><path fill-rule="evenodd" clip-rule="evenodd" d="M96.082 123.156V141.925H90.57V129.546L84.852 142.097H81.452L75.952 129.546V141.925H71.962V123.156H79.17L84.09 134.646L89.236 123.156H96.082Z" fill="#262626"></path><path fill-rule="evenodd" clip-rule="evenodd" d="M113.594 123.156V126.623H104.874V130.783H112.483V133.909H104.874V138.276H113.774V141.915H99.144V123.156H113.594Z" fill="#262626"></path><path fill-rule="evenodd" clip-rule="evenodd" d="M132.031 123.156V141.915H125.769L118.741 129.883V141.915H114.757V123.156H121.202L128.049 134.981V123.156H132.031Z" fill="#262626"></path><path d="M813.012 24.934L809.054 41.034L805.085 24.934H793.621V30.879C792.228 25.679 787.121 24.371 782.551 24.297C776.983 24.224 770.814 26.637 770.6 33.997H778.3C778.326 33.5075 778.449 33.028 778.663 32.587C778.878 32.1461 779.178 31.7525 779.547 31.4296C779.916 31.1068 780.346 30.8612 780.811 30.7073C781.277 30.5535 781.768 30.4946 782.257 30.534C784.616 30.515 785.702 31.522 785.757 33.089C785.676 34.45 784.873 35.397 782.277 35.397H779.688V40.74H782.039C783.375 40.74 785.233 41.467 785.306 43.369C785.396 45.636 783.819 46.632 781.88 46.652C778.417 46.523 777.523 43.863 777.523 41.575H769.53C769.563 43.116 769.513 53.162 782.04 53.088C788.04 53.143 792.409 50.619 793.64 47.141V52.473H801.349V35.103L805.612 52.473H812.5L816.778 35.122V52.488H824.644V24.932L813.012 24.934ZM793.646 40.997C793.044 39.5699 791.921 38.4257 790.505 37.797C791.282 37.4767 791.971 36.9768 792.517 36.3383C793.063 35.6998 793.45 34.941 793.646 34.124V40.997Z" fill="#262626"></path><path d="M540.795 121L533.914 145.77H538.69L542.63 131.739L544.95 145.77H549.618L556.472 121H551.696L547.81 134.977L545.517 121H540.795ZM562.705 121L558.253 124.4L552.317 145.77H557.093L559.144 138.35H565.164L563.113 145.77H567.862L573.798 124.426L571.288 120.999H562.708L562.705 121ZM580.972 121L576.493 124.427L574.307 132.144L576.816 135.705H584.101L582.618 141.05H576.601L577.33 138.513H572.554L571.529 142.237L574.119 145.772H582.564L587.07 142.291L589.202 134.491L586.664 130.957H579.406L580.864 125.668H586.854L586.125 128.258H590.925L592.004 124.427L589.527 121H580.974H580.972ZM599.213 121L594.707 124.427L589.742 142.263L592.364 145.77H600.81L605.316 142.262L606.716 137.216H601.94L600.859 141.05H594.864L599.164 125.641H605.127L604.075 129.526H608.824L610.254 124.426L607.794 121H599.213ZM617.427 121L612.948 124.427L607.038 145.77H611.814L613.864 138.35H619.881L617.804 145.77H622.58L628.489 124.4L625.98 121H617.426H617.427ZM632.214 121L625.333 145.77H630.109L632.164 138.35H636.05L636.941 145.77H641.609L640.584 137.324L643.93 134.599L646.763 124.427L644.247 121H632.213H632.214ZM562.651 125.641H568.664L566.456 133.65H560.439L562.651 125.636V125.641ZM617.373 125.641H623.39L621.177 133.65H615.164L617.377 125.636L617.373 125.641ZM635.667 125.641H641.658L639.418 133.655H633.455L635.664 125.641H635.667Z" fill="black"></path><path d="M538.178 121H528.678L521.799 145.77H531.299L538.178 121Z" fill="#585858"></path><path d="M515.027 121L508.119 145.8H512.733L519.587 121H515.027ZM521.476 121L514.569 145.797H519.183L526.037 120.997H521.477L521.476 121Z" fill="#6C6C6C"></path><path d="M504.881 121L498 145.797H500.86L507.714 121H504.881ZM509.581 121L502.7 145.797H505.56L512.414 120.997H509.576L509.581 121Z" fill="#B4B4B4"></path><g clip-path="url(#clip0_509_909)"><mask id="mask0_509_909" style="mask-type:luminance" maskUnits="userSpaceOnUse" x="248" y="24" width="161" height="30"><path d="M408.1 24.4884H248.8V53.5117H408.1V24.4884Z" fill="white"></path></mask><g mask="url(#mask0_509_909)"><path d="M249.749 48.7465H251.52C252.37 48.7465 252.866 48.6323 253.277 48.3626C253.801 48.0361 254.113 47.4401 254.113 46.7871C254.113 46.006 253.688 45.353 253.008 45.0546C252.484 44.8274 252.314 44.799 251.11 44.799H249.749L249.749 48.7465ZM248.8 53.4167V43.9472H251.435C252.611 43.9472 253.291 44.1037 253.886 44.5012C254.623 44.998 255.048 45.8356 255.048 46.7871C255.048 48.5474 253.787 49.598 251.662 49.598H249.749V53.4167H248.8ZM257.147 53.4167V46.4177H258.054V47.4256C258.45 46.6306 259.003 46.3186 260.094 46.2473V47.1843C259.485 47.2552 259.187 47.3546 258.819 47.6669C258.28 48.1212 258.096 48.5471 258.096 49.3421V53.4167H257.147ZM262.246 49.9531C262.246 51.5144 263.492 52.7779 265.009 52.7779C266.553 52.7779 267.757 51.5144 267.757 49.8818C267.757 48.3203 266.511 47.0426 265.009 47.0426C263.479 47.0426 262.246 48.3487 262.246 49.9531ZM261.354 49.9245C261.354 47.9086 263.011 46.2473 265.009 46.2473C266.992 46.2473 268.65 47.9225 268.65 49.91C268.65 51.9122 266.992 53.5874 264.994 53.5874C262.997 53.5874 261.354 51.9264 261.354 49.9245ZM271.221 49.8816C271.221 51.4721 272.496 52.7776 274.041 52.7776C275.585 52.7776 276.846 51.4721 276.846 49.8961C276.846 48.3199 275.585 47.0423 274.027 47.0423C272.497 47.0423 271.221 48.3342 271.221 49.8816ZM277.71 43.9472V53.4167H276.86V52.1536C276.392 52.7498 276.067 53.0337 275.571 53.2609C275.146 53.4596 274.579 53.5874 274.055 53.5874C272 53.5874 270.328 51.9406 270.328 49.9245C270.328 47.8657 271.986 46.2473 274.083 46.2473C275.174 46.2473 276.109 46.6874 276.803 47.525V43.9476L277.71 43.9472ZM286.35 46.4177V53.4167H285.5V52.3378C285.032 53.1757 284.267 53.5874 283.148 53.5874C282 53.5874 281.023 53.0195 280.569 52.0825C280.342 51.6283 280.229 51.0317 280.229 50.2794V46.4177H281.122V50.279C281.122 51.8409 281.929 52.7776 283.289 52.7776C284.593 52.7776 285.457 51.7841 285.457 50.279V46.4177H286.35ZM294.206 51.3582H295.254C294.801 52.2246 294.475 52.6075 293.823 53.0192C293.2 53.4167 292.591 53.5874 291.854 53.5874C289.7 53.5874 288.029 51.9829 288.029 49.9245C288.029 47.8941 289.715 46.2473 291.783 46.2473C293.356 46.2473 294.702 47.1274 295.254 48.5333H294.206C293.667 47.5963 292.761 47.0423 291.769 47.0423C290.182 47.0423 288.921 48.3199 288.921 49.91C288.921 51.5144 290.168 52.7776 291.755 52.7776C292.477 52.7776 293.129 52.5223 293.639 52.0394C293.838 51.8548 293.937 51.728 294.206 51.3582ZM297.973 53.4167V47.2123H296.513V46.4174H297.973V43.9472H298.879V46.4174H300.552V47.2123H298.879V53.4167H297.973ZM301.811 51.3582H302.76C302.802 52.2246 303.312 52.7779 304.063 52.7779C304.743 52.7779 305.31 52.2103 305.31 51.5286C305.31 50.8895 304.928 50.521 303.922 50.1797C303.213 49.9386 302.902 49.7822 302.604 49.5128C302.25 49.172 302.066 48.7461 302.066 48.249C302.066 47.1278 302.944 46.2473 304.064 46.2473C305.14 46.2473 305.976 47.0562 306.033 48.1496H305.069C305.027 47.4823 304.602 47.0423 304.021 47.0423C303.483 47.0423 302.973 47.5534 302.973 48.0931C302.973 48.6607 303.284 48.9449 304.205 49.2572C304.942 49.4983 305.31 49.697 305.636 49.9809C306.019 50.3362 306.202 50.7762 306.202 51.3298C306.202 52.6643 305.296 53.5874 304.007 53.5874C302.731 53.5874 301.825 52.6643 301.811 51.3582ZM316.71 53.4167V43.9472H317.659V53.4167H316.71ZM320.394 53.4167V46.4177H321.301V47.3269C321.995 46.5593 322.618 46.2473 323.454 46.2473C325.324 46.2473 326.543 47.5534 326.543 49.5692V53.4167H325.636V49.5696C325.636 48.0641 324.772 47.0426 323.469 47.0426C322.661 47.0426 321.882 47.5253 321.556 48.2206C321.414 48.5329 321.358 48.9166 321.358 49.5696V53.4167H320.394ZM329.898 53.4167V47.2123H328.439V46.4174H329.898V43.9472H330.805V46.4174H332.477V47.2123H330.805V53.4167H329.898ZM339.866 49.4418C339.525 47.9793 338.477 47.0423 337.174 47.0423C335.856 47.0423 334.737 48.0361 334.496 49.4418H339.866ZM340.815 50.251H334.467C334.539 51.6141 335.771 52.7779 337.16 52.7779C338.208 52.7779 339.256 52.0825 339.625 51.1311H340.603C340.107 52.5791 338.69 53.5874 337.174 53.5874C335.162 53.5874 333.532 51.9406 333.532 49.9245C333.532 47.8941 335.148 46.2473 337.16 46.2473C338.662 46.2473 340.05 47.2127 340.56 48.6181C340.744 49.1153 340.787 49.3995 340.815 50.251ZM342.711 53.4167V46.4177H343.618V47.4256C344.015 46.6306 344.567 46.3186 345.658 46.2473V47.1843C345.05 47.2552 344.752 47.3546 344.383 47.6669C343.844 48.1212 343.661 48.5471 343.661 49.3421V53.4167H342.711ZM347.554 53.4167V46.4177H348.461V47.3269C349.155 46.5593 349.778 46.2473 350.614 46.2473C352.484 46.2473 353.702 47.5534 353.702 49.5692V53.4167H352.796V49.5696C352.796 48.0641 351.932 47.0426 350.628 47.0426C349.82 47.0426 349.042 47.5253 348.715 48.2206C348.575 48.5329 348.518 48.9166 348.518 49.5696V53.4167H347.554ZM356.49 49.9102C356.49 51.4721 357.794 52.7779 359.339 52.7779C360.854 52.7779 362.102 51.486 362.102 49.9245C362.102 48.3342 360.869 47.0423 359.353 47.0423C357.794 47.0423 356.49 48.3483 356.49 49.9102ZM363.008 46.4177V53.4167H362.102V52.1958C361.421 53.1189 360.514 53.5874 359.353 53.5874C357.27 53.5874 355.598 51.9545 355.598 49.9102C355.598 47.8519 357.255 46.2473 359.353 46.2473C360.501 46.2473 361.464 46.73 362.102 47.6528V46.4177H363.008ZM366.363 53.4167V47.2123H364.904V46.4174H366.363V43.9472H367.27V46.4174H368.942V47.2123H367.27V53.4167H366.363ZM370.837 53.4167V46.4177H371.744V53.4167H370.837ZM370.837 45.5663V43.947H371.744V45.5659L370.837 45.5663ZM374.533 49.9531C374.533 51.5144 375.779 52.7779 377.294 52.7779C378.84 52.7779 380.044 51.5144 380.044 49.8818C380.044 48.3203 378.797 47.0426 377.294 47.0426C375.765 47.0426 374.533 48.3487 374.533 49.9531ZM373.64 49.9245C373.64 47.9086 375.298 46.2473 377.295 46.2473C379.278 46.2473 380.936 47.9225 380.936 49.91C380.936 51.9122 379.278 53.5874 377.281 53.5874C375.282 53.5874 373.64 51.9264 373.64 49.9245ZM382.832 53.4167V46.4177H383.739V47.3269C384.433 46.5593 385.057 46.2473 385.892 46.2473C387.763 46.2473 388.981 47.5534 388.981 49.5692V53.4167H388.075V49.5696C388.075 48.0641 387.21 47.0426 385.907 47.0426C385.099 47.0426 384.32 47.5253 383.994 48.2206C383.853 48.5329 383.796 48.9166 383.796 49.5696V53.4167H382.832ZM391.769 49.9102C391.769 51.4721 393.073 52.7779 394.617 52.7779C396.132 52.7779 397.379 51.486 397.379 49.9245C397.379 48.3342 396.147 47.0423 394.631 47.0423C393.073 47.0423 391.769 48.3483 391.769 49.9102ZM398.285 46.4177V53.4167H397.379V52.1958C396.7 53.1189 395.792 53.5874 394.631 53.5874C392.548 53.5874 390.877 51.9545 390.877 49.9102C390.877 47.8519 392.534 46.2473 394.631 46.2473C395.778 46.2473 396.742 46.73 397.379 47.6528V46.4177H398.285ZM400.602 53.4167V43.9472H401.508V53.4167H400.602ZM248.936 36.0217C248.868 36.4993 248.8 37.0454 248.8 37.4548C248.8 40.3206 250.843 41.7534 254.997 41.7534C258.879 41.7534 262.693 39.843 263.305 36.2264C263.919 32.3367 260.718 31.859 257.721 31.1764C255.951 30.6984 255.27 30.153 255.406 29.2659C255.61 28.5151 256.564 27.6955 257.789 27.6955C258.947 27.6955 259.56 28.2422 259.56 29.1974V29.6747H264.191C264.259 29.1974 264.259 28.651 264.259 28.2422C264.259 25.9219 262.625 24.4884 258.606 24.4884C254.793 24.4887 251.252 25.9904 250.571 29.675C249.958 33.2241 252.75 33.9062 255.61 34.5207C257.381 35.0665 258.539 35.2715 258.539 36.4996C258.403 37.6596 257.04 38.547 255.406 38.3423C253.84 38.2742 253.363 37.4552 253.295 36.6359C253.363 36.3634 253.363 36.227 253.363 36.022L248.936 36.0217ZM274.679 34.8614H270.252L273.929 28.0371H273.997L274.679 34.8614ZM272.159 24.8297L262.216 41.2762H266.711L268.413 38.0691H275.087L275.564 41.2762H280.672L277.607 24.8301L272.159 24.8297ZM284.962 24.8301L281.421 41.2762H285.984L287.278 35.0665H293.884L294.564 31.859H288.027L288.775 28.0374H295.858L296.539 24.8301H284.962ZM297.834 24.8301L294.292 41.2762H306.823L307.504 38.0691H299.604L300.352 34.5885H307.572L308.321 31.4496H300.965L301.715 28.0374H309.615L310.364 24.8301H297.834ZM309.411 36.5674H315.949L316.493 33.8377H310.16L309.411 36.5674ZM330.726 29.7429H335.221C335.221 29.4022 335.289 28.8561 335.289 28.5147C335.289 25.1029 332.225 24.4887 328.615 24.4887C321.737 24.5565 318.741 29.4022 318.06 33.2241C317.924 33.9746 317.855 34.7248 317.855 35.3393C317.855 39.229 320.238 41.549 324.598 41.7538C327.253 41.8219 330.726 41.0714 333.042 40.7301L334.88 31.9272H326.981L326.368 35.1342H329.705L329.024 38.0691C328.207 38.2742 327.322 38.3423 326.64 38.4104C323.985 38.3423 322.622 36.9088 322.622 34.7248C323.031 31.5177 324.393 27.6958 328.207 27.6958C329.501 27.6958 330.794 28.1056 330.726 29.7429ZM338.081 24.8301L335.902 35.2712C335.834 35.7485 335.698 36.2264 335.698 36.7722C335.698 39.7745 338.218 41.7534 342.304 41.7534C348.024 41.6175 350.816 38.683 351.566 35.0665L353.677 24.8301H349.251L347.138 34.7248C346.731 36.7722 345.641 38.3423 343.053 38.4101C341.214 38.4101 340.397 37.523 340.329 36.022C340.397 35.4756 340.397 35.1342 340.601 34.7248L342.645 24.8301H338.081ZM362.326 34.8614H357.899L361.576 28.0374H361.645L362.325 34.861L362.326 34.8614ZM359.806 24.8301L349.864 41.2762H354.357L356.06 38.0691H362.735L363.212 41.2762H368.319L365.255 24.8301H359.806ZM376.354 28.0378H378.33C379.76 28.0378 380.51 28.3785 380.51 29.4703C380.51 31.1764 379.215 31.859 377.581 31.859H375.538L376.354 28.0378ZM372.473 24.8297L368.931 41.2758H373.495L374.857 35.0661H376.219C377.581 35.0661 378.67 35.0661 378.67 36.5672C378.602 37.6586 378.33 39.7742 378.33 40.9345V41.2758H383.301C383.165 40.7301 383.165 40.184 383.097 39.706C383.165 38.1369 383.369 37.045 383.369 35.9532C383.369 34.2472 382.893 33.2916 380.441 33.2235V33.0865C382.756 32.8137 384.936 31.6537 385.48 28.9924C386.23 25.3755 382.553 24.8294 379.556 24.8294L372.473 24.8297ZM390.248 38.0691L392.359 28.0374H394.606C396.989 28.0374 398.42 29.5384 398.42 31.859C398.42 35.0665 395.765 38.0691 392.427 38.0691H390.248ZM388.545 24.8301L385.004 41.2762H392.291C395.968 41.2762 401.348 40.0474 402.914 33.8373C403.119 32.7458 403.255 31.654 403.255 30.6984C403.255 27.3548 401.348 24.8301 395.355 24.8301H388.545ZM405.705 26.7803C406.088 26.7683 406.176 26.609 406.176 26.4093C406.176 26.2147 406.088 26.1143 405.764 26.1143H405.276V26.7803H405.705ZM405.276 27.1863V28.3119H404.871V25.7077H405.711C406.187 25.7077 406.682 25.8373 406.682 26.4263C406.682 26.727 406.5 26.963 406.152 27.0333V27.045C406.511 27.1156 406.552 27.275 406.593 27.5576C406.628 27.8049 406.658 28.0759 406.745 28.3119H406.229C406.199 28.1649 406.158 27.9996 406.141 27.8463C406.111 27.6226 406.111 27.4166 405.993 27.2926C405.893 27.1863 405.759 27.1986 405.617 27.1863H405.276ZM407.564 27.0393C407.564 26.5566 407.372 26.0938 407.031 25.7525C406.691 25.4113 406.229 25.2194 405.747 25.219C404.735 25.219 403.918 26.0377 403.918 27.0393C403.918 27.28 403.964 27.5185 404.056 27.7409C404.148 27.9634 404.283 28.1655 404.453 28.3357C404.623 28.5059 404.825 28.6408 405.047 28.7328C405.269 28.8247 405.507 28.8719 405.747 28.8715C406.753 28.8715 407.564 28.0529 407.564 27.0393ZM403.53 27.0393C403.53 25.82 404.518 24.8301 405.746 24.8301C406.036 24.8297 406.323 24.8866 406.591 24.9975C406.858 25.1085 407.102 25.2712 407.306 25.4764C407.511 25.6816 407.673 25.9253 407.784 26.1935C407.895 26.4616 407.951 26.7491 407.951 27.0393C407.951 28.2706 406.97 29.2608 405.746 29.2608C405.456 29.2616 405.167 29.2046 404.898 29.0933C404.628 28.9819 404.383 28.8183 404.178 28.6118C403.972 28.4054 403.808 28.1602 403.697 27.8903C403.586 27.6205 403.529 27.3312 403.53 27.0393Z" fill="#262626"></path></g></g><defs><clipPath id="clip0_509_909"><rect width="159.3" height="29.0233" fill="white" transform="translate(248.8 24.4884)"></rect></clipPath></defs></svg> 