<?xml version="1.0" encoding="UTF-8"?> <svg xmlns="http://www.w3.org/2000/svg" width="1800" height="86" viewBox="0 0 1800 86" fill="none"><path d="M1800 0H0V86H1800V0Z" fill="black"></path><path d="M1800 0H0V86H1800V0Z" fill="white"></path><path d="M155.211 56.064C155.234 55.8656 155.214 55.6645 155.153 55.4743C155.092 55.2841 154.991 55.1093 154.857 54.9614C154.722 54.8135 154.558 54.6961 154.374 54.6171C154.191 54.538 153.993 54.4991 153.793 54.503C153.368 54.5107 152.96 54.6738 152.647 54.9613C152.334 55.2489 152.137 55.6411 152.093 56.064C152.07 56.2621 152.09 56.4629 152.151 56.6527C152.212 56.8425 152.314 57.017 152.448 57.1643C152.582 57.3117 152.747 57.4285 152.93 57.507C153.114 57.5854 153.312 57.6236 153.511 57.619C153.936 57.6138 154.344 57.4524 154.658 57.1657C154.971 56.8789 155.168 56.4867 155.211 56.064ZM154.989 56.044C154.949 56.4103 154.778 56.7496 154.506 56.9985C154.234 57.2473 153.881 57.3886 153.513 57.396C153.344 57.4003 153.177 57.3683 153.022 57.3022C152.867 57.2362 152.727 57.1376 152.614 57.0131C152.5 56.8886 152.414 56.7412 152.362 56.5807C152.31 56.4202 152.294 56.2505 152.313 56.083C152.353 55.7167 152.524 55.3774 152.796 55.1285C153.068 54.8797 153.421 54.7384 153.789 54.731C153.957 54.7272 154.125 54.7595 154.28 54.8258C154.435 54.892 154.574 54.9906 154.687 55.115C154.801 55.2393 154.887 55.3866 154.939 55.5468C154.991 55.7071 155.008 55.8766 154.989 56.044ZM153.911 56.253L154.159 56.978H153.917L153.675 56.273H153.329L153.198 56.979H152.969L153.315 55.143H153.915C153.978 55.1411 154.04 55.1517 154.099 55.174C154.157 55.1964 154.211 55.23 154.256 55.2732C154.302 55.3163 154.339 55.368 154.364 55.4253C154.39 55.4825 154.403 55.5443 154.405 55.607C154.403 55.7546 154.354 55.8976 154.264 56.0144C154.173 56.1311 154.047 56.2153 153.905 56.254L153.911 56.253ZM153.918 55.365H153.5L153.369 56.051H153.748C153.85 56.0462 153.948 56.0076 154.026 55.9414C154.104 55.8752 154.158 55.785 154.179 55.685C154.187 55.6462 154.187 55.6061 154.178 55.5675C154.168 55.5289 154.151 55.4929 154.126 55.4621C154.101 55.4314 154.069 55.4067 154.033 55.3899C153.997 55.373 153.958 55.3645 153.918 55.365ZM102.738 39.676C102.755 40.2615 102.652 40.8443 102.436 41.3885C102.219 41.9327 101.893 42.4267 101.478 42.84C100.072 44.0472 98.2485 44.6532 96.4 44.527C95.0043 44.5391 93.6264 44.2131 92.384 43.577L92.977 40.461C94.1528 41.1007 95.4572 41.4683 96.794 41.537C97.806 41.537 98.487 41.07 98.487 40.322C98.487 39.643 98.008 39.169 96.787 38.57C94.852 37.602 93.887 36.375 93.887 34.929C93.887 32.084 96.31 30.161 99.946 30.161C101.295 30.0931 102.636 30.4049 103.816 31.061L103.225 34.171C102.184 33.5181 100.979 33.1744 99.75 33.18C98.69 33.18 98 33.624 98 34.367C98 34.9 98.528 35.378 99.646 35.922C101.103 36.65 102.746 37.727 102.746 39.676H102.738ZM77.538 30.191C76.3702 30.146 75.2054 30.3381 74.114 30.7558C73.0225 31.1734 72.0271 31.808 71.1877 32.6211C70.3483 33.4342 69.6824 34.409 69.2303 35.4867C68.7781 36.5643 68.5491 37.7224 68.557 38.891C68.557 42.316 70.833 44.528 74.364 44.528C75.7089 44.5606 77.0456 44.3095 78.287 43.791L78.934 40.374C77.8852 40.9466 76.7109 41.2503 75.516 41.258C75.1471 41.278 74.7782 41.2177 74.4349 41.0812C74.0916 40.9447 73.782 40.7352 73.5276 40.4674C73.2731 40.1995 73.0798 39.8796 72.9611 39.5297C72.8424 39.1799 72.8011 38.8084 72.84 38.441C72.8135 37.8082 72.913 37.1764 73.1327 36.5823C73.3524 35.9883 73.6879 35.4438 74.1198 34.9805C74.5517 34.5172 75.0713 34.1443 75.6485 33.8834C76.2256 33.6226 76.8489 33.479 77.482 33.461C78.2678 33.4384 79.0455 33.6244 79.736 34L80.369 30.678C79.4627 30.3443 78.5027 30.1799 77.537 30.193L77.538 30.191ZM149.356 41.342C151.051 41.3456 152.713 40.8763 154.156 39.987L153.501 43.427C151.893 44.1679 150.141 44.5436 148.371 44.527C144.571 44.527 142.395 42.412 142.395 38.72C142.401 36.5783 143.16 34.507 144.54 32.869C145.262 32.0141 146.163 31.3285 147.18 30.8607C148.196 30.3929 149.303 30.1544 150.422 30.162C153.299 30.162 155.222 31.833 155.222 34.311C155.241 34.8288 155.152 35.3449 154.961 35.8267C154.771 36.3086 154.483 36.7459 154.115 37.111C152.741 38.45 149.355 39.2 146.271 38.595C146.124 40.333 147.432 41.337 149.359 41.337L149.356 41.342ZM146.715 35.949C149.115 35.969 150.463 35.726 151.051 35.143C151.688 34.51 151.489 33.153 149.918 33.153C149.147 33.19 148.411 33.4869 147.83 33.9953C147.249 34.5036 146.857 35.1936 146.718 35.953L146.715 35.949ZM140.328 30.191C139.16 30.146 137.995 30.3381 136.904 30.7558C135.813 31.1734 134.817 31.808 133.978 32.6211C133.138 33.4342 132.472 34.409 132.02 35.4867C131.568 36.5643 131.339 37.7224 131.347 38.891C131.347 42.316 133.623 44.528 137.154 44.528C138.499 44.5606 139.836 44.3095 141.077 43.791L141.724 40.374C140.675 40.9466 139.501 41.2503 138.306 41.258C137.937 41.278 137.568 41.2177 137.225 41.0812C136.882 40.9447 136.572 40.7352 136.318 40.4674C136.063 40.1995 135.87 39.8796 135.751 39.5297C135.632 39.1799 135.591 38.8084 135.63 38.441C135.604 37.8082 135.703 37.1764 135.923 36.5823C136.142 35.9883 136.478 35.4438 136.91 34.9805C137.342 34.5172 137.861 34.1443 138.438 33.8834C139.016 33.6226 139.639 33.479 140.272 33.461C141.058 33.4382 141.836 33.6241 142.527 34L143.16 30.678C142.254 30.3443 141.294 30.1799 140.328 30.193V30.191ZM130.674 36.534L129.2 44.247H125.3L125.807 41.592C125.551 42.4758 125.006 43.2482 124.26 43.7856C123.513 44.323 122.607 44.5943 121.688 44.556C118.972 44.556 117.745 42.145 117.744 39.732C117.726 37.0305 118.758 34.4277 120.622 32.472C121.359 31.7281 122.238 31.1402 123.207 30.7433C124.176 30.3465 125.215 30.1488 126.262 30.162C126.938 30.1087 127.617 30.2086 128.249 30.4541C128.882 30.6996 129.45 31.0844 129.913 31.58C131.051 32.959 130.958 35.029 130.674 36.534ZM126.916 34.76C126.936 34.5614 126.912 34.361 126.846 34.1727C126.78 33.9843 126.673 33.8127 126.534 33.6698C126.395 33.5269 126.226 33.4162 126.039 33.3454C125.853 33.2746 125.653 33.2455 125.454 33.26C123.532 33.26 121.866 36.578 121.868 38.885C121.868 40.327 122.403 41.224 123.332 41.224C124.819 41.224 126.1 39.669 126.54 37.392C126.74 36.5257 126.866 35.6438 126.915 34.756L126.916 34.76ZM67.884 36.534L66.41 44.247H62.51L63.017 41.592C62.7613 42.4758 62.2164 43.2482 61.4696 43.7856C60.7228 44.323 59.8173 44.5943 58.898 44.556C56.182 44.556 54.955 42.145 54.954 39.732C54.9364 37.0305 55.9682 34.4277 57.832 32.472C58.5689 31.7281 59.4481 31.1402 60.417 30.7433C61.386 30.3465 62.425 30.1488 63.472 30.162C64.148 30.1087 64.8273 30.2086 65.4594 30.4541C66.0915 30.6996 66.6601 31.0844 67.123 31.58C68.261 32.959 68.168 35.029 67.884 36.534ZM64.125 34.76C64.1446 34.5614 64.1206 34.361 64.0546 34.1727C63.9886 33.9843 63.8823 33.8127 63.743 33.6698C63.6037 33.5269 63.4349 33.4162 63.2483 33.3454C63.0618 33.2746 62.862 33.2455 62.663 33.26C60.741 33.26 59.075 36.578 59.077 38.885C59.077 40.327 59.612 41.224 60.542 41.224C62.029 41.224 63.309 39.669 63.75 37.392C63.9503 36.5257 64.0758 35.6438 64.125 34.756V34.76ZM117.467 35.408C117.467 38.759 115.858 42.195 112.958 43.741C112.047 44.2469 111.028 44.5268 109.987 44.557C109.447 44.6166 108.902 44.518 108.417 44.2732C107.932 44.0283 107.529 43.6478 107.257 43.178L106.22 48.663H102.134L105.6 30.416H109.2L108.779 32.631C109.229 31.9048 109.849 31.2999 110.587 30.8695C111.325 30.439 112.157 30.1961 113.01 30.162C115.714 30.162 117.468 32.212 117.468 35.407L117.467 35.408ZM113.217 35.718C113.217 35.068 113.064 33.491 111.567 33.491C110.045 33.491 108.76 35.225 108.262 37.856C108.092 38.756 107.614 41.456 109.495 41.456C111.641 41.454 113.218 38.407 113.218 35.717L113.217 35.718ZM50.694 33.482L51.277 30.416H47.677L45 44.49H49.087L50.187 38.69C50.842 35.265 52.805 33.9 55.6 34.319L56.4 30.119C55.2175 30.0107 54.0308 30.277 53.0079 30.8802C51.985 31.4833 51.1776 32.3928 50.7 33.48L50.694 33.482ZM83.476 44.247L84.884 36.842L87.784 44.247H92.184L89.184 36.782L94.64 30.415H90.173L84.908 36.715L86.945 26H82.886L79.417 44.247H83.476ZM130.5 53.923C130.528 54.3889 130.463 54.8558 130.307 55.296C130.152 55.7362 129.91 56.1407 129.595 56.4857C129.281 56.8306 128.9 57.109 128.476 57.3044C128.052 57.4997 127.594 57.6081 127.127 57.623C126.807 57.6398 126.487 57.5888 126.188 57.4733C125.889 57.3578 125.618 57.1803 125.393 56.9527C125.167 56.725 124.992 56.4522 124.88 56.1522C124.767 55.8522 124.719 55.5318 124.739 55.212C124.712 54.7463 124.778 54.28 124.934 53.8403C125.09 53.4007 125.332 52.9967 125.647 52.652C125.961 52.3073 126.341 52.0288 126.764 51.8331C127.188 51.6373 127.646 51.5281 128.112 51.512C128.432 51.4958 128.752 51.5473 129.05 51.663C129.349 51.7788 129.62 51.9562 129.845 52.1837C130.07 52.4113 130.245 52.6838 130.358 52.9835C130.471 53.2832 130.519 53.6033 130.5 53.923ZM126.18 55.172C126.18 55.972 126.6 56.541 127.32 56.541C128.365 56.541 129.06 55.101 129.06 53.935C129.06 53.335 128.784 52.591 127.944 52.591C126.832 52.59 126.183 54.08 126.183 55.172H126.18ZM140.011 53.923C140.039 54.3889 139.974 54.8558 139.818 55.296C139.663 55.7362 139.421 56.1407 139.106 56.4857C138.792 56.8306 138.411 57.109 137.987 57.3044C137.563 57.4997 137.105 57.6081 136.638 57.623C136.318 57.6398 135.998 57.5888 135.699 57.4733C135.4 57.3578 135.129 57.1803 134.904 56.9527C134.678 56.725 134.503 56.4522 134.391 56.1522C134.278 55.8522 134.23 55.5318 134.25 55.212C134.223 54.7463 134.289 54.28 134.445 53.8403C134.601 53.4007 134.843 52.9967 135.158 52.652C135.472 52.3073 135.852 52.0288 136.275 51.8331C136.699 51.6373 137.157 51.5281 137.623 51.512C137.943 51.496 138.262 51.5475 138.561 51.6633C138.859 51.7792 139.13 51.9566 139.355 52.1841C139.58 52.4116 139.755 52.6841 139.868 52.9837C139.981 53.2834 140.03 53.6034 140.011 53.923ZM135.691 55.172C135.691 55.972 136.111 56.541 136.831 56.541C137.876 56.541 138.571 55.101 138.571 53.935C138.571 53.335 138.295 52.591 137.455 52.591C136.339 52.591 135.691 54.08 135.691 55.172ZM132.591 49.731L131.116 57.488H132.509L134 49.73L132.591 49.731ZM110.067 51.523C109.575 51.5196 109.087 51.6147 108.633 51.8029C108.178 51.991 107.766 52.2683 107.42 52.6184C107.075 52.9685 106.803 53.3844 106.62 53.8413C106.438 54.2983 106.349 54.7871 106.359 55.279C106.34 55.5928 106.388 55.9071 106.501 56.2007C106.613 56.4943 106.787 56.7603 107.011 56.981C107.235 57.2016 107.504 57.3716 107.799 57.4796C108.095 57.5876 108.41 57.631 108.723 57.607C109.317 57.6197 109.906 57.4976 110.446 57.25L110.677 56.037C110.201 56.3192 109.66 56.4713 109.107 56.478C108.928 56.4884 108.75 56.4594 108.584 56.3932C108.417 56.327 108.268 56.2251 108.145 56.0947C108.023 55.9643 107.931 55.8086 107.875 55.6387C107.819 55.4687 107.801 55.2886 107.823 55.111C107.789 54.4931 108.001 53.887 108.414 53.4257C108.826 52.9645 109.405 52.6858 110.023 52.651C110.4 52.6444 110.772 52.7386 111.1 52.924L111.321 51.762C110.925 51.6004 110.5 51.5195 110.072 51.524L110.067 51.523ZM102.084 55.916C101.959 55.6585 101.905 55.3723 101.928 55.087C104.184 55.135 105.756 54.654 105.756 53.156C105.755 52.9195 105.703 52.686 105.605 52.4709C105.506 52.2559 105.363 52.0643 105.185 51.9088C105.007 51.7533 104.798 51.6375 104.571 51.5691C104.345 51.5007 104.106 51.4812 103.872 51.512C102.949 51.5748 102.088 51.9945 101.469 52.682C100.851 53.3696 100.525 54.271 100.56 55.195C100.525 55.5198 100.563 55.8482 100.671 56.1565C100.779 56.4647 100.954 56.7451 101.184 56.9772C101.414 57.2093 101.693 57.3873 102 57.4983C102.307 57.6093 102.635 57.6505 102.96 57.619C103.731 57.6263 104.491 57.4378 105.169 57.071L105.408 55.813C104.795 56.2711 104.049 56.5168 103.284 56.513C103.048 56.5326 102.812 56.4869 102.6 56.3811C102.388 56.2753 102.21 56.1134 102.084 55.913V55.916ZM103.692 52.555C104.136 52.555 104.435 52.782 104.435 53.155C104.435 53.862 103.511 54.055 102.071 54.042C102.139 53.65 102.334 53.2914 102.628 53.0224C102.921 52.7533 103.296 52.589 103.692 52.555ZM123.78 53.118C123.808 52.9106 123.789 52.6997 123.726 52.5003C123.663 52.3008 123.556 52.1178 123.414 51.9643C123.272 51.8108 123.098 51.6906 122.904 51.6122C122.71 51.5339 122.501 51.4993 122.292 51.511C121.861 51.5166 121.439 51.6321 121.065 51.8467C120.692 52.0612 120.379 52.3677 120.157 52.737L120.373 51.608H119.113L117.995 57.488H119.388L119.905 54.788C120.157 53.418 120.959 52.651 121.595 52.651C122.147 52.651 122.328 52.998 122.328 53.491C122.326 53.7259 122.303 53.9602 122.259 54.191L121.631 57.491H123.024L123.677 54.083C123.739 53.7659 123.772 53.444 123.777 53.121L123.78 53.118ZM115.687 51.511C115.311 51.513 114.94 51.6012 114.603 51.7688C114.266 51.9365 113.972 52.1791 113.743 52.478L114.269 49.73H112.869L111.39 57.487H112.783L113.3 54.787C113.552 53.417 114.354 52.65 114.99 52.65C115.542 52.65 115.723 52.997 115.723 53.49C115.721 53.7249 115.698 53.9592 115.654 54.19L115.026 57.49H116.42L117.073 54.082C117.135 53.7649 117.168 53.443 117.173 53.12C117.201 52.9127 117.182 52.7019 117.119 52.5026C117.055 52.3033 116.949 52.1204 116.807 51.967C116.665 51.8136 116.49 51.6935 116.296 51.6152C116.103 51.5369 115.894 51.5023 115.685 51.514L115.687 51.511ZM99.466 50.139H98.107L97.807 51.639H97.027L96.827 52.719H97.608L97.108 55.319C97.0317 55.6741 96.9912 56.0359 96.987 56.399C96.987 57.071 97.408 57.599 98.367 57.599C98.6755 57.6098 98.9837 57.5692 99.279 57.479L99.49 56.371C99.306 56.4076 99.1187 56.4254 98.931 56.424C98.8599 56.4334 98.7875 56.4261 98.7197 56.4027C98.6519 56.3792 98.5904 56.3403 98.5403 56.2889C98.4902 56.2375 98.4528 56.1752 98.431 56.1068C98.4093 56.0384 98.4038 55.9659 98.415 55.895C98.423 55.6161 98.4592 55.3386 98.523 55.067L98.979 52.715H100.288L100.504 51.635H99.188L99.466 50.139ZM146.415 59.672C146.673 59.8093 146.958 59.8899 147.25 59.9085C147.542 59.927 147.834 59.8831 148.108 59.7797C148.381 59.6763 148.63 59.5157 148.836 59.3086C149.043 59.1016 149.203 58.8528 149.306 58.579L153.216 51.61H151.728L149.508 55.961L148.969 51.61H147.5L148.542 57.333L148.086 58.247C148.013 58.3656 147.916 58.4677 147.801 58.5471C147.687 58.6265 147.557 58.6814 147.42 58.7083C147.283 58.7352 147.142 58.7337 147.006 58.7037C146.87 58.6737 146.742 58.6159 146.629 58.534L146.415 59.672ZM144.515 51.512C144.001 51.5269 143.496 51.6438 143.028 51.856C142.56 52.0682 142.138 52.3714 141.789 52.7479C141.439 53.1245 141.168 53.5669 140.99 54.0493C140.813 54.5317 140.734 55.0446 140.757 55.558C140.757 56.603 141.273 57.623 142.522 57.623C142.907 57.6209 143.285 57.5247 143.623 57.3427C143.962 57.1607 144.251 56.8985 144.465 56.579L144.353 57.09C144.066 58.447 143.369 58.878 142.453 58.878C141.921 58.8846 141.394 58.7654 140.917 58.53L140.7 59.672C141.245 59.9031 141.833 60.0149 142.425 60C143.205 60.0386 143.975 59.81 144.608 59.352C145.299 58.6505 145.727 57.7323 145.821 56.752L146.35 54.101C146.425 53.7698 146.466 53.4316 146.47 53.092C146.47 52.035 145.737 51.519 144.513 51.519L144.515 51.512ZM144.959 54.022L144.851 54.562C144.611 55.739 143.866 56.483 143.146 56.483C142.498 56.483 142.221 55.943 142.221 55.306C142.221 54.153 143.021 52.581 144.25 52.581C144.352 52.569 144.456 52.5797 144.553 52.6123C144.651 52.6449 144.74 52.6986 144.815 52.7697C144.889 52.8407 144.947 52.9273 144.984 53.0233C145.022 53.1193 145.037 53.2223 145.03 53.325C145.034 53.5604 145.01 53.7953 144.958 54.025L144.959 54.022Z" fill="#262626"></path><path fill-rule="evenodd" clip-rule="evenodd" d="M1414.45 54.219C1414.45 53.7388 1414.59 53.2694 1414.86 52.8701C1415.13 52.4708 1415.51 52.1596 1415.95 51.9758C1416.39 51.792 1416.88 51.744 1417.35 51.8376C1417.82 51.9313 1418.26 52.1626 1418.6 52.5021C1418.94 52.8417 1419.17 53.2743 1419.26 53.7453C1419.36 54.2163 1419.31 54.7045 1419.12 55.1482C1418.94 55.5918 1418.63 55.971 1418.23 56.2378C1417.83 56.5046 1417.36 56.647 1416.88 56.647C1416.24 56.647 1415.62 56.3912 1415.16 55.9358C1414.71 55.4805 1414.45 54.8629 1414.45 54.219ZM1416.88 56.999C1417.43 56.999 1417.97 56.836 1418.43 56.5305C1418.88 56.225 1419.24 55.7908 1419.45 55.2829C1419.66 54.7749 1419.71 54.2159 1419.61 53.6766C1419.5 53.1374 1419.24 52.642 1418.85 52.2532C1418.46 51.8645 1417.96 51.5997 1417.42 51.4924C1416.88 51.3851 1416.33 51.4402 1415.82 51.6506C1415.31 51.861 1414.87 52.2173 1414.57 52.6745C1414.26 53.1317 1414.1 53.6692 1414.1 54.219C1414.1 54.9562 1414.39 55.6632 1414.92 56.1845C1415.44 56.7058 1416.14 56.9987 1416.88 56.999Z" fill="#262626"></path><path fill-rule="evenodd" clip-rule="evenodd" d="M1416.23 52.959H1417.11C1417.51 52.959 1417.93 53.023 1417.93 53.496C1417.93 54.023 1417.49 54.055 1417.07 54.055H1416.23L1416.23 52.959ZM1418.32 53.518C1418.32 52.905 1417.88 52.69 1417.21 52.69H1415.87V55.79H1416.23V54.36H1416.94L1417.82 55.79H1418.27L1417.33 54.36C1417.88 54.335 1418.32 54.108 1418.32 53.517L1418.32 53.518Z" fill="#262626"></path><path fill-rule="evenodd" clip-rule="evenodd" d="M1420.35 29.442L1418.87 35.581H1416L1417.53 29.442H1420.35Z" fill="#262626"></path><path fill-rule="evenodd" clip-rule="evenodd" d="M1408.03 56.646V45.66L1404.44 29.442H1408.99L1411.01 41.042L1413.22 29.442H1416.05L1412.45 45.66V56.646H1408.03Z" fill="#262626"></path><path fill-rule="evenodd" clip-rule="evenodd" d="M1428.63 48.457V51.436C1428.63 53.348 1427.8 53.209 1427.11 53.209C1426.26 53.209 1425.56 53.209 1425.56 51.468L1425.53 47.218H1421.41V52.333C1421.41 57.106 1424 56.626 1427.04 56.626C1429.48 56.626 1432.97 57.106 1432.97 52.226V46.941C1432.97 45.441 1432.19 44.347 1430.95 43.119C1430.95 43.119 1429.57 41.955 1427.23 39.627C1425.65 38.079 1425.31 36.936 1425.31 35.879V33.648C1425.31 31.748 1426.12 31.897 1426.81 31.897C1427.65 31.897 1428.37 31.897 1428.37 33.637L1428.39 37.054H1432.52V33.295C1432.52 28.522 1429.93 29.014 1426.89 29.014C1424.46 29.014 1420.96 28.523 1420.96 33.392V37.392C1420.96 38.876 1422.04 40.478 1424.6 42.88C1424.6 42.88 1428.63 45.494 1428.63 48.453V48.457Z" fill="#262626"></path><path fill-rule="evenodd" clip-rule="evenodd" d="M1373.74 48.457V51.436C1373.74 53.348 1372.93 53.209 1372.24 53.209C1371.4 53.209 1370.68 53.209 1370.68 51.468L1370.67 47.218H1366.54V52.333C1366.54 57.106 1369.12 56.626 1372.17 56.626C1374.6 56.626 1378.11 57.106 1378.11 52.226V46.941C1378.11 45.441 1377.31 44.347 1376.09 43.119C1376.09 43.119 1374.71 41.955 1372.36 39.627C1370.77 38.079 1370.44 36.936 1370.44 35.879V33.648C1370.44 31.748 1371.26 31.897 1371.95 31.897C1372.79 31.897 1373.51 31.897 1373.51 33.637L1373.53 37.054H1377.66V33.295C1377.66 28.522 1375.07 29.014 1372.01 29.014C1369.58 29.014 1366.09 28.523 1366.09 33.392V37.392C1366.09 38.876 1367.16 40.478 1369.73 42.88C1369.73 42.88 1373.74 45.494 1373.74 48.453L1373.74 48.457Z" fill="#262626"></path><path fill-rule="evenodd" clip-rule="evenodd" d="M1356.6 32.24H1357.54C1359.18 32.24 1358.99 34.108 1358.99 36.009C1358.99 36.009 1359.18 39.725 1357.54 39.725H1356.6V32.24ZM1352.01 56.646H1356.6V43.364H1357.41C1358.89 43.364 1358.98 44.058 1358.98 45.618V51.5C1358.98 53.315 1359.1 55.76 1359.6 56.647H1364.14C1363.64 55.761 1363.69 53.316 1363.69 51.5V46.7C1363.69 44.009 1363.79 41.959 1361.18 41.49C1363.16 41.19 1363.89 40.316 1363.89 36.034C1363.89 30.301 1362.91 29.447 1358 29.447H1352V56.647L1352.01 56.646Z" fill="#262626"></path><path fill-rule="evenodd" clip-rule="evenodd" d="M1402.99 39.671V43.365H1398.26V52.729H1403.88V56.647H1393.84V29.442H1403.66V33.051H1398.26V39.671H1402.99Z" fill="#262626"></path><path fill-rule="evenodd" clip-rule="evenodd" d="M1349.52 39.671V43.365H1344.79V52.729H1350.4V56.647H1340.36V29.442H1350.2V33.051H1344.79V39.671H1349.52Z" fill="#262626"></path><path fill-rule="evenodd" clip-rule="evenodd" d="M1391.44 29.442V56.642H1387.03V43.364H1384.48V56.646H1380.05V29.442H1384.48V39.628H1387.03V29.442H1391.44Z" fill="#262626"></path><path fill-rule="evenodd" clip-rule="evenodd" d="M1338.4 29.442V56.642H1333.99V43.364H1331.44V56.646H1327.03V29.442H1331.44V39.628H1333.99V29.442H1338.4Z" fill="#262626"></path><path fill-rule="evenodd" clip-rule="evenodd" d="M1126.39 32.76V36.812C1124.5 36.0817 1122.49 35.6783 1120.47 35.619C1119.62 35.5814 1118.77 35.7625 1118.01 36.145C1117.75 36.2535 1117.53 36.4313 1117.37 36.6587C1117.2 36.8862 1117.11 37.1546 1117.08 37.434C1117.08 38.11 1117.78 38.711 1119.17 39.249L1123.2 41.103C1126.46 42.571 1128.07 44.521 1128.07 46.971C1128.1 47.9353 1127.87 48.889 1127.42 49.7406C1126.96 50.5921 1126.3 51.313 1125.49 51.834C1123.43 53.14 1121.02 53.7743 1118.58 53.649C1117.39 53.6565 1116.19 53.6008 1115 53.482C1113.78 53.3436 1112.57 53.1278 1111.37 52.836V48.596C1113.55 49.3389 1115.83 49.7413 1118.14 49.789C1120.56 49.789 1121.76 49.125 1121.76 47.789C1121.76 47.122 1121.27 46.584 1120.26 46.162L1115.79 44.362C1114.37 43.8216 1113.1 42.9368 1112.11 41.787C1111.32 40.779 1110.9 39.5318 1110.92 38.252C1110.91 37.3469 1111.13 36.4548 1111.57 35.661C1112 34.8672 1112.63 34.1983 1113.4 33.718C1115.38 32.4912 1117.69 31.8946 1120.02 32.007C1121.04 32.0174 1122.06 32.0882 1123.07 32.219C1124.22 32.366 1125.32 32.545 1126.39 32.766L1126.39 32.76Z" fill="#262626"></path><path fill-rule="evenodd" clip-rule="evenodd" d="M1007.46 32.76V36.812C1005.57 36.0817 1003.57 35.6783 1001.54 35.619C1000.69 35.5811 999.845 35.7622 999.086 36.145C998.828 36.2536 998.605 36.4315 998.441 36.659C998.278 36.8864 998.18 37.1547 998.16 37.434C998.16 38.11 998.86 38.711 1000.26 39.249L1004.29 41.103C1007.53 42.571 1009.15 44.521 1009.15 46.971C1009.17 47.9341 1008.95 48.8864 1008.5 49.7376C1008.04 50.5887 1007.38 51.3104 1006.57 51.834C1004.51 53.1393 1002.09 53.7724 999.656 53.646C998.46 53.6536 997.264 53.5978 996.073 53.479C994.853 53.3398 993.642 53.124 992.449 52.833V48.596C994.627 49.337 996.906 49.7393 999.206 49.789C1001.63 49.789 1002.83 49.125 1002.83 47.789C1002.83 47.122 1002.34 46.584 1001.35 46.162L996.876 44.362C995.451 43.8284 994.185 42.9425 993.195 41.787C992.398 40.7829 991.974 39.5336 991.995 38.252C991.986 37.3462 992.21 36.4532 992.646 35.6591C993.082 34.865 993.715 34.1965 994.484 33.718C996.461 32.4894 998.765 31.8926 1001.09 32.007C1002.12 32.0175 1003.14 32.0883 1004.16 32.219C1005.29 32.366 1006.4 32.545 1007.46 32.766L1007.46 32.76Z" fill="#262626"></path><path fill-rule="evenodd" clip-rule="evenodd" d="M1012.08 32.401H1018.64V53.248H1012.08V32.401Z" fill="#262626"></path><path fill-rule="evenodd" clip-rule="evenodd" d="M1037.84 32.401V36.254H1028.09V40.877H1036.54V44.351H1028.09V49.201H1038.04V53.245H1021.78V32.401H1037.84Z" fill="#262626"></path><path fill-rule="evenodd" clip-rule="evenodd" d="M1066.98 32.401V53.259H1060.85V39.501L1054.49 53.45H1050.71L1044.6 39.501V53.259H1040.17V32.401H1048.18L1053.64 45.17L1059.37 32.401H1066.98Z" fill="#262626"></path><path fill-rule="evenodd" clip-rule="evenodd" d="M1086.44 32.401V36.254H1076.74V40.877H1085.19V44.351H1076.74V49.201H1086.63V53.245H1070.38V32.401H1086.44Z" fill="#262626"></path><path fill-rule="evenodd" clip-rule="evenodd" d="M1106.92 32.401V53.248H1099.96L1092.15 39.877V53.248H1087.73V32.401H1094.89L1102.5 45.542V32.401H1106.92Z" fill="#262626"></path><path d="M721.483 30C717.546 29.995 714.936 32.071 714.569 35.176C714.484 35.8933 714.395 36.6107 714.304 37.328H765.555C765.555 37.328 765.655 36.572 765.726 35.965C766.112 32.836 764.783 30 759.946 30C759.946 30 723.56 30.002 721.483 30ZM690.205 30.001L689.305 37.328H712.546L713.446 30.001H690.205ZM768.225 30.001L767.325 37.328H792.525C792.525 37.328 792.556 37.063 792.667 36.201C793.28 31.392 790.178 30.001 787.182 30.001H768.225ZM766.98 40.117L765.017 56.107H773.71L775.675 40.123H766.98V40.117ZM783.494 40.117L781.528 56.107H790.221L792.186 40.123H783.495L783.494 40.117ZM688.966 40.117L687 56.108H710.241L711.097 49.172H696.544L696.912 46.181H711.46L712.205 40.122H688.967L688.966 40.117ZM713.966 40.117C713.328 44.29 715.417 46.176 718.377 46.176H730.136L729.769 49.176H712.856L712.004 56.112C712.004 56.112 730.418 56.118 731.164 56.112C731.78 56.068 736.088 55.95 737.554 52.427C738.043 50.4197 738.382 48.3787 738.568 46.321C739.245 41.321 735.783 40.129 733.057 40.129H713.966V40.117ZM741.022 40.117L739.056 56.108H747.746L748.969 46.179H759.881C762.976 46.179 764.64 44.515 764.948 42.279C765.047 41.5597 765.136 40.8393 765.216 40.118H741.016L741.022 40.117Z" fill="#262626"></path><path d="M1708.07 27.709L1703.67 45.601L1699.26 27.709H1686.52V34.316C1684.97 28.534 1679.29 27.084 1674.22 27.002C1668.03 26.921 1661.18 29.6021 1660.94 37.7841H1669.5C1669.5 35.3141 1671.76 33.9 1673.9 33.936C1676.52 33.914 1677.73 35.036 1677.79 36.775C1677.7 38.287 1676.81 39.34 1673.92 39.34H1671.04V45.277H1673.66C1675.14 45.277 1677.21 46.085 1677.29 48.199C1677.39 50.719 1675.63 51.8251 1673.48 51.847C1669.63 51.7041 1668.64 48.747 1668.64 46.205H1659.75C1659.79 47.918 1659.73 59.0821 1673.65 59.0001C1680.32 59.0611 1685.17 56.2571 1686.54 52.3911V58.316H1695.11V39.0161L1699.85 58.316H1707.5L1712.26 39.0341V58.334H1721V27.7111L1708.07 27.709ZM1686.55 45.559C1685.88 43.9731 1684.63 42.7017 1683.06 42.0031C1683.92 41.6475 1684.69 41.0922 1685.3 40.3828C1685.9 39.6733 1686.33 38.83 1686.55 37.9221V45.559Z" fill="#262626"></path><g clip-path="url(#clip0_509_910)"><mask id="mask0_509_910" style="mask-type:luminance" maskUnits="userSpaceOnUse" x="332" y="27" width="177" height="32"><path d="M509 27H332V59H509V27Z" fill="white"></path></mask><g mask="url(#mask0_509_910)"><path d="M333.055 53.7461H335.023C335.967 53.7461 336.518 53.6202 336.975 53.3228C337.557 52.9628 337.903 52.3057 337.903 51.5857C337.903 50.7245 337.431 50.0045 336.675 49.6755C336.093 49.425 335.904 49.3937 334.566 49.3937H333.055L333.055 53.7461ZM332 58.8953V48.4546H334.928C336.235 48.4546 336.99 48.6271 337.651 49.0654C338.47 49.6132 338.943 50.5367 338.943 51.5857C338.943 53.5266 337.541 54.6849 335.18 54.6849H333.055V58.8953H332ZM341.274 58.8953V51.1784H342.282V52.2897C342.722 51.4132 343.337 51.0692 344.549 50.9906V52.0237C343.872 52.1019 343.541 52.2115 343.132 52.5558C342.534 53.0567 342.329 53.5263 342.329 54.4028V58.8953H341.274ZM346.94 55.0765C346.94 56.7979 348.325 58.191 350.01 58.191C351.726 58.191 353.064 56.7979 353.064 54.9979C353.064 53.2762 351.678 51.8675 350.01 51.8675C348.309 51.8675 346.94 53.3075 346.94 55.0765ZM345.948 55.0449C345.948 52.8223 347.79 50.9906 350.01 50.9906C352.214 50.9906 354.055 52.8376 354.055 55.0289C354.055 57.2365 352.214 59.0835 349.994 59.0835C347.774 59.0835 345.948 57.2522 345.948 55.0449ZM356.913 54.9976C356.913 56.7513 358.329 58.1906 360.045 58.1906C361.761 58.1906 363.163 56.7513 363.163 55.0136C363.163 53.2758 361.761 51.8671 360.03 51.8671C358.33 51.8671 356.913 53.2915 356.913 54.9976ZM364.122 48.4546V58.8953H363.178V57.5026C362.658 58.16 362.296 58.473 361.745 58.7235C361.273 58.9426 360.643 59.0835 360.061 59.0835C357.778 59.0835 355.92 57.2678 355.92 55.0449C355.92 52.775 357.762 50.9906 360.092 50.9906C361.304 50.9906 362.343 51.4758 363.115 52.3993V48.455L364.122 48.4546ZM373.722 51.1784V58.8953H372.778V57.7057C372.258 58.6296 371.408 59.0835 370.164 59.0835C368.889 59.0835 367.803 58.4574 367.299 57.4243C367.047 56.9235 366.921 56.2657 366.921 55.4362V51.1784H367.913V55.4358C367.913 57.1579 368.81 58.1906 370.322 58.1906C371.77 58.1906 372.73 57.0953 372.73 55.4358V51.1784H373.722ZM382.451 56.6257H383.616C383.112 57.5809 382.75 58.0031 382.026 58.457C381.333 58.8953 380.657 59.0835 379.838 59.0835C377.445 59.0835 375.588 57.3144 375.588 55.0449C375.588 52.8063 377.461 50.9906 379.759 50.9906C381.507 50.9906 383.002 51.961 383.615 53.511H382.451C381.852 52.4779 380.845 51.8671 379.743 51.8671C377.98 51.8671 376.579 53.2758 376.579 55.0289C376.579 56.7979 377.964 58.1906 379.727 58.1906C380.531 58.1906 381.254 57.9092 381.821 57.3767C382.042 57.1732 382.152 57.0334 382.451 56.6257ZM386.636 58.8953V52.0546H385.015V51.1781H386.636V48.4546H387.644V51.1781H389.502V52.0546H387.644V58.8953H386.636ZM390.901 56.6257H391.955C392.002 57.5809 392.569 58.191 393.404 58.191C394.159 58.191 394.789 57.5652 394.789 56.8136C394.789 56.1089 394.364 55.7026 393.246 55.3263C392.459 55.0605 392.113 54.888 391.783 54.591C391.389 54.2153 391.185 53.7457 391.185 53.1976C391.185 51.9614 392.16 50.9906 393.404 50.9906C394.6 50.9906 395.529 51.8824 395.592 53.088H394.522C394.474 52.3523 394.002 51.8671 393.357 51.8671C392.759 51.8671 392.192 52.4306 392.192 53.0257C392.192 53.6515 392.538 53.9649 393.561 54.3092C394.38 54.575 394.789 54.7941 395.151 55.1071C395.576 55.4988 395.78 55.984 395.78 56.5944C395.78 58.0657 394.773 59.0835 393.341 59.0835C391.924 59.0835 390.916 58.0657 390.901 56.6257ZM407.455 58.8953V48.4546H408.51V58.8953H407.455ZM411.549 58.8953V51.1784H412.557V52.1809C413.328 51.3346 414.02 50.9906 414.949 50.9906C417.027 50.9906 418.382 52.4306 418.382 54.6532V58.8953H417.373V54.6536C417.373 52.9937 416.413 51.8675 414.965 51.8675C414.068 51.8675 413.202 52.3997 412.84 53.1663C412.683 53.5106 412.62 53.9336 412.62 54.6536V58.8953H411.549ZM422.109 58.8953V52.0546H420.487V51.1781H422.109V48.4546H423.117V51.1781H424.974V52.0546H423.117V58.8953H422.109ZM433.184 54.5127C432.806 52.9002 431.641 51.8671 430.193 51.8671C428.729 51.8671 427.486 52.9628 427.218 54.5127H433.184ZM434.239 55.4049H427.186C427.265 56.9078 428.634 58.191 430.177 58.191C431.342 58.191 432.507 57.4243 432.917 56.3753H434.003C433.452 57.9718 431.877 59.0835 430.193 59.0835C427.958 59.0835 426.147 57.2678 426.147 55.0449C426.147 52.8063 427.942 50.9906 430.177 50.9906C431.846 50.9906 433.389 52.055 433.956 53.6045C434.16 54.1527 434.208 54.4661 434.239 55.4049ZM436.346 58.8953V51.1784H437.353V52.2897C437.794 51.4132 438.408 51.0692 439.62 50.9906V52.0237C438.944 52.1019 438.613 52.2115 438.203 52.5558C437.605 53.0567 437.401 53.5263 437.401 54.4028V58.8953H436.346ZM441.727 58.8953V51.1784H442.734V52.1809C443.506 51.3346 444.198 50.9906 445.127 50.9906C447.205 50.9906 448.558 52.4306 448.558 54.6532V58.8953H447.551V54.6536C447.551 52.9937 446.591 51.8675 445.142 51.8675C444.245 51.8675 443.38 52.3997 443.017 53.1663C442.861 53.5106 442.798 53.9336 442.798 54.6536V58.8953H441.727ZM451.656 55.0292C451.656 56.7513 453.104 58.191 454.821 58.191C456.505 58.191 457.891 56.7666 457.891 55.0449C457.891 53.2915 456.521 51.8671 454.837 51.8671C453.104 51.8671 451.656 53.3071 451.656 55.0292ZM458.898 51.1784V58.8953H457.891V57.5492C457.135 58.567 456.127 59.0835 454.837 59.0835C452.522 59.0835 450.665 57.2831 450.665 55.0292C450.665 52.7597 452.506 50.9906 454.837 50.9906C456.112 50.9906 457.182 51.5228 457.891 52.5402V51.1784H458.898ZM462.626 58.8953V52.0546H461.004V51.1781H462.626V48.4546H463.633V51.1781H465.491V52.0546H463.633V58.8953H462.626ZM467.597 58.8953V51.1784H468.604V58.8953H467.597ZM467.597 50.2397V48.4543H468.604V50.2393L467.597 50.2397ZM471.703 55.0765C471.703 56.7979 473.088 58.191 474.771 58.191C476.489 58.191 477.827 56.7979 477.827 54.9979C477.827 53.2762 476.441 51.8675 474.771 51.8675C473.072 51.8675 471.703 53.3075 471.703 55.0765ZM470.711 55.0449C470.711 52.8223 472.553 50.9906 474.772 50.9906C476.976 50.9906 478.818 52.8376 478.818 55.0289C478.818 57.2365 476.976 59.0835 474.757 59.0835C472.536 59.0835 470.711 57.2522 470.711 55.0449ZM480.924 58.8953V51.1784H481.932V52.1809C482.703 51.3346 483.397 50.9906 484.325 50.9906C486.403 50.9906 487.757 52.4306 487.757 54.6532V58.8953H486.75V54.6536C486.75 52.9937 485.789 51.8675 484.341 51.8675C483.443 51.8675 482.578 52.3997 482.216 53.1663C482.059 53.5106 481.996 53.9336 481.996 54.6536V58.8953H480.924ZM490.854 55.0292C490.854 56.7513 492.303 58.191 494.019 58.191C495.702 58.191 497.088 56.7666 497.088 55.0449C497.088 53.2915 495.719 51.8671 494.035 51.8671C492.303 51.8671 490.854 53.3071 490.854 55.0292ZM498.095 51.1784V58.8953H497.088V57.5492C496.333 58.567 495.325 59.0835 494.034 59.0835C491.72 59.0835 489.863 57.2831 489.863 55.0292C489.863 52.7597 491.705 50.9906 494.034 50.9906C495.309 50.9906 496.38 51.5228 497.088 52.5402V51.1784H498.095ZM500.669 58.8953V48.4546H501.676V58.8953H500.669ZM332.151 39.7162C332.076 40.2428 332 40.8449 332 41.2963C332 44.456 334.27 46.0358 338.886 46.0358C343.199 46.0358 347.436 43.9294 348.117 39.9419C348.799 35.6532 345.242 35.1266 341.912 34.3739C339.945 33.847 339.189 33.2456 339.34 32.2675C339.567 31.4397 340.626 30.536 341.988 30.536C343.274 30.536 343.956 31.1388 343.956 32.192V32.7183H349.101C349.177 32.192 349.177 31.5896 349.177 31.1388C349.177 28.5805 347.361 27 342.896 27C338.659 27.0003 334.724 28.656 333.967 32.7186C333.286 36.6316 336.389 37.3837 339.567 38.0612C341.535 38.663 342.821 38.889 342.821 40.2431C342.67 41.5221 341.156 42.5005 339.34 42.2748C337.6 42.1997 337.07 41.2967 336.994 40.3934C337.07 40.0929 337.07 39.9426 337.07 39.7165L332.151 39.7162ZM360.754 38.4369H355.836L359.921 30.9127H359.997L360.754 38.4369ZM357.954 27.3763L346.907 45.5096H351.901L353.792 41.9736H361.208L361.738 45.5096H367.413L364.008 27.3767L357.954 27.3763ZM372.18 27.3767L368.245 45.5096H373.315L374.753 38.663H382.093L382.849 35.1266H375.586L376.417 30.913H384.287L385.044 27.3767H372.18ZM386.482 27.3767L382.546 45.5096H396.47L397.227 41.9736H388.449L389.28 38.136H397.302L398.134 34.6751H389.962L390.794 30.913H399.572L400.404 27.3767H386.482ZM399.345 40.3179H406.61L407.215 37.3082H400.177L399.345 40.3179ZM423.029 32.7934H428.024C428.024 32.4177 428.099 31.8156 428.099 31.4393C428.099 27.6776 424.694 27.0003 420.684 27.0003C413.041 27.0751 409.712 32.4177 408.955 36.6316C408.804 37.4591 408.728 38.2863 408.728 38.9638C408.728 43.2525 411.376 45.8104 416.219 46.0362C419.17 46.1113 423.029 45.2838 425.602 44.9075L427.645 35.2017H418.868L418.187 38.7377H421.894L421.138 41.9736C420.23 42.1997 419.246 42.2748 418.489 42.3499C415.538 42.2748 414.025 40.6943 414.025 38.2863C414.479 34.7503 415.992 30.5364 420.23 30.5364C421.667 30.5364 423.104 30.9882 423.029 32.7934ZM431.201 27.3767L428.78 38.8887C428.704 39.415 428.554 39.9419 428.554 40.5437C428.554 43.8539 431.353 46.0358 435.893 46.0358C442.249 45.8859 445.351 42.6504 446.184 38.663L448.53 27.3767H443.612L441.265 38.2863C440.812 40.5437 439.601 42.2748 436.726 42.3496C434.682 42.3496 433.775 41.3715 433.699 39.7165C433.775 39.1141 433.775 38.7377 434.001 38.2863L436.272 27.3767H431.201ZM458.14 38.4369H453.221L457.307 30.913H457.383L458.139 38.4365L458.14 38.4369ZM455.34 27.3767L444.293 45.5096H449.286L451.178 41.9736H458.594L459.124 45.5096H464.799L461.394 27.3767H455.34ZM473.727 30.9134H475.922C477.511 30.9134 478.344 31.289 478.344 32.4929C478.344 34.3739 476.906 35.1266 475.09 35.1266H472.82L473.727 30.9134ZM469.415 27.3763L465.479 45.5092H470.55L472.063 38.6626H473.577C475.09 38.6626 476.3 38.6626 476.3 40.3176C476.225 41.521 475.922 43.8536 475.922 45.1329V45.5092H481.446C481.295 44.9075 481.295 44.3054 481.219 43.7784C481.295 42.0483 481.521 40.8445 481.521 39.6407C481.521 37.7597 480.992 36.7061 478.268 36.631V36.48C480.84 36.1791 483.262 34.9002 483.867 31.9659C484.7 27.9781 480.614 27.376 477.284 27.376L469.415 27.3763ZM489.164 41.9736L491.51 30.913H494.007C496.655 30.913 498.245 32.568 498.245 35.1266C498.245 38.663 495.294 41.9736 491.586 41.9736H489.164ZM487.272 27.3767L483.338 45.5096H491.434C495.52 45.5096 501.498 44.1548 503.238 37.3078C503.466 36.1044 503.617 34.9005 503.617 33.847C503.617 30.1604 501.498 27.3767 494.839 27.3767H487.272ZM506.339 29.527C506.764 29.5137 506.862 29.3381 506.862 29.1179C506.862 28.9033 506.764 28.7927 506.405 28.7927H505.862V29.527H506.339ZM505.862 29.9746V31.2157H505.412V28.3443H506.346C506.875 28.3443 507.424 28.4873 507.424 29.1367C507.424 29.4682 507.222 29.7284 506.836 29.8059V29.8188C507.235 29.8967 507.28 30.0724 507.326 30.384C507.365 30.6567 507.398 30.9555 507.495 31.2157H506.921C506.888 31.0536 506.842 30.8713 506.823 30.7023C506.79 30.4557 506.79 30.2285 506.659 30.0918C506.548 29.9746 506.399 29.9882 506.241 29.9746H505.862ZM508.404 29.8125C508.404 29.2804 508.191 28.7701 507.812 28.3938C507.434 28.0175 506.921 27.8059 506.386 27.8056C505.261 27.8056 504.353 28.7082 504.353 29.8125C504.353 30.078 504.405 30.3408 504.507 30.5861C504.609 30.8314 504.759 31.0542 504.948 31.2419C505.137 31.4295 505.361 31.5783 505.608 31.6797C505.854 31.7811 506.119 31.8331 506.386 31.8327C507.503 31.8327 508.404 30.9301 508.404 29.8125ZM503.922 29.8125C503.922 28.4682 505.02 27.3767 506.385 27.3767C506.707 27.3763 507.026 27.4391 507.323 27.5614C507.62 27.6836 507.891 27.8631 508.118 28.0893C508.346 28.3156 508.526 28.5842 508.649 28.8799C508.772 29.1756 508.835 29.4925 508.835 29.8125C508.835 31.1701 507.744 32.2619 506.385 32.2619C506.062 32.2627 505.741 32.1999 505.442 32.0771C505.142 31.9543 504.87 31.774 504.642 31.5464C504.413 31.3187 504.231 31.0484 504.108 30.7508C503.984 30.4533 503.921 30.1344 503.922 29.8125Z" fill="#262626"></path></g></g><defs><clipPath id="clip0_509_910"><rect width="177" height="32" fill="white" transform="translate(332 27)"></rect></clipPath></defs></svg> 