<?xml version="1.0" encoding="UTF-8"?> <svg xmlns="http://www.w3.org/2000/svg" xmlns:xlink="http://www.w3.org/1999/xlink" width="900" height="200" viewBox="0 0 900 200"><defs><clipPath id="clip-path"><rect id="Rectangle_106" data-name="Rectangle 106" width="900" height="200" fill="#fff" stroke="#707070" stroke-width="1"></rect></clipPath><clipPath id="clip-path-2"><rect id="Rectangle_80" data-name="Rectangle 80" width="184.283" height="40"></rect></clipPath></defs><g id="Mask_Group_21" data-name="Mask Group 21" clip-path="url(#clip-path)"><g id="Group_115" data-name="Group 115"><path id="Forbes_logo" d="M89.123,14.712c0-4.551.078-8.789.314-12.712L77.431,4.276v1.1l1.177.157a2.165,2.165,0,0,1,1.726.863,6.944,6.944,0,0,1,.706,2.511c.157,2.276.314,7.455.235,15.616,0,8.082-.078,13.183-.235,15.145A49.582,49.582,0,0,0,91.241,41c4.708,0,8.4-1.334,11.064-4.08,2.668-2.668,4.08-6.435,4.08-11.064a13.8,13.8,0,0,0-3.06-9.181,9.621,9.621,0,0,0-7.69-3.61A15.352,15.352,0,0,0,89.123,14.712Zm.235,24.169c-.157-2.511-.314-10.044-.314-22.364a9.039,9.039,0,0,1,2.825-.392,4.949,4.949,0,0,1,4.473,2.9,14.557,14.557,0,0,1,1.648,7.3,20.141,20.141,0,0,1-1.883,9.181C94.851,37.94,93.282,39.2,91.32,39.2a14.646,14.646,0,0,0-1.962-.314Zm-56.97-36.1H1V4.354l1.648.157A4.171,4.171,0,0,1,5.316,5.924,7.293,7.293,0,0,1,6.258,9.69a149.13,149.13,0,0,1,0,23.7,9.287,9.287,0,0,1-.942,3.767,3.577,3.577,0,0,1-2.668,1.412L1,38.8v1.569H21.245V38.8l-2.119-.157a3.845,3.845,0,0,1-2.668-1.412,7.293,7.293,0,0,1-.942-3.767c-.235-3.139-.392-6.748-.392-10.751l4.237.078c2.276.078,3.845,1.8,4.63,5.258h1.569V15.262H23.992c-.785,3.374-2.276,5.1-4.63,5.179l-4.237.078c0-7.062.157-12.085.392-15.145h6.2c4.394,0,7.376,2.825,9.1,8.475L32.7,13.3ZM28.7,26.954a15.075,15.075,0,0,0,3.453,10.123C34.429,39.744,37.8,41,42.04,41s7.69-1.334,10.2-4.08A14.129,14.129,0,0,0,55.93,26.8a15.075,15.075,0,0,0-3.453-10.123c-2.276-2.668-5.65-3.924-9.887-3.924s-7.69,1.334-10.2,4.08A14.129,14.129,0,0,0,28.7,26.954Zm17.5-8.946a23.712,23.712,0,0,1,1.334,8.867c0,8.318-1.726,12.4-5.1,12.4q-2.59,0-4-3.531A24.26,24.26,0,0,1,37.1,26.875c0-8.239,1.726-12.32,5.1-12.32C43.924,14.477,45.258,15.654,46.2,18.008Zm66.308,19.068A13.369,13.369,0,0,0,122.316,41a13.2,13.2,0,0,0,6.435-1.491,11.812,11.812,0,0,0,4.394-3.531l-.785-.942A9.4,9.4,0,0,1,126.4,37c-3.139,0-5.571-1.02-7.219-3.139a11.6,11.6,0,0,1-2.354-8.239h16.793a14.211,14.211,0,0,0-2.9-9.26,10.134,10.134,0,0,0-8.239-3.531c-4.394,0-7.769,1.412-10.2,4.159a14.691,14.691,0,0,0-3.61,10.123,13.423,13.423,0,0,0,3.845,9.966Zm5.807-19.7c.863-1.883,1.962-2.825,3.453-2.825,2.354,0,3.531,2.982,3.531,9.024l-8.318.157a16.4,16.4,0,0,1,1.334-6.356Zm36.41-3.139a19.685,19.685,0,0,0-8-1.491,11.769,11.769,0,0,0-7.847,2.511,7.726,7.726,0,0,0-2.982,6.121,6.7,6.7,0,0,0,1.8,4.944,14.869,14.869,0,0,0,5.493,3.06,14.922,14.922,0,0,1,4.551,2.276,3.894,3.894,0,0,1,0,5.728,4.205,4.205,0,0,1-3.3,1.256c-3.453,0-6.042-2.511-7.847-7.533l-1.334.392.314,7.847A25.785,25.785,0,0,0,144.994,41c3.61,0,6.356-.785,8.4-2.433a7.989,7.989,0,0,0,3.06-6.67,6.844,6.844,0,0,0-1.491-4.63,12.861,12.861,0,0,0-5.022-3.139,19.615,19.615,0,0,1-5.336-2.59,3.6,3.6,0,0,1-1.412-2.9,4.109,4.109,0,0,1,1.02-2.9,3.335,3.335,0,0,1,2.668-1.1c3.139,0,5.414,2.276,6.827,6.748l1.334-.392Zm-75.489-.706a7.858,7.858,0,0,0-3.61-.785A7.048,7.048,0,0,0,71.467,14.4a10.6,10.6,0,0,0-3.453,4.63l.078-6.278L56.165,15.1v1.1l1.177.078c1.491.157,2.354,1.334,2.511,3.453a85.554,85.554,0,0,1,0,15.537c-.157,2.119-1.02,3.217-2.511,3.453l-1.177.157v1.491H72.8V38.881l-2.119-.157c-1.491-.157-2.354-1.334-2.511-3.453a80.163,80.163,0,0,1-.157-14.439q.706-1.177,3.06-1.412a8.884,8.884,0,0,1,5.258,1.412l2.9-7.3Z" transform="translate(49.758 21)"></path><g id="S_P_Global_logo" data-name="S&amp;P_Global_logo" transform="translate(260.759 22)"><g id="Group_99" data-name="Group 99" clip-path="url(#clip-path-2)"><path id="Path_84" data-name="Path 84" d="M20.994,28.275a7.563,7.563,0,0,1-.609,3.173,7.789,7.789,0,0,1-1.568,2.289,8.551,8.551,0,0,1-3.671,2.157,15.963,15.963,0,0,1-4.593.645A14.492,14.492,0,0,1,6.4,35.929a9.367,9.367,0,0,1-3.671-2.084A8.735,8.735,0,0,1,.775,31.207,7.661,7.661,0,0,1,0,27.759H4.871a4.151,4.151,0,0,0,.387,1.789,4.888,4.888,0,0,0,.978,1.42A4.148,4.148,0,0,0,8.283,32.1a10.422,10.422,0,0,0,2.344.275,10.3,10.3,0,0,0,2.583-.313,3.986,3.986,0,0,0,1.955-1.09,5.07,5.07,0,0,0,.738-1.015A3.109,3.109,0,0,0,16.2,28.46a2.546,2.546,0,0,0-.939-2.158,4.974,4.974,0,0,0-2.16-.941,23.917,23.917,0,0,0-2.915-.368,28.613,28.613,0,0,1-2.877-.335,9.86,9.86,0,0,1-2.564-.774,7.245,7.245,0,0,1-2.1-1.458A6.706,6.706,0,0,1,1.2,20.249a7.394,7.394,0,0,1-.536-2.9,6.418,6.418,0,0,1,.628-2.841,8.541,8.541,0,0,1,1.661-2.325,8.908,8.908,0,0,1,3.321-2.029,12.649,12.649,0,0,1,4.354-.738,12.7,12.7,0,0,1,4.04.645,8.679,8.679,0,0,1,3.265,1.9,9.144,9.144,0,0,1,1.9,2.509,6.968,6.968,0,0,1,.757,3.063h-4.87a3.8,3.8,0,0,0-.351-1.383,4.577,4.577,0,0,0-.793-1.2A4.153,4.153,0,0,0,12.8,13.921a7.244,7.244,0,0,0-2.215-.368,9.216,9.216,0,0,0-2.268.294,4.059,4.059,0,0,0-1.974,1.145,3.708,3.708,0,0,0-.646.959,2.96,2.96,0,0,0-.239,1.254A2.557,2.557,0,0,0,6.2,19.18a3.546,3.546,0,0,0,1.919.867q1.254.187,2.822.332t2.86.332a11.068,11.068,0,0,1,2.786.794,7.763,7.763,0,0,1,2.289,1.512,6.932,6.932,0,0,1,1.549,2.27,7.525,7.525,0,0,1,.571,2.989" transform="translate(0 3.239)" fill="#d6002a"></path></g><g id="Group_100" data-name="Group 100" clip-path="url(#clip-path-2)"><path id="Path_85" data-name="Path 85" d="M35.539,36.117,33.7,34.05a10.459,10.459,0,0,1-3.487,2.067,11.848,11.848,0,0,1-3.931.664,9.995,9.995,0,0,1-3.321-.554,8.434,8.434,0,0,1-2.767-1.568,7.466,7.466,0,0,1-1.881-2.49,7.646,7.646,0,0,1-.7-3.322,6.854,6.854,0,0,1,1.274-4.17,11.73,11.73,0,0,1,3.376-3.025c-.419-.443-.8-.879-1.144-1.312a9.208,9.208,0,0,1-.886-1.31,6,6,0,0,1-.775-3.061,6.341,6.341,0,0,1,4.373-6.163,8.656,8.656,0,0,1,2.786-.442,8.84,8.84,0,0,1,2.748.425,6.863,6.863,0,0,1,2.307,1.254,6.018,6.018,0,0,1,2.177,4.779,6.69,6.69,0,0,1-.371,2.306,6.462,6.462,0,0,1-1.032,1.845A9.32,9.32,0,0,1,30.872,21.5,18.175,18.175,0,0,1,28.9,22.83l4.538,4.945a4.6,4.6,0,0,0,.461-1.458q.129-.83.2-1.752.075-.885.075-1.735V21.359h6.751v3.652H37.9a18.6,18.6,0,0,1-.406,3.061,8.321,8.321,0,0,1-1.181,2.806l4.832,5.238H35.539ZM24.95,24.53q-.663.407-1.217.775a5.052,5.052,0,0,0-.978.849,3.643,3.643,0,0,0-.664,1.088,3.867,3.867,0,0,0-.239,1.422,3.915,3.915,0,0,0,.387,1.771,3.846,3.846,0,0,0,1.033,1.291,4.438,4.438,0,0,0,1.494.774,6.052,6.052,0,0,0,1.771.257,8.678,8.678,0,0,0,2.361-.332,4.167,4.167,0,0,0,2.029-1.291Zm4.576-8.522a2.666,2.666,0,0,0-.83-2.1,3.02,3.02,0,0,0-2.084-.738,3.231,3.231,0,0,0-2.029.683A2.427,2.427,0,0,0,23.7,15.9a2.931,2.931,0,0,0,.239,1.18,5.794,5.794,0,0,0,.591,1.052,7.138,7.138,0,0,0,.793.941l.849.848q.589-.331,1.2-.683a5.94,5.94,0,0,0,1.087-.794,3.58,3.58,0,0,0,.775-1.033,3.076,3.076,0,0,0,.3-1.4" transform="translate(6.054 3.219)" fill="#d6002a"></path></g><g id="Group_101" data-name="Group 101" clip-path="url(#clip-path-2)"><path id="Path_86" data-name="Path 86" d="M57.2,18.153a9.573,9.573,0,0,1-.59,3.432,7.107,7.107,0,0,1-1.754,2.657,7.918,7.918,0,0,1-2.9,1.716,12,12,0,0,1-3.984.609H42.438v9.372H37.714V9.778H47.971a12,12,0,0,1,3.984.609,8.075,8.075,0,0,1,2.9,1.7,6.942,6.942,0,0,1,1.754,2.638,9.566,9.566,0,0,1,.59,3.431M52.4,18.19a4.3,4.3,0,0,0-1.107-3.063,4.609,4.609,0,0,0-3.5-1.18h-5.35V22.4h5.35a4.647,4.647,0,0,0,3.5-1.162A4.235,4.235,0,0,0,52.4,18.19" transform="translate(12.967 3.362)" fill="#d6002a"></path></g><g id="Group_102" data-name="Group 102" clip-path="url(#clip-path-2)"><path id="Path_87" data-name="Path 87" d="M77.76,36.061l-.554-2.88a5.3,5.3,0,0,1-.884,1.162,6.191,6.191,0,0,1-1.458,1.09,9.6,9.6,0,0,1-1.936.794,8.173,8.173,0,0,1-2.287.312,13.954,13.954,0,0,1-4.261-.628,8.154,8.154,0,0,1-3.523-2.287,10.388,10.388,0,0,1-1.678-2.251,12.453,12.453,0,0,1-1.033-2.509,15.517,15.517,0,0,1-.536-2.784A30.738,30.738,0,0,1,59.461,23q0-1.582.129-3.044a14.827,14.827,0,0,1,.5-2.748,11.464,11.464,0,0,1,1.033-2.473,10.423,10.423,0,0,1,1.735-2.251,9.883,9.883,0,0,1,3.6-2.287A11.932,11.932,0,0,1,70.64,9.42a11.656,11.656,0,0,1,4.428.812,9.643,9.643,0,0,1,3.321,2.177,9.743,9.743,0,0,1,1.623,2.27,7.46,7.46,0,0,1,.774,3.007h-4.87a3.131,3.131,0,0,0-.406-1.329,10.449,10.449,0,0,0-.738-1.07A5.208,5.208,0,0,0,70.6,13.7a6.348,6.348,0,0,0-2.323.462,5.115,5.115,0,0,0-1.955,1.309,5.664,5.664,0,0,0-1.071,1.623,10.173,10.173,0,0,0-.626,1.938,12.72,12.72,0,0,0-.277,2.047q-.056,1.034-.055,1.918c0,.591.023,1.238.073,1.938a14.935,14.935,0,0,0,.3,2.084,10.512,10.512,0,0,0,.628,1.975,5.548,5.548,0,0,0,1.07,1.642A4.648,4.648,0,0,0,68.3,31.89a6.931,6.931,0,0,0,2.3.407,5.864,5.864,0,0,0,2.27-.407,4.741,4.741,0,0,0,1.642-1.1A5.254,5.254,0,0,0,75.9,28.442a11.219,11.219,0,0,0,.312-2.748H69.974V21.745H80.821V36.061H77.76Z" transform="translate(20.444 3.239)" fill="#d6002a"></path></g><g id="Group_103" data-name="Group 103" clip-path="url(#clip-path-2)"><path id="Path_88" data-name="Path 88" d="M85.808,36.033c-.469.1-.808.167-1.015.2a6.435,6.435,0,0,1-1.015.055,5.684,5.684,0,0,1-3.8-1.218,4.9,4.9,0,0,1-1.439-3.948V9.393h4.65V30.351a2.394,2.394,0,0,0,.332,1.347q.333.5,1.513.5a3.91,3.91,0,0,0,.442-.019,2.7,2.7,0,0,1,.332-.02v3.876Z" transform="translate(27.003 3.229)" fill="#d6002a"></path></g><g id="Group_104" data-name="Group 104" clip-path="url(#clip-path-2)"><path id="Path_89" data-name="Path 89" d="M103.1,24.683a12.187,12.187,0,0,1-.59,4.077,10.707,10.707,0,0,1-1.661,3.006,8.343,8.343,0,0,1-2.748,2.1,9.322,9.322,0,0,1-7.931,0,8.335,8.335,0,0,1-2.749-2.1,10.726,10.726,0,0,1-1.661-3.006,12.187,12.187,0,0,1-.59-4.077,12.187,12.187,0,0,1,.59-4.077A10.733,10.733,0,0,1,87.425,17.6a8.335,8.335,0,0,1,2.749-2.1,9.322,9.322,0,0,1,7.931,0,8.343,8.343,0,0,1,2.748,2.1,10.751,10.751,0,0,1,1.661,3.007,12.222,12.222,0,0,1,.59,4.077m-4.687,0a13.246,13.246,0,0,0-.258-2.638,4.506,4.506,0,0,0-1.106-2.2,3.958,3.958,0,0,0-1.217-.867,4.047,4.047,0,0,0-4.613.867,4.494,4.494,0,0,0-1.106,2.2,13.614,13.614,0,0,0,0,5.276,4.49,4.49,0,0,0,1.106,2.2,3.967,3.967,0,0,0,1.217.868,4.285,4.285,0,0,0,3.4,0,3.984,3.984,0,0,0,1.217-.868,4.5,4.5,0,0,0,1.106-2.2,13.246,13.246,0,0,0,.258-2.638" transform="translate(29.284 5.023)" fill="#d6002a"></path></g><g id="Group_105" data-name="Group 105" clip-path="url(#clip-path-2)"><path id="Path_90" data-name="Path 90" d="M118.894,26.5a12.953,12.953,0,0,1-.851,4.851,8.512,8.512,0,0,1-2.583,3.525,7.154,7.154,0,0,1-2.045,1.18,7.26,7.26,0,0,1-2.6.442,7.944,7.944,0,0,1-3.061-.607,4.92,4.92,0,0,1-2.325-1.938l-.3,2.1h-3.983V9.42h4.611v8.856a4.893,4.893,0,0,1,1.974-1.347,8.865,8.865,0,0,1,5.684-.129,6.5,6.5,0,0,1,2.045,1.144q3.431,2.842,3.432,8.56m-4.687-.073a12.9,12.9,0,0,0-.241-2.474,5.122,5.122,0,0,0-.978-2.174,4.749,4.749,0,0,0-1.273-1.072,3.566,3.566,0,0,0-1.826-.441,3.894,3.894,0,0,0-2.213.571,4,4,0,0,0-1.326,1.477,6.2,6.2,0,0,0-.646,1.992,14.122,14.122,0,0,0-.165,2.122,12.842,12.842,0,0,0,.332,2.86,4.517,4.517,0,0,0,1.328,2.38,3.513,3.513,0,0,0,1.145.7,4.257,4.257,0,0,0,1.548.257,3.54,3.54,0,0,0,1.826-.443,4.715,4.715,0,0,0,1.273-1.07,5.174,5.174,0,0,0,.978-2.2,13.123,13.123,0,0,0,.239-2.489" transform="translate(34.776 3.239)" fill="#d6002a"></path></g><g id="Group_106" data-name="Group 106" clip-path="url(#clip-path-2)"><path id="Path_91" data-name="Path 91" d="M134.272,34.055a9.042,9.042,0,0,1-1.015.387,4.655,4.655,0,0,1-1.271.13,3.15,3.15,0,0,1-2.325-.812,3.037,3.037,0,0,1-.922-1.88,5.43,5.43,0,0,1-2.215,2.029,7.406,7.406,0,0,1-3.614.848,8.4,8.4,0,0,1-3.028-.5,6.4,6.4,0,0,1-2.158-1.329,5.506,5.506,0,0,1-1.309-1.918,5.957,5.957,0,0,1-.442-2.268,5.715,5.715,0,0,1,.5-2.436,5.515,5.515,0,0,1,1.383-1.845,6.369,6.369,0,0,1,2.067-1.2,9.749,9.749,0,0,1,2.547-.536l5.644-.406V21.141a3.48,3.48,0,0,0-.645-2.2,3.189,3.189,0,0,0-2.6-.83,4.051,4.051,0,0,0-2.526.7,2.623,2.623,0,0,0-.978,2.031H116.9a6.72,6.72,0,0,1,.757-2.8,5.656,5.656,0,0,1,1.713-1.936,7.6,7.6,0,0,1,2.473-1.125,11.861,11.861,0,0,1,3.025-.37,10.688,10.688,0,0,1,4.41.867,5.257,5.257,0,0,1,2.784,3.044,6.859,6.859,0,0,1,.462,1.919c.06.664.093,1.317.093,1.955v7.122a1.442,1.442,0,0,0,.239.941,1.056,1.056,0,0,0,.83.277,1.443,1.443,0,0,0,.406-.038.428.428,0,0,0,.184-.035Zm-6.161-8.3-4.87.368a3.6,3.6,0,0,0-1.919.7,2.309,2.309,0,0,0-.019,3.562,3,3,0,0,0,1.9.644,5.381,5.381,0,0,0,3.542-1.125,3.989,3.989,0,0,0,1.365-3.265Z" transform="translate(39.874 5.023)" fill="#d6002a"></path></g><g id="Group_107" data-name="Group 107" clip-path="url(#clip-path-2)"><path id="Path_92" data-name="Path 92" d="M138.994,36.033c-.468.1-.806.167-1.015.2a6.458,6.458,0,0,1-1.015.055,5.684,5.684,0,0,1-3.8-1.218,4.9,4.9,0,0,1-1.439-3.948V9.393h4.648V30.351a2.394,2.394,0,0,0,.333,1.347c.222.332.724.5,1.512.5a3.937,3.937,0,0,0,.443-.019,2.7,2.7,0,0,1,.332-.02v3.876Z" transform="translate(45.289 3.229)" fill="#d6002a"></path></g><g id="Group_108" data-name="Group 108" clip-path="url(#clip-path-2)"><rect id="Rectangle_89" data-name="Rectangle 89" width="184.283" height="4.246"></rect></g></g><g id="Entrepreneur__magazine__logo_2012" data-name="Entrepreneur_(magazine)_logo_2012" transform="translate(499.758 22)"><g id="Group_98" data-name="Group 98"><path id="Path_72" data-name="Path 72" d="M.3,27.152l2.577-.411V2.951L0,2.577.149,0h18L17.7,7.208,14.118,7.1l-.224-4.519H8.329V13.3h2.428l.56-2.465,2.5.075V18.3h-2.5l-.6-2.54H8.291V27.115h5.6l.523-4.93,3.772.112.3,7.507H.187Z"></path><path id="Path_73" data-name="Path 73" d="M53.624,44.314l.112-2.2,2.017-.411V26.685L53.4,26.461V24.22l5.9-.859.448,1.27v.859A7.092,7.092,0,0,1,65.09,23.1c3.212,0,5.6,1.942,5.6,5.789V41.662l2.129.411-.112,2.2H65.688V30.009c0-2.054-.747-3.212-2.614-3.212a4.049,4.049,0,0,0-1.569.3,7.245,7.245,0,0,0-.859.971V41.737l2.129.411-.149,2.2h-9Z" transform="translate(-33.456 -14.473)"></path><path id="Path_74" data-name="Path 74" d="M355.661,44.314l.075-2.2,2.017-.411V26.685l-2.353-.224V24.22l5.9-.859.448,1.27v.859a7.092,7.092,0,0,1,5.341-2.39c3.212,0,5.6,1.942,5.6,5.789V41.662l2.129.411-.112,2.2h-6.984V30.009c0-2.054-.747-3.212-2.614-3.212a4.05,4.05,0,0,0-1.569.3,7.244,7.244,0,0,0-.859.971V41.737l2.129.411-.149,2.2h-9Z" transform="translate(-222.664 -14.473)"></path><path id="Path_75" data-name="Path 75" d="M116.091,37.763a11.435,11.435,0,0,1-4.183.71c-2.5,0-4.818-1.12-4.818-4.781V20.546l-2.39-.373.112-2.614,2.689-.112,1.158-4,3.436-.149v4.3h3.7l-.261,2.614-3.4.373V33.73a1.611,1.611,0,0,0,1.718,1.793h2.017Z" transform="translate(-65.596 -8.333)"></path><path id="Path_76" data-name="Path 76" d="M509.061,44.69l.075-2.166,1.9-.448V27.061l-2.241-.224V24.6l6.125-.859.411,1.457v.486a10.572,10.572,0,0,1,6.387-1.979l.9.784-.635,5.677-3.361-.112-.336-3.025a4.89,4.89,0,0,0-2.166.784v14.3l2.129.448-.149,2.166h-9.038Z" transform="translate(-318.772 -14.848)"></path><path id="Path_77" data-name="Path 77" d="M273.624,44.69l.112-2.166,1.9-.448V27.061l-2.241-.224V24.6l6.125-.859.411,1.457v.486a10.572,10.572,0,0,1,6.387-1.979l.9.784-.71,5.677-3.361-.112-.336-3.025a4.89,4.89,0,0,0-2.166.784v14.3l2.129.448-.149,2.166h-9Z" transform="translate(-171.29 -14.848)"></path><path id="Path_78" data-name="Path 78" d="M138.824,44.69l.112-2.166,1.9-.448V27.061l-2.241-.224V24.6l6.125-.859.411,1.457v.486a10.538,10.538,0,0,1,6.349-1.979l.9.784-.635,5.677-3.361-.112-.336-3.025a4.89,4.89,0,0,0-2.166.784v14.3l2.129.448-.149,2.166h-9.038Z" transform="translate(-86.835 -14.848)"></path><path id="Path_79" data-name="Path 79" d="M182.166,35.1c0,3.585,1.569,6.349,4.669,6.349A9.529,9.529,0,0,0,191.2,40.4l.859,1.979a10.4,10.4,0,0,1-6.573,2.166c-5.453,0-8.59-4.706-8.59-10.756C176.9,28.64,179.178,23,185.415,23c5.453,0,7.507,5.042,7.507,10.644l-.523,1.345Zm-.075-2.39,6.275-.3c-.112-2.5-.635-6.461-3.1-6.461a3.48,3.48,0,0,0-1.755.486A15.027,15.027,0,0,0,182.091,32.711Z" transform="translate(-110.831 -14.41)"></path><path id="Path_80" data-name="Path 80" d="M414.566,35.1c0,3.585,1.569,6.349,4.669,6.349A9.529,9.529,0,0,0,423.6,40.4l.859,1.979a10.4,10.4,0,0,1-6.573,2.166c-5.453,0-8.59-4.706-8.59-10.756C409.3,28.64,411.578,23,417.815,23c5.453,0,7.507,5.042,7.507,10.644l-.523,1.345Zm-.075-2.39,6.275-.3c-.112-2.5-.635-6.461-3.1-6.461a3.48,3.48,0,0,0-1.755.486A15.027,15.027,0,0,0,414.491,32.711Z" transform="translate(-256.434 -14.41)"></path><path id="Path_81" data-name="Path 81" d="M316.966,35.1c0,3.585,1.569,6.349,4.669,6.349A9.53,9.53,0,0,0,326,40.4l.859,1.979a10.4,10.4,0,0,1-6.573,2.166c-5.453,0-8.59-4.706-8.59-10.756C311.7,28.64,313.978,23,320.215,23c5.453,0,7.507,5.042,7.507,10.644l-.523,1.345Zm-.075-2.39,6.274-.3c-.112-2.5-.635-6.461-3.1-6.461a3.48,3.48,0,0,0-1.755.486A14.471,14.471,0,0,0,316.891,32.711Z" transform="translate(-195.285 -14.41)"></path><path id="Path_82" data-name="Path 82" d="M466.882,44.439l-.523-1.793a6.482,6.482,0,0,1-4.818,2.092c-3.212,0-6.088-1.606-6.088-6.05v-12.4l-2.353-.224V24.084l6.8-.784.523,1.793v13c0,2.278.934,3.473,2.764,3.473a5.3,5.3,0,0,0,1.793-.3,7.041,7.041,0,0,0,.934-1.158V26.288l-2.428-.224V24.084l6.872-.784.523,1.793V41.825l2.129.411-.261,2.2h-5.864Z" transform="translate(-283.875 -14.598)"></path></g><path id="Path_83" data-name="Path 83" d="M230.435,41.625a5.323,5.323,0,0,1-2.614-.56V27.881a10.871,10.871,0,0,1,.971-1.232,5.29,5.29,0,0,1,1.867-.3c2.8,0,3.287,2.838,3.287,7.918,0,4.893-.747,6.237-.934,6.8A5.8,5.8,0,0,1,230.435,41.625Zm8.366-8.254c0-6.312-1.867-10.271-6.536-10.271a6.184,6.184,0,0,0-5.154,2.54v-.71l-.523-1.793L220.5,24v2.166l2.353.3V51.933l-2.017.411-.112,2.129h9l.149-2.129-2.129-.411V43.866a6.985,6.985,0,0,0,3.361.784C238.726,44.65,238.8,36.919,238.8,33.371Z" transform="translate(-138.147 -14.473)"></path></g><g id="World_Economic_Forum_logo" transform="translate(757.758 13.553)"><path id="Path_107" data-name="Path 107" d="M76.345,48.92l-.028.022-.249-.3A29.183,29.183,0,0,1,37.4,46.915,27.573,27.573,0,0,1,34.138,11.1,28.39,28.39,0,0,1,47.444,1L47.237.447a29.014,29.014,0,0,0-13.515,10.3A27.937,27.937,0,0,0,36.98,47.33c.521.508,1.064.986,1.616,1.45l-.715.832a30.9,30.9,0,0,0,39.3.277Z" transform="translate(-2.812)" fill="#004b86" fill-rule="evenodd"></path><g id="Group_113" data-name="Group 113" transform="translate(0 3.006)"><path id="Path_108" data-name="Path 108" d="M34.865,10.133a4.8,4.8,0,0,1-.208-1.383,3.758,3.758,0,0,1,3.881-3.942,4.611,4.611,0,0,1,1.455.208,9.89,9.89,0,0,1,1.386-.968,5.627,5.627,0,0,0-2.841-.76A5.556,5.556,0,0,0,32.924,8.75a5.913,5.913,0,0,0,.831,2.9,3.914,3.914,0,0,1,.416-.553,11.864,11.864,0,0,1,.693-.968" transform="translate(-3.261 -3.287)" fill="#141414" fill-rule="evenodd"></path><path id="Path_109" data-name="Path 109" d="M42.525,4.9a8.813,8.813,0,0,0-1.317.9A3.884,3.884,0,0,1,42.594,8.91a3.784,3.784,0,0,1-3.881,3.872,3.719,3.719,0,0,1-3.049-1.452c-.139.208-.278.346-.416.553a5.9,5.9,0,0,0-.555.83,5.845,5.845,0,0,0,4.02,1.591A5.456,5.456,0,0,0,44.327,8.91a5.323,5.323,0,0,0-1.8-4.011" transform="translate(-3.437 -3.447)" fill="#141414" fill-rule="evenodd"></path><path id="Path_110" data-name="Path 110" d="M32.119,24.506a3.87,3.87,0,0,1-2.426,3.665v1.66a5.5,5.5,0,0,0,4.158-5.325,5.588,5.588,0,0,0-2.564-4.564c-.208.553-.347,1.037-.555,1.521a3.944,3.944,0,0,1,1.386,3.043" transform="translate(-2.941 -4.937)" fill="#141414" fill-rule="evenodd"></path><path id="Path_111" data-name="Path 111" d="M27.807,28.356h-.346a3.858,3.858,0,0,1-3.951-3.941,3.759,3.759,0,0,1,3.951-3.872,3.524,3.524,0,0,1,1.524.276,11.958,11.958,0,0,1,.486-1.452,6.448,6.448,0,0,0-2.01-.346,5.431,5.431,0,1,0,0,10.857h.346c0-.276-.069-.622-.069-.9,0-.208.069-.415.069-.622" transform="translate(-2.164 -4.846)" fill="#141414" fill-rule="evenodd"></path><path id="Path_112" data-name="Path 112" d="M32.3,36.353a3.74,3.74,0,0,1,3.881,3.872,3.806,3.806,0,0,1-2.841,3.8c.277.484.555.9.831,1.383a5.466,5.466,0,0,0,3.743-5.186A5.543,5.543,0,0,0,32.3,34.832a5.412,5.412,0,0,0-2.148.415,11.582,11.582,0,0,0,.277,1.521,4.136,4.136,0,0,1,1.871-.415" transform="translate(-2.987 -6.412)" fill="#141414" fill-rule="evenodd"></path><path id="Path_113" data-name="Path 113" d="M28.041,40.332a4.041,4.041,0,0,1,1.04-2.766,14.118,14.118,0,0,1-.346-1.66,5.382,5.382,0,0,0-2.426,4.425,5.468,5.468,0,0,0,5.614,5.463,2.384,2.384,0,0,0,.693-.069c-.278-.484-.624-.968-.9-1.452a3.8,3.8,0,0,1-3.673-3.942" transform="translate(-2.606 -6.518)" fill="#141414" fill-rule="evenodd"></path><path id="Path_114" data-name="Path 114" d="M62.063,35.062v6.293c0,1.452-.485,2.835-2.356,2.835s-2.357-1.383-2.357-2.835V35.062H55.617V41.7a3.8,3.8,0,0,0,4.089,4.011A3.8,3.8,0,0,0,63.795,41.7V35.062Z" transform="translate(-5.509 -6.435)" fill="#141414" fill-rule="evenodd"></path><path id="Path_115" data-name="Path 115" d="M64.119,12.507h4.713v1.452H62.386V3.518h1.733Z" transform="translate(-6.18 -3.31)" fill="#141414" fill-rule="evenodd"></path><path id="Path_116" data-name="Path 116" d="M0,19.252H6.1v1.521H1.732v2.49h4.3v1.521h-4.3v3.388H6.1v1.521H0Z" transform="translate(0 -4.869)" fill="#141414" fill-rule="evenodd"></path><path id="Path_117" data-name="Path 117" d="M38.232,18.638l7.208,7.4V19.191h1.732V30.047l-7.208-7.26v6.845H38.232Z" transform="translate(-3.787 -4.808)" fill="#141414" fill-rule="evenodd"></path><path id="Path_118" data-name="Path 118" d="M85.926,19.252h1.733V29.693H85.926Z" transform="translate(-8.512 -4.869)" fill="#141414" fill-rule="evenodd"></path><path id="Path_119" data-name="Path 119" d="M18.5,36.584v2.489h3.742v1.453H18.5V45.5H16.77V35.062h5.614v1.521Z" transform="translate(-1.661 -6.435)" fill="#141414" fill-rule="evenodd"></path><path id="Path_120" data-name="Path 120" d="M25.3,9.995h.069l1.663-6.5H28.7L25.789,14.351,22.115,6.537l-3.673,7.814L15.463,3.495h1.732l1.664,6.5,3.257-6.708Z" transform="translate(-1.532 -3.287)" fill="#141414" fill-rule="evenodd"></path><path id="Path_121" data-name="Path 121" d="M70.475,23.147h-.069l-1.664,6.5H67.079L69.99,18.791l3.673,7.883,3.673-7.883,2.98,10.856H78.584l-1.664-6.5h-.069l-3.188,6.777Z" transform="translate(-6.645 -4.823)" fill="#141414" fill-rule="evenodd"></path><path id="Path_122" data-name="Path 122" d="M71.475,38.958l-1.664,6.5H68.079L70.99,34.6l3.743,7.814L78.406,34.6l2.91,10.857H79.584l-1.664-6.5-3.188,6.708Z" transform="translate(-6.744 -6.389)" fill="#141414" fill-rule="evenodd"></path><path id="Path_123" data-name="Path 123" d="M45.689,35.062a5.894,5.894,0,0,1,2.911.484,2.9,2.9,0,0,1,1.455,2.489,2.816,2.816,0,0,1-2.564,2.9L50.818,45.5h-1.94l-3.119-4.425H44.58V45.5H42.848V35.062ZM44.58,39.7h.763c1.386,0,3.049.069,3.049-1.591s-1.733-1.591-3.119-1.591H44.58Z" transform="translate(-4.244 -6.435)" fill="#141414" fill-rule="evenodd"></path><path id="Path_124" data-name="Path 124" d="M52.228,3.517A5.894,5.894,0,0,1,55.138,4a2.837,2.837,0,0,1,1.386,2.489,2.765,2.765,0,0,1-2.564,2.9l3.4,4.564h-1.94L52.228,9.533H51.119v4.425H49.386V3.517ZM51.119,8.15h.763c1.386,0,2.98.069,2.98-1.591s-1.733-1.59-3.049-1.59h-.693Z" transform="translate(-4.892 -3.31)" fill="#141414" fill-rule="evenodd"></path><path id="Path_125" data-name="Path 125" d="M74.658,12.507h.97c2.287,0,4.435-.83,4.435-3.8,0-3.043-2.148-3.734-4.435-3.734h-.97ZM72.925,3.518h2.841c3.327,0,6.03,1.59,6.03,5.186s-2.634,5.256-6.03,5.256H72.925Z" transform="translate(-7.224 -3.31)" fill="#141414" fill-rule="evenodd"></path><path id="Path_126" data-name="Path 126" d="M99.711,27.872a3.524,3.524,0,0,1-1.94.484,3.785,3.785,0,0,1-3.881-3.873,3.758,3.758,0,0,1,3.881-3.941,4.232,4.232,0,0,1,1.94.415l.831-1.244a5.87,5.87,0,0,0-2.772-.692,5.556,5.556,0,0,0-5.614,5.463,5.5,5.5,0,0,0,5.614,5.394,5.581,5.581,0,0,0,2.841-.692Z" transform="translate(-9.129 -4.846)" fill="#141414" fill-rule="evenodd"></path><path id="Path_127" data-name="Path 127" d="M17.947,27.872a3.441,3.441,0,0,1-1.871.484,3.907,3.907,0,1,1,0-7.814,4.138,4.138,0,0,1,1.871.415l.9-1.244a6.323,6.323,0,0,0-2.772-.692,5.512,5.512,0,0,0-5.614,5.463,5.455,5.455,0,0,0,5.614,5.394,5.5,5.5,0,0,0,2.772-.692Z" transform="translate(-1.036 -4.846)" fill="#141414" fill-rule="evenodd"></path><path id="Path_128" data-name="Path 128" d="M61.651,24.484a3.916,3.916,0,1,0-7.832,0,3.916,3.916,0,0,0,7.832,0m1.733,0a5.616,5.616,0,1,1-5.614-5.463,5.556,5.556,0,0,1,5.614,5.463" transform="translate(-5.167 -4.846)" fill="#141414" fill-rule="evenodd"></path></g></g><g id="NASDAQ_Logo" transform="translate(51.012 137.984)"><path id="Path_93" data-name="Path 93" d="M109.128,31.4c-4.836,0-7.841-2.8-7.841-7.317,0-4.686,2.773-7.6,7.238-7.6h.375a18.512,18.512,0,0,1,2.385.15V10.973h3.154V30.888a38.46,38.46,0,0,1-5.31.51M109.1,18.963c-3.055,0-4.541,1.649-4.541,5.04,0,3.044,1.793,4.937,4.672,4.937.554,0,1.188-.037,2.052-.111V19.166a13.724,13.724,0,0,0-2.184-.2M65.926,30.941l-8.52-14.868,0,14.868H54.434V12.119h4.157l8.52,14.735,0-14.735h3.009V30.941Zm27.138.29a24.588,24.588,0,0,1-4.711-.5l-.193-.037v-2.63l.281.06a20.749,20.749,0,0,0,4.283.621c1.1,0,3.647-.172,3.647-1.784,0-1.352-1.763-1.692-3.18-1.963l-.09-.018c-.265-.049-.514-.1-.725-.153-2.078-.539-4.294-1.349-4.294-4.133,0-2.715,2.149-4.271,5.9-4.271a26,26,0,0,1,4.154.349l.51.075V19.4l-.271-.049a22.193,22.193,0,0,0-3.919-.443c-1.488,0-3.254.279-3.254,1.6,0,1.1,1.445,1.413,3.119,1.778,2.341.506,5.243,1.142,5.243,4.336,0,2.93-2.366,4.611-6.5,4.611m30.228,0c-3.264,0-6.288-.576-6.288-4.744,0-4.536,4.675-4.536,7.47-4.536.278,0,1.592.061,1.995.079,0-2.545-.036-3.151-3.726-3.151a26.727,26.727,0,0,0-4.522.546l-.274.049V16.961l.185-.039a24.326,24.326,0,0,1,4.9-.5c3.576,0,6.606.36,6.606,4.8v9.676l-.217.025a52.528,52.528,0,0,1-6.128.314m1.1-7.035c-2.7,0-4.365.4-4.365,2.37,0,2.284,2.131,2.473,4.13,2.473.746,0,2.088-.1,2.5-.125v-4.64c-.577-.025-2.08-.079-2.262-.079M79.038,31.231c-3.269,0-6.291-.576-6.291-4.744,0-4.536,4.675-4.536,7.469-4.536.279,0,1.6.061,2,.079,0-2.545-.039-3.151-3.73-3.151a26.726,26.726,0,0,0-4.523.546l-.274.049V16.961l.189-.039a24.258,24.258,0,0,1,4.9-.5c3.575,0,6.606.36,6.606,4.8v9.676l-.218.025a52.5,52.5,0,0,1-6.124.314m1.1-7.035c-2.694,0-4.361.4-4.361,2.37,0,2.284,2.127,2.473,4.126,2.473.749,0,2.091-.1,2.5-.125v-4.64c-.582-.025-2.084-.079-2.266-.079" transform="translate(-4.701 -0.946)" fill="#231f20"></path><g id="Group_109" data-name="Group 109" transform="translate(127.533 15.526)"><path id="Path_94" data-name="Path 94" d="M10.55,21.856V15.682a15.292,15.292,0,0,1-2.412.172,10.055,10.055,0,0,1-3.712-.725c-2.406-1-3.84-3.54-3.84-6.8,0-1.626.4-4.6,3.048-6.2A9.78,9.78,0,0,1,8.9.992c.845,0,1.987.064,3.09.128l1.792.093V20.426l-3.23,1.431ZM8.663,3.476c-3.205,0-4.83,1.635-4.83,4.853,0,4.144,2.423,5.015,4.46,5.015a15.544,15.544,0,0,0,2.288-.157V3.566c-.967-.064-1.413-.09-1.92-.09Z" transform="translate(-0.586 -0.992)" fill="#231f20"></path></g><g id="Group_110" data-name="Group 110" transform="translate(23.533 0.016)"><path id="Path_95" data-name="Path 95" d="M12.868.016,2.435,28.677a2,2,0,0,1-1.677,1.3v.014H11.786a2,2,0,0,0,1.878-1.317L24.1.016Z" transform="translate(-0.758 -0.016)" fill="#0996c7"></path></g><path id="Path_96" data-name="Path 96" d="M24.4,30.549a1.888,1.888,0,0,0,1.542-.8,2.03,2.03,0,0,0,.249-.464l3.826-10.518-2.238-6.143a1.891,1.891,0,0,0-3.286-.364,2.128,2.128,0,0,0-.249.464L20.414,23.239l2.249,6.167A1.889,1.889,0,0,0,24.4,30.549" transform="translate(-1.764 -0.988)" fill="#0996c7"></path><g id="Group_111" data-name="Group 111" transform="translate(-0.012 10.037)"><path id="Path_97" data-name="Path 97" d="M24.451.984H13.3A2,2,0,0,0,11.42,2.3L.988,30.963H12.22L22.653,2.3a2,2,0,0,1,1.8-1.315Z" transform="translate(-0.988 -0.984)" fill="#0996c7"></path></g></g><g id="Group_112" data-name="Group 112" transform="translate(-2981 -16.8)"><path id="Yahoo_Finance" data-name="Yahoo Finance" d="M58.167,43.537V55.574h5.926V46.037a3.111,3.111,0,0,1,.463-1.3,1.681,1.681,0,0,1,1.759-.833,1.917,1.917,0,0,1,1.852,1.852v9.722h5.926V49.926A57.675,57.675,0,0,0,74,43.815a5.886,5.886,0,0,0-1.759-3.889,5.3,5.3,0,0,0-3.056-1.481,8.041,8.041,0,0,0-2.13.093,4.836,4.836,0,0,0-2.685,1.481l-.463.37V31.5H57.981V43.537ZM121.13,31.685c-.185.37-6.2,14.907-6.2,14.907h7.037l3.148-7.5c1.759-4.167,3.148-7.593,3.148-7.593h-7.037ZM45.2,38.537a8,8,0,0,0-3.333,1.2,8.5,8.5,0,0,0-3.7,6.111,10.4,10.4,0,0,0,.185,3.8,8.245,8.245,0,0,0,5.185,5.926,6.578,6.578,0,0,0,2.407.37,4.587,4.587,0,0,0,1.389-.093,5.381,5.381,0,0,0,2.778-1.481l.37-.37v1.481h5.741V38.815H50.481V40.3l-.278-.278a5.037,5.037,0,0,0-2.778-1.481,4.558,4.558,0,0,0-1.3-.093A4.75,4.75,0,0,1,45.2,38.537Zm37.778,0a9.507,9.507,0,0,0-4.444,1.852,8.914,8.914,0,0,0-3.056,8.148,8.478,8.478,0,0,0,6.481,7.13,9.555,9.555,0,0,0,2.407.278,8.638,8.638,0,0,0,4.167-.926,8.276,8.276,0,0,0,4.63-6.481,12.125,12.125,0,0,0,0-2.593,8.454,8.454,0,0,0-1.574-3.889,13.409,13.409,0,0,0-1.574-1.667,8.647,8.647,0,0,0-4.444-1.852A12.134,12.134,0,0,0,82.981,38.537Zm18.889,0a8.348,8.348,0,0,0-4.352,1.852,8.872,8.872,0,0,0-1.574,1.667,9.591,9.591,0,0,0-1.574,3.889,12.134,12.134,0,0,0,0,2.593,8.655,8.655,0,0,0,6.944,7.315,6.616,6.616,0,0,0,1.944.185,8.288,8.288,0,0,0,4.259-1.019,8.712,8.712,0,0,0,4.444-9.63,8.559,8.559,0,0,0-7.5-6.852A12.134,12.134,0,0,0,101.87,38.537ZM19,38.907s1.574,3.8,3.519,8.426,3.519,8.426,3.519,8.426-.556,1.389-1.3,3.056-1.3,2.963-1.3,3.056a29.437,29.437,0,0,0,3.148,0h3.148l4.722-11.389c2.593-6.3,4.722-11.389,4.722-11.481a23.058,23.058,0,0,0-3.148,0H32.889l-1.944,4.815c-.833,2.593-1.667,4.815-1.667,4.815s-.833-2.222-1.944-4.815L25.481,39H22.241C20.481,38.907,19,38.907,19,38.907Zm29.074,5a3.458,3.458,0,0,1,2.5,2.407,5.606,5.606,0,0,1,0,1.759,3.2,3.2,0,0,1-2.407,2.407,5.606,5.606,0,0,1-1.759,0,3.506,3.506,0,0,1-2.315-1.944A3.64,3.64,0,0,1,44.37,45.3,3.532,3.532,0,0,1,48.074,43.907ZM85.019,44a3.152,3.152,0,0,1,2.593,2.5,5.034,5.034,0,0,1,0,1.667A3.376,3.376,0,0,1,85.3,50.574a5.606,5.606,0,0,1-1.759,0,3.653,3.653,0,0,1-2.13-1.759,2.664,2.664,0,0,1-.278-1.481,2.957,2.957,0,0,1,.278-1.3,3.716,3.716,0,0,1,1.2-1.481A2.671,2.671,0,0,1,85.019,44Zm18.8,0a3.075,3.075,0,0,1,2.407,1.944,2.957,2.957,0,0,1,.278,1.3,3.838,3.838,0,0,1-.278,1.481,3.4,3.4,0,0,1-2.13,1.759,5.606,5.606,0,0,1-1.759,0,3.224,3.224,0,0,1-2.315-2.407,5.606,5.606,0,0,1,0-1.759,3.257,3.257,0,0,1,3.148-2.5C103.352,43.907,103.63,43.907,103.815,44Zm12.593,4.074a3.934,3.934,0,0,0-3.426,3.148,5.606,5.606,0,0,0,0,1.759,3.905,3.905,0,0,0,2.963,2.87c.185,0,.556.093.833.093a3.769,3.769,0,0,0,2.778-1.111,3.566,3.566,0,0,0,1.111-2.778,3.656,3.656,0,0,0-1.759-3.241A3.313,3.313,0,0,0,116.407,48.074Z" transform="translate(3219 123.3)" fill="#39007d" fill-rule="evenodd"></path><path id="Yahoo_Finance-2" data-name="Yahoo Finance" d="M70.744,59.193a1.889,1.889,0,0,0-1.111,2.778,2.108,2.108,0,0,0,.833.741,1.828,1.828,0,0,0,.833.093,2.055,2.055,0,0,0,.833-.093,2.231,2.231,0,0,0,.926-.926,1.893,1.893,0,0,0-.926-2.5,1,1,0,0,0-.741-.185A1.19,1.19,0,0,0,70.744,59.193Zm-5,.093a3.74,3.74,0,0,0-3.056,2.963,2.855,2.855,0,0,0-.093.926v.648H61.3V66.6h1.3v6.667h3.519V66.6h2.407V63.822H66.115v-.278c.093-.648.37-1.111.926-1.2a2.084,2.084,0,0,1,1.3.093.717.717,0,0,0,.278.093V59.563l-.278-.093a3.392,3.392,0,0,0-1.481-.185A4.393,4.393,0,0,0,65.744,59.285Zm14.074,4.352a3.025,3.025,0,0,0-1.667,1.019l-.185.278V63.822H74.448v9.444h3.519V67.8a2.171,2.171,0,0,1,.463-.926,1.275,1.275,0,0,1,1.667.185c.278.37.278.37.278,3.333v2.778h3.519V70.026c0-3.333,0-3.7-.185-4.352a2.685,2.685,0,0,0-.833-1.389,2.293,2.293,0,0,0-1.3-.741A10.633,10.633,0,0,0,79.819,63.637Zm8.8-.093a4.591,4.591,0,0,0-1.852.741,5.091,5.091,0,0,0-1.944,3.241,8.2,8.2,0,0,0,0,2.13,5.375,5.375,0,0,0,.926,2.222,4.04,4.04,0,0,0,2.5,1.574,4.53,4.53,0,0,0,1.944-.093,4.029,4.029,0,0,0,1.389-.741l.37-.37v.926h3.519V63.73H91.948v.926l-.278-.093a3.22,3.22,0,0,0-1.852-.926A5.28,5.28,0,0,0,88.615,63.544Zm13.426.093a2.845,2.845,0,0,0-1.667,1.019l-.185.185V63.73H96.67v9.444h3.519V70.489c0-2.87,0-2.87.185-3.333a1.018,1.018,0,0,1,.926-.556,1.293,1.293,0,0,1,.833.278c.37.37.37.278.37,3.426v2.778h3.519V69.656c0-3.426,0-3.426-.093-3.8a8.744,8.744,0,0,1-.278-.833,2.229,2.229,0,0,0-.556-.741,3.544,3.544,0,0,0-1.019-.741A7.527,7.527,0,0,0,102.041,63.637Zm9.167,0a4.76,4.76,0,0,0-3.519,2.315c-.185.37-.37.833-.556,1.3a4.92,4.92,0,0,0-.093,1.3,3.532,3.532,0,0,0,.278,1.759,4.822,4.822,0,0,0,3.611,3.148,3.846,3.846,0,0,0,1.2.093,4.054,4.054,0,0,0,1.944-.37l.37-.185V69.841l-.278.185a2.126,2.126,0,0,1-1.3.37,2.36,2.36,0,0,1-1.2-.185,1.817,1.817,0,0,1-.833-.833,1.592,1.592,0,0,1-.093-.741,1.805,1.805,0,0,1,.093-.741,1.975,1.975,0,0,1,1.852-1.2,3.185,3.185,0,0,1,1.852.463V64.007l-.278-.093A5.854,5.854,0,0,0,111.207,63.637Zm7.963,0a5.129,5.129,0,0,0-3.333,7.87,4.474,4.474,0,0,0,2.963,1.944,13,13,0,0,0,2.685,0,4.722,4.722,0,0,0,2.407-1.3,10.154,10.154,0,0,0,.741-.926s-.648-.278-1.481-.556l-1.481-.556-.185.185a1.5,1.5,0,0,1-.833.463,1.734,1.734,0,0,1-2.222-1.2v-.185h6.481v-.833a3.2,3.2,0,0,0-.093-1.111,4.935,4.935,0,0,0-1.3-2.593,4.269,4.269,0,0,0-2.407-1.2A6.832,6.832,0,0,0,119.17,63.637Zm-49.63,4.907v4.722h3.519V63.822H69.541Zm51.019-2.315a2.321,2.321,0,0,1,.648.37.937.937,0,0,1,.37.648v.185H120c-1.759,0-1.667,0-1.481-.37A1.767,1.767,0,0,1,120.559,66.23Zm-29.907.463a1.889,1.889,0,0,1,.093,3.611,3.059,3.059,0,0,1-1.3,0,1.749,1.749,0,0,1-1.2-1.2,1.576,1.576,0,0,1-.093-.648,1,1,0,0,1,.185-.741A2.006,2.006,0,0,1,90.652,66.693Z" transform="translate(3215.867 121.256)" fill="#7e1fff" fill-rule="evenodd"></path></g><g id="New_Bloomberg_Logo" transform="translate(317 147.6)"><path id="Path_98" data-name="Path 98" d="M115-9.6h15.915A11.311,11.311,0,0,1,137.9-7.579a7.941,7.941,0,0,1,2.863,6.4c0,3.116-1.263,5.052-3.789,6.231V5.22a7.774,7.774,0,0,1,5.305,7.747,9.518,9.518,0,0,1-3.537,7.831c-1.853,1.347-4.21,1.937-7.41,1.937H115ZM129.315,3.031A2.676,2.676,0,0,0,132.262.168c0-1.853-1.263-2.779-3.031-2.779h-5.473V2.947h5.558Zm.758,12.547a3.116,3.116,0,0,0,3.368-3.284,3.07,3.07,0,0,0-3.368-3.284h-6.231v6.652h6.231Z" transform="translate(0 0)"></path><path id="Path_99" data-name="Path 99" d="M149.1-9.6h8.336V22.819H149.1Z" transform="translate(-5.386 0)"></path><path id="Path_100" data-name="Path 100" d="M161,12.91C161,5.584,165.716.7,173.041.7S185,5.668,185,12.91c0,7.326-4.631,12.21-11.957,12.21S161,20.236,161,12.91Zm15.662,0c0-4.042-1.263-6.568-3.789-6.568s-3.705,2.526-3.705,6.568,1.179,6.652,3.705,6.652C175.4,19.478,176.662,16.952,176.662,12.91Z" transform="translate(-7.265 -1.627)"></path><path id="Path_101" data-name="Path 101" d="M190.6,12.91C190.6,5.584,195.316.7,202.642.7s11.873,4.884,11.873,12.21-4.631,12.21-11.957,12.21C195.316,25.12,190.6,20.236,190.6,12.91Zm15.662,0c0-4.042-1.263-6.568-3.789-6.568s-3.705,2.526-3.705,6.568,1.179,6.652,3.705,6.652C205,19.478,206.262,16.952,206.262,12.91Z" transform="translate(-11.94 -1.627)"></path><path id="Path_102" data-name="Path 102" d="M221,1.274h7.747V4.726h.168A7.34,7.34,0,0,1,235.9.6a6.4,6.4,0,0,1,6.231,3.958h.168A7.669,7.669,0,0,1,249.462.6c5.389,0,7.663,3.958,7.663,9.263V24.346h-8.084V11.294c0-2.358-.758-3.873-2.779-3.873S243.23,9.273,243.23,11.8V24.346h-8.084V11.294c0-2.358-.758-3.873-2.779-3.873s-3.031,1.853-3.031,4.379V24.346H221Z" transform="translate(-16.741 -1.611)"></path><path id="Path_103" data-name="Path 103" d="M274.531,19.7h-.084v3.031H266.7V-9.6h8.084V2.02h.168A7.666,7.666,0,0,1,281.52-1.1c5.81,0,9.178,5.221,9.178,12.21,0,7.831-3.621,12.378-9.684,12.378A7.129,7.129,0,0,1,274.531,19.7Zm7.831-8.673c0-3.705-1.347-6.147-3.789-6.147-2.526,0-4.042,2.442-4.042,6.147s1.6,6.147,4.042,6.147S282.362,14.82,282.362,11.031Z" transform="translate(-23.959 0)"></path><path id="Path_104" data-name="Path 104" d="M296.3,12.81C296.3,5.568,301.1.6,308,.6a11.129,11.129,0,0,1,8.084,3.031c2.695,2.61,3.873,6.652,3.789,11.368H304.384c.337,2.863,1.684,4.379,4.126,4.379a3.156,3.156,0,0,0,3.2-2.189h7.831c-1.347,5.3-5.473,7.915-11.284,7.915C301.1,25.02,296.3,20.136,296.3,12.81Zm8.084-2.442h7.41c-.168-2.779-1.684-4.21-3.621-4.21C305.9,6.073,304.636,7.673,304.384,10.368Z" transform="translate(-28.634 -1.611)"></path><path id="Path_105" data-name="Path 105" d="M333.747,5.263h.168C335.6,2.063,337.789.8,340.568.8a2.513,2.513,0,0,1,1.347.253V8.126h-.168c-4.8-.842-7.579,1.432-7.579,6.652v9.684H326V1.305h7.747Z" transform="translate(-33.325 -1.643)"></path><path id="Path_106" data-name="Path 106" d="M345.821,24.415h7.831c.337,1.01,1.347,1.937,3.284,1.937,2.61,0,3.537-1.6,3.537-4.042V20.625H360.3a6.919,6.919,0,0,1-5.558,2.61c-4.968,0-9.347-3.705-9.347-10.947C345.4,5.637,348.937.5,354.326.5a6.812,6.812,0,0,1,6.231,3.2h.168V1.174h7.747V21.215c0,3.705-1.263,6.568-3.2,8.252-2.021,1.768-4.884,2.526-8.168,2.526C350.873,32.077,346.579,29.551,345.821,24.415ZM360.81,11.952c0-2.863-1.347-5.221-3.705-5.221-2.274,0-3.705,2.021-3.705,5.221,0,3.116,1.431,5.3,3.705,5.3S360.81,14.983,360.81,11.952Z" transform="translate(-36.389 -1.595)"></path></g><g id="National-Geographic-Logo" transform="translate(715 138)"><path id="Path_129" data-name="Path 129" d="M0,0V40H27.547V0ZM23.563,35.973H3.97V4.03H23.563Z" fill="#fbd42c"></path><path id="Path_130" data-name="Path 130" d="M60.059,15.742H60.02C57.823,12.163,55.6,9,53.366,5.818H51.659V19.741h1.884V9.756h.019c2.219,3.6,4.437,6.783,6.675,9.985h1.707V5.818H60.059Zm13.6,4L69.284,5.818H67.322l-4.75,13.923h2.041l1.2-3.8h4.14l1.08,3.8ZM66.418,14.23c.55-1.83,1.1-3.518,1.59-5.669h.04c.55,2.15,1.04,3.838,1.551,5.669Zm9.46,5.511h2.356V7.688h3.612V5.818H72.268v1.87h3.611V19.741ZM84.946,5.818H82.611V19.741h2.335Zm7.264,14.16c3.592,0,5.83-3.241,5.83-7.4,0-3.9-2.474-7-5.83-7s-5.831,3.1-5.831,7C86.379,16.737,88.617,19.978,92.21,19.978Zm0-12.41c2.336,0,3.316,2.446,3.316,5.012,0,2.665-.862,5.41-3.316,5.41s-3.317-2.744-3.317-5.41C88.893,10.014,89.874,7.568,92.21,7.568Zm9.145,2.187h.022c2.217,3.6,4.434,6.783,6.673,9.985h1.707V5.818h-1.884v9.924h-.039c-2.2-3.579-4.416-6.741-6.654-9.924H99.472V19.741h1.883Zm12.267,6.186h4.143l1.079,3.8h2.63L117.1,5.818h-1.963l-4.751,13.923h2.044Zm2.2-7.38h.039c.549,2.15,1.039,3.838,1.551,5.669h-3.182C114.782,12.4,115.33,10.712,115.823,8.561Zm13.325,9.308H124.5V5.818h-2.337V19.741h6.988V17.87ZM58.139,35.664A3.406,3.406,0,0,1,56.49,36c-2.021,0-3.984-1.95-3.984-5.251,0-3.162,1.707-5.172,4.22-5.172a5.056,5.056,0,0,1,2.512.735L60,24.666a5.8,5.8,0,0,0-3.337-1.075c-4.121,0-6.673,3.322-6.673,7.12,0,4.1,2.552,7.28,6.594,7.28a10.66,10.66,0,0,0,3.908-.856V31.387H58.139v4.277Zm6.849-4.276h3.848V29.52H64.988V25.7h3.927V23.831H62.633V37.754h6.987V35.882H64.988Zm11.189-7.8c-3.357,0-5.829,3.1-5.829,7,0,4.156,2.237,7.4,5.829,7.4s5.829-3.242,5.829-7.4C82.005,26.695,79.533,23.592,76.177,23.592Zm0,12.411c-2.455,0-3.318-2.745-3.318-5.41,0-2.566.981-5.013,3.318-5.013s3.316,2.446,3.316,5.013C79.493,33.258,78.631,36,76.177,36Zm14.78-.339A3.405,3.405,0,0,1,89.307,36c-2.022,0-3.985-1.95-3.985-5.251,0-3.162,1.708-5.172,4.222-5.172a5.044,5.044,0,0,1,2.51.735l.766-1.65a5.807,5.807,0,0,0-3.338-1.075c-4.12,0-6.671,3.322-6.671,7.12,0,4.1,2.552,7.28,6.6,7.28a10.662,10.662,0,0,0,3.906-.856V31.387H90.957v4.277ZM103.4,27.849c0-2.707-1.63-4.018-4.259-4.018H95.471V37.754h2.355V32.5h1.06l2.218,5.251h2.688l-2.766-5.769A4.7,4.7,0,0,0,103.4,27.849Zm-4.593,2.863c-.237.02-.787.041-.982.06V25.7h1.042a2.007,2.007,0,0,1,2.176,2.246C101.043,29.817,99.927,30.653,98.808,30.712Zm9.775-6.881-4.751,13.923h2.04l1.2-3.8h4.142l1.082,3.8h2.628l-4.378-13.923Zm-.9,8.414c.549-1.831,1.1-3.522,1.589-5.669h.04c.549,2.147,1.039,3.838,1.551,5.669Zm24.476-3.064h-4.888v-5.35h-2.336V37.754h2.336v-6.7h4.888v6.7h2.354V23.869h-2.354Zm4.611,8.571H139.1V23.831h-2.335ZM147.347,36c-2.277,0-4.2-1.95-4.2-5.251,0-3.162,1.749-5.172,4.142-5.172a4.908,4.908,0,0,1,2.415.775l.745-1.689a5.732,5.732,0,0,0-3.16-1.075c-4.1,0-6.635,3.322-6.635,7.12,0,4.1,2.552,7.28,6.6,7.28a5.924,5.924,0,0,0,3.1-.954l-.647-1.731A4.411,4.411,0,0,1,147.347,36ZM119.337,23.831h-3.668V37.754h2.356V32.5h1.058a4.522,4.522,0,0,0,4.515-4.654C123.6,25.143,121.97,23.831,119.337,23.831ZM119,30.712c-.235.018-.8.037-.98.056V25.7h1.058a2,2,0,0,1,2.16,2.246C121.242,29.817,120.123,30.653,119,30.712Z" transform="translate(-16.095 -1.796)"></path></g></g></g></svg> 