<?xml version="1.0" encoding="UTF-8"?> <svg xmlns="http://www.w3.org/2000/svg" xmlns:xlink="http://www.w3.org/1999/xlink" width="1800" height="111" viewBox="0 0 1800 111"><defs><clipPath id="clip-path"><rect id="Rectangle_105" data-name="Rectangle 105" width="1800" height="111" fill="#fff"></rect></clipPath><clipPath id="clip-path-2"><rect id="Rectangle_47" data-name="Rectangle 47" width="307" height="111" transform="translate(2422 -205)" fill="#fff"></rect></clipPath><clipPath id="clip-path-3"><rect id="Rectangle_44" data-name="Rectangle 44" width="248" height="111" transform="translate(2088 280)" fill="#fff"></rect></clipPath><clipPath id="clip-path-4"><rect id="Rectangle_51" data-name="Rectangle 51" width="212" height="46.016"></rect></clipPath><clipPath id="clip-path-14"><rect id="Rectangle_49" data-name="Rectangle 49" width="219" height="111" transform="translate(2342 196)" fill="#fff"></rect></clipPath><clipPath id="clip-path-15"><rect id="Rectangle_41" data-name="Rectangle 41" width="190" height="111" transform="translate(2725 196)" fill="#fff"></rect></clipPath><clipPath id="clip-path-16"><rect id="Rectangle_71" data-name="Rectangle 71" width="154" height="111" transform="translate(3069 141)" fill="#fff"></rect></clipPath><clipPath id="clip-path-17"><rect id="Rectangle_73" data-name="Rectangle 73" width="275" height="111" transform="translate(3048 211)" fill="#fff"></rect></clipPath><clipPath id="clip-path-18"><rect id="Rectangle_77" data-name="Rectangle 77" width="191" height="111" transform="translate(3410 192)" fill="#fff"></rect></clipPath><clipPath id="clip-path-19"><rect id="Rectangle_75" data-name="Rectangle 75" width="129" height="111" transform="translate(3438 169)" fill="#fff" opacity="0.151"></rect></clipPath></defs><g id="Mask_Group_20" data-name="Mask Group 20" clip-path="url(#clip-path)"><g id="Group_114" data-name="Group 114"><g id="Mask_Group_9" data-name="Mask Group 9" transform="translate(-1922 205)" clip-path="url(#clip-path-2)"><g id="Entrepreneur__magazine__logo_2012" data-name="Entrepreneur_(magazine)_logo_2012" transform="translate(2440 -171.05)"><g id="Group_79" data-name="Group 79"><path id="Path_1" data-name="Path 1" d="M.4,36.045,3.818,35.5V3.917L0,3.421.2,0H24.1L23.5,9.569l-4.76-.149-.3-6H11.056V17.65h3.223l.744-3.272,3.322.1v9.817H15.023l-.793-3.371H11.007V35.995h7.437l.694-6.545,5.008.149.4,9.966H.248Z"></path><path id="Path_2" data-name="Path 2" d="M53.7,51.261l.149-2.925,2.677-.545V27.86l-3.124-.3V24.587l7.834-1.14.595,1.686v1.14a9.414,9.414,0,0,1,7.09-3.173c4.264,0,7.437,2.578,7.437,7.685V47.741l2.826.545-.149,2.925H69.712V32.272c0-2.727-.992-4.264-3.471-4.264a5.376,5.376,0,0,0-2.082.4,9.617,9.617,0,0,0-1.14,1.289V47.84l2.826.545-.2,2.925H53.7Z" transform="translate(-26.924 -11.647)"></path><path id="Path_3" data-name="Path 3" d="M355.747,51.261l.1-2.925,2.677-.545V27.86l-3.124-.3V24.587l7.834-1.14.595,1.686v1.14a9.414,9.414,0,0,1,7.09-3.173c4.264,0,7.437,2.578,7.437,7.685V47.741l2.826.545-.149,2.925h-9.271V32.272c0-2.727-.992-4.264-3.471-4.264a5.376,5.376,0,0,0-2.082.4,9.617,9.617,0,0,0-1.14,1.289V47.84l2.826.545-.2,2.925H355.747Z" transform="translate(-179.193 -11.647)"></path><path id="Path_4" data-name="Path 4" d="M119.822,45.775a15.18,15.18,0,0,1-5.553.942c-3.322,0-6.4-1.487-6.4-6.346V22.918l-3.173-.5.149-3.471,3.57-.149,1.537-5.305,4.561-.2V19h4.908l-.347,3.471-4.512.5V40.42a2.139,2.139,0,0,0,2.281,2.38h2.677Z" transform="translate(-52.79 -6.706)"></path><path id="Path_5" data-name="Path 5" d="M509.147,51.564l.1-2.876,2.529-.595V28.162l-2.975-.3V24.89l8.131-1.14.545,1.934v.645a14.034,14.034,0,0,1,8.478-2.628l1.19,1.041-.843,7.536-4.462-.149-.446-4.016a6.492,6.492,0,0,0-2.876,1.041V48.143l2.826.595-.2,2.876h-12Z" transform="translate(-256.538 -11.95)"></path><path id="Path_6" data-name="Path 6" d="M273.7,51.564l.149-2.876,2.529-.595V28.162l-2.975-.3V24.89l8.131-1.14.545,1.934v.645a14.034,14.034,0,0,1,8.478-2.628l1.19,1.041-.942,7.536-4.462-.149-.446-4.016a6.492,6.492,0,0,0-2.876,1.041V48.143l2.826.595-.2,2.876H273.7Z" transform="translate(-137.849 -11.95)"></path><path id="Path_7" data-name="Path 7" d="M138.9,51.564l.149-2.876,2.529-.595V28.162l-2.975-.3V24.89l8.131-1.14.545,1.934v.645a13.989,13.989,0,0,1,8.429-2.628l1.19,1.041-.843,7.536-4.462-.149-.446-4.016a6.492,6.492,0,0,0-2.876,1.041V48.143l2.826.595-.2,2.876h-12Z" transform="translate(-69.882 -11.95)"></path><path id="Path_8" data-name="Path 8" d="M183.891,39.064c0,4.76,2.082,8.429,6.2,8.429a12.65,12.65,0,0,0,5.8-1.388l1.14,2.628a13.807,13.807,0,0,1-8.726,2.876c-7.239,0-11.4-6.247-11.4-14.279C176.9,30.487,179.924,23,188.2,23c7.239,0,9.966,6.693,9.966,14.13l-.694,1.785Zm-.1-3.173,8.329-.4c-.149-3.322-.843-8.577-4.115-8.577a4.62,4.62,0,0,0-2.33.645C184.337,29.842,183.792,33.957,183.792,35.891Z" transform="translate(-89.193 -11.597)"></path><path id="Path_9" data-name="Path 9" d="M416.291,39.064c0,4.76,2.082,8.429,6.2,8.429a12.65,12.65,0,0,0,5.8-1.388l1.14,2.628a13.807,13.807,0,0,1-8.726,2.876c-7.239,0-11.4-6.247-11.4-14.279C409.3,30.487,412.324,23,420.6,23c7.239,0,9.966,6.693,9.966,14.13l-.694,1.785Zm-.1-3.173,8.329-.4c-.149-3.322-.843-8.577-4.115-8.577a4.62,4.62,0,0,0-2.33.645C416.737,29.842,416.192,33.957,416.192,35.891Z" transform="translate(-206.37 -11.597)"></path><path id="Path_10" data-name="Path 10" d="M318.691,39.064c0,4.76,2.082,8.429,6.2,8.429a12.65,12.65,0,0,0,5.8-1.388l1.14,2.628a13.807,13.807,0,0,1-8.726,2.876c-7.239,0-11.4-6.247-11.4-14.279C311.7,30.487,314.724,23,323,23c7.239,0,9.966,6.693,9.966,14.13l-.694,1.785Zm-.1-3.173,8.329-.4c-.149-3.322-.843-8.577-4.115-8.577a4.62,4.62,0,0,0-2.33.645A19.209,19.209,0,0,0,318.592,35.891Z" transform="translate(-157.16 -11.597)"></path><path id="Path_11" data-name="Path 11" d="M471.395,51.362l-.694-2.38a8.605,8.605,0,0,1-6.4,2.776c-4.264,0-8.081-2.132-8.081-8.032V27.266l-3.124-.3V24.341l9.024-1.041.694,2.38V42.934c0,3.024,1.24,4.611,3.669,4.611a7.039,7.039,0,0,0,2.38-.4,9.346,9.346,0,0,0,1.239-1.537V27.266l-3.223-.3V24.341l9.123-1.041.694,2.38V47.892l2.826.545-.347,2.925h-7.784Z" transform="translate(-228.454 -11.748)"></path></g><path id="Path_12" data-name="Path 12" d="M233.688,47.692a7.066,7.066,0,0,1-3.471-.744v-17.5a14.432,14.432,0,0,1,1.289-1.636,7.023,7.023,0,0,1,2.479-.4c3.718,0,4.363,3.768,4.363,10.511,0,6.495-.992,8.28-1.24,9.024A7.7,7.7,0,0,1,233.688,47.692Zm11.106-10.957c0-8.379-2.479-13.634-8.676-13.634a8.209,8.209,0,0,0-6.842,3.371v-.942l-.694-2.38L220.5,24.29v2.876l3.124.4V61.376l-2.677.545-.149,2.826h11.949l.2-2.826-2.826-.545V50.666a9.272,9.272,0,0,0,4.462,1.041C244.695,51.708,244.794,41.445,244.794,36.734Z" transform="translate(-111.177 -11.647)"></path></g></g><g id="Mask_Group_6" data-name="Mask Group 6" transform="translate(-1844 -280)" clip-path="url(#clip-path-3)"><g id="S_P_Global_logo" data-name="S&amp;P_Global_logo" transform="translate(2106 312.492)"><g id="Group_82" data-name="Group 82" clip-path="url(#clip-path-4)"><path id="Path_25" data-name="Path 25" d="M24.152,31.11a8.7,8.7,0,0,1-.7,3.65,8.961,8.961,0,0,1-1.8,2.633,9.838,9.838,0,0,1-4.223,2.481,18.364,18.364,0,0,1-5.284.742,16.672,16.672,0,0,1-4.775-.7,10.775,10.775,0,0,1-4.223-2.4A10.048,10.048,0,0,1,.892,34.484,8.813,8.813,0,0,1,0,30.517H5.6a4.775,4.775,0,0,0,.445,2.058,5.623,5.623,0,0,0,1.125,1.634,4.772,4.772,0,0,0,2.354,1.3,11.99,11.99,0,0,0,2.7.317,11.846,11.846,0,0,0,2.971-.36,4.586,4.586,0,0,0,2.249-1.254,5.833,5.833,0,0,0,.849-1.167,3.576,3.576,0,0,0,.339-1.718,2.929,2.929,0,0,0-1.081-2.483,5.722,5.722,0,0,0-2.484-1.082,27.514,27.514,0,0,0-3.353-.424,32.917,32.917,0,0,1-3.31-.385,11.343,11.343,0,0,1-2.95-.89,8.335,8.335,0,0,1-2.421-1.677,7.714,7.714,0,0,1-1.654-2.5,8.506,8.506,0,0,1-.617-3.331,7.384,7.384,0,0,1,.722-3.268A9.825,9.825,0,0,1,3.4,12.6a10.248,10.248,0,0,1,3.82-2.334,14.551,14.551,0,0,1,5.009-.849,14.612,14.612,0,0,1,4.647.742,9.984,9.984,0,0,1,3.757,2.186,10.52,10.52,0,0,1,2.186,2.886,8.016,8.016,0,0,1,.87,3.523h-5.6a4.37,4.37,0,0,0-.4-1.591,5.265,5.265,0,0,0-.912-1.381A4.778,4.778,0,0,0,14.73,14.6a8.334,8.334,0,0,0-2.548-.424,10.6,10.6,0,0,0-2.61.339A4.669,4.669,0,0,0,7.3,15.83a4.266,4.266,0,0,0-.744,1.1,3.406,3.406,0,0,0-.275,1.442,2.941,2.941,0,0,0,.849,2.271,4.08,4.08,0,0,0,2.208,1q1.442.216,3.246.382t3.29.382a12.732,12.732,0,0,1,3.2.914,8.93,8.93,0,0,1,2.633,1.739A7.975,7.975,0,0,1,23.5,27.672a8.657,8.657,0,0,1,.657,3.438" transform="translate(0 5.143)" fill="#d6002a"></path></g><g id="Group_83" data-name="Group 83" clip-path="url(#clip-path-4)"><path id="Path_26" data-name="Path 26" d="M38.236,40.14l-2.121-2.378A12.032,12.032,0,0,1,32.1,40.14a13.631,13.631,0,0,1-4.522.764,11.5,11.5,0,0,1-3.82-.637,9.7,9.7,0,0,1-3.183-1.8A8.589,8.589,0,0,1,18.414,35.6a8.8,8.8,0,0,1-.807-3.822,7.885,7.885,0,0,1,1.466-4.8,13.494,13.494,0,0,1,3.883-3.48c-.482-.51-.92-1.011-1.316-1.509a10.593,10.593,0,0,1-1.019-1.507,6.907,6.907,0,0,1-.892-3.522,7.295,7.295,0,0,1,5.03-7.09,9.957,9.957,0,0,1,3.2-.509,10.17,10.17,0,0,1,3.161.489,7.9,7.9,0,0,1,2.654,1.442,6.923,6.923,0,0,1,2.5,5.5,7.7,7.7,0,0,1-.427,2.653,7.434,7.434,0,0,1-1.187,2.123,10.722,10.722,0,0,1-1.8,1.761A20.909,20.909,0,0,1,30.6,24.856l5.221,5.689a5.292,5.292,0,0,0,.53-1.677q.148-.955.233-2.016.086-1.018.087-2V23.163h7.767v4.2h-3.48a21.4,21.4,0,0,1-.467,3.522,9.573,9.573,0,0,1-1.359,3.228l5.559,6.026H38.236ZM26.054,26.811q-.763.468-1.4.892a5.812,5.812,0,0,0-1.125.977,4.191,4.191,0,0,0-.764,1.252,4.448,4.448,0,0,0-.275,1.636,4.5,4.5,0,0,0,.445,2.038,4.424,4.424,0,0,0,1.189,1.486,5.106,5.106,0,0,0,1.719.89,6.962,6.962,0,0,0,2.038.3A9.983,9.983,0,0,0,30.6,35.9,4.794,4.794,0,0,0,32.93,34.41Zm5.264-9.8a3.067,3.067,0,0,0-.955-2.419,3.474,3.474,0,0,0-2.4-.849,3.717,3.717,0,0,0-2.334.785,2.792,2.792,0,0,0-1.019,2.356,3.371,3.371,0,0,0,.275,1.357,6.665,6.665,0,0,0,.68,1.21,8.212,8.212,0,0,0,.912,1.082q.508.508.977.975.677-.38,1.379-.785a6.833,6.833,0,0,0,1.251-.914,4.119,4.119,0,0,0,.892-1.189,3.538,3.538,0,0,0,.34-1.611" transform="translate(9.612 5.112)" fill="#d6002a"></path></g><g id="Group_84" data-name="Group 84" clip-path="url(#clip-path-4)"><path id="Path_27" data-name="Path 27" d="M60.125,19.412a11.013,11.013,0,0,1-.679,3.948,8.176,8.176,0,0,1-2.017,3.056A9.109,9.109,0,0,1,54.1,28.391a13.81,13.81,0,0,1-4.584.7H43.148V39.873H37.714V9.778h11.8a13.81,13.81,0,0,1,4.584.7,9.289,9.289,0,0,1,3.331,1.953,7.986,7.986,0,0,1,2.017,3.035,11,11,0,0,1,.679,3.947m-5.516.043a4.944,4.944,0,0,0-1.274-3.523A5.3,5.3,0,0,0,49.3,14.575H43.149v9.719H49.3a5.346,5.346,0,0,0,4.032-1.337,4.872,4.872,0,0,0,1.274-3.5" transform="translate(20.589 5.338)" fill="#d6002a"></path></g><g id="Group_85" data-name="Group 85" clip-path="url(#clip-path-4)"><path id="Path_28" data-name="Path 28" d="M80.512,40.068l-.637-3.313a6.091,6.091,0,0,1-1.017,1.337,7.122,7.122,0,0,1-1.677,1.254,11.044,11.044,0,0,1-2.228.914,9.4,9.4,0,0,1-2.631.359,16.053,16.053,0,0,1-4.9-.722,9.38,9.38,0,0,1-4.053-2.631,11.951,11.951,0,0,1-1.931-2.589,14.326,14.326,0,0,1-1.189-2.886,17.852,17.852,0,0,1-.617-3.2,35.361,35.361,0,0,1-.169-3.546q0-1.82.148-3.5a17.057,17.057,0,0,1,.572-3.161,13.189,13.189,0,0,1,1.189-2.845,11.99,11.99,0,0,1,2-2.589A11.369,11.369,0,0,1,67.5,10.312a13.727,13.727,0,0,1,4.819-.892,13.409,13.409,0,0,1,5.094.934,11.093,11.093,0,0,1,3.82,2.5A11.208,11.208,0,0,1,83.1,15.469a8.582,8.582,0,0,1,.89,3.46h-5.6a3.6,3.6,0,0,0-.467-1.529,12.021,12.021,0,0,0-.849-1.231,5.991,5.991,0,0,0-4.8-1.826,7.3,7.3,0,0,0-2.673.532,5.885,5.885,0,0,0-2.249,1.506,6.515,6.515,0,0,0-1.232,1.867,11.7,11.7,0,0,0-.72,2.229,14.633,14.633,0,0,0-.318,2.354q-.065,1.19-.063,2.206c0,.68.026,1.424.083,2.229a17.183,17.183,0,0,0,.34,2.4,12.093,12.093,0,0,0,.722,2.273A6.382,6.382,0,0,0,67.4,33.827a5.347,5.347,0,0,0,2.229,1.442,7.974,7.974,0,0,0,2.651.468,6.746,6.746,0,0,0,2.611-.468A5.454,5.454,0,0,0,76.777,34a6.045,6.045,0,0,0,1.592-2.7,12.907,12.907,0,0,0,.359-3.161H71.555V23.6H84.034V40.068H80.512Z" transform="translate(32.462 5.143)" fill="#d6002a"></path></g><g id="Group_86" data-name="Group 86" clip-path="url(#clip-path-4)"><path id="Path_29" data-name="Path 29" d="M86.9,40.04c-.54.111-.929.192-1.167.232a7.4,7.4,0,0,1-1.167.063,6.539,6.539,0,0,1-4.372-1.4q-1.656-1.4-1.656-4.542v-25h5.349V33.5a2.754,2.754,0,0,0,.382,1.549q.383.573,1.741.574a4.5,4.5,0,0,0,.509-.022,3.107,3.107,0,0,1,.382-.023V40.04Z" transform="translate(42.877 5.128)" fill="#d6002a"></path></g><g id="Group_87" data-name="Group 87" clip-path="url(#clip-path-4)"><path id="Path_30" data-name="Path 30" d="M105.8,26.2a14.021,14.021,0,0,1-.679,4.69,12.317,12.317,0,0,1-1.911,3.458,9.6,9.6,0,0,1-3.161,2.419,10.724,10.724,0,0,1-9.124,0,9.589,9.589,0,0,1-3.163-2.419,12.339,12.339,0,0,1-1.911-3.458,14.02,14.02,0,0,1-.679-4.69,14.02,14.02,0,0,1,.679-4.69,12.347,12.347,0,0,1,1.911-3.46,9.589,9.589,0,0,1,3.163-2.419,10.724,10.724,0,0,1,9.124,0,9.6,9.6,0,0,1,3.161,2.419,12.368,12.368,0,0,1,1.911,3.46,14.06,14.06,0,0,1,.679,4.69m-5.392,0a15.239,15.239,0,0,0-.3-3.035,5.184,5.184,0,0,0-1.272-2.528,4.554,4.554,0,0,0-1.4-1,4.656,4.656,0,0,0-5.307,1,5.17,5.17,0,0,0-1.272,2.528,15.661,15.661,0,0,0,0,6.069,5.165,5.165,0,0,0,1.272,2.526,4.564,4.564,0,0,0,1.4,1,4.93,4.93,0,0,0,3.907,0,4.583,4.583,0,0,0,1.4-1,5.179,5.179,0,0,0,1.272-2.526,15.239,15.239,0,0,0,.3-3.035" transform="translate(46.499 7.976)" fill="#d6002a"></path></g><g id="Group_88" data-name="Group 88" clip-path="url(#clip-path-4)"><path id="Path_31" data-name="Path 31" d="M121.564,29.073a14.9,14.9,0,0,1-.979,5.581,9.792,9.792,0,0,1-2.971,4.055,8.23,8.23,0,0,1-2.353,1.357,8.352,8.352,0,0,1-2.994.509,9.139,9.139,0,0,1-3.522-.7,5.66,5.66,0,0,1-2.674-2.229l-.34,2.419h-4.582V9.42h5.3V19.608a5.629,5.629,0,0,1,2.271-1.549,10.2,10.2,0,0,1,6.539-.148,7.473,7.473,0,0,1,2.353,1.316q3.947,3.27,3.948,9.848m-5.392-.083a14.838,14.838,0,0,0-.277-2.846,5.893,5.893,0,0,0-1.125-2.5,5.463,5.463,0,0,0-1.464-1.234,4.1,4.1,0,0,0-2.1-.507,4.48,4.48,0,0,0-2.546.657,4.6,4.6,0,0,0-1.526,1.7,7.138,7.138,0,0,0-.744,2.291,16.247,16.247,0,0,0-.19,2.441,14.773,14.773,0,0,0,.382,3.29,5.2,5.2,0,0,0,1.527,2.738,4.042,4.042,0,0,0,1.317.807,4.9,4.9,0,0,0,1.781.3,4.072,4.072,0,0,0,2.1-.51,5.425,5.425,0,0,0,1.464-1.231,5.952,5.952,0,0,0,1.125-2.526,15.1,15.1,0,0,0,.275-2.863" transform="translate(55.22 5.143)" fill="#d6002a"></path></g><g id="Group_89" data-name="Group 89" clip-path="url(#clip-path-4)"><path id="Path_32" data-name="Path 32" d="M137.024,36.98a10.4,10.4,0,0,1-1.167.445,5.356,5.356,0,0,1-1.462.15,3.623,3.623,0,0,1-2.674-.934,3.494,3.494,0,0,1-1.061-2.163,6.247,6.247,0,0,1-2.548,2.334,8.52,8.52,0,0,1-4.157.975,9.664,9.664,0,0,1-3.483-.572,7.363,7.363,0,0,1-2.483-1.529,6.334,6.334,0,0,1-1.506-2.206,6.853,6.853,0,0,1-.509-2.61,6.575,6.575,0,0,1,.572-2.8,6.344,6.344,0,0,1,1.591-2.123,7.327,7.327,0,0,1,2.378-1.379,11.215,11.215,0,0,1,2.93-.617l6.493-.467v-1.36A4,4,0,0,0,129.2,19.6q-.742-.955-2.994-.955a4.661,4.661,0,0,0-2.906.805,3.017,3.017,0,0,0-1.125,2.336h-5.136a7.731,7.731,0,0,1,.87-3.226,6.507,6.507,0,0,1,1.971-2.228,8.741,8.741,0,0,1,2.845-1.294,13.645,13.645,0,0,1,3.48-.425,12.3,12.3,0,0,1,5.074,1,6.048,6.048,0,0,1,3.2,3.5,7.892,7.892,0,0,1,.532,2.208c.07.764.107,1.515.107,2.249v8.193a1.659,1.659,0,0,0,.275,1.082,1.214,1.214,0,0,0,.955.318,1.66,1.66,0,0,0,.467-.043.493.493,0,0,0,.212-.04v3.9Zm-7.088-9.551-5.6.424a4.138,4.138,0,0,0-2.208.805,2.656,2.656,0,0,0-.022,4.1,3.455,3.455,0,0,0,2.186.741,6.191,6.191,0,0,0,4.075-1.294,4.589,4.589,0,0,0,1.571-3.757Z" transform="translate(63.315 7.976)" fill="#d6002a"></path></g><g id="Group_90" data-name="Group 90" clip-path="url(#clip-path-4)"><path id="Path_33" data-name="Path 33" d="M140.087,40.04c-.538.111-.928.192-1.167.232a7.43,7.43,0,0,1-1.167.063,6.539,6.539,0,0,1-4.372-1.4q-1.656-1.4-1.656-4.542v-25h5.347V33.5a2.754,2.754,0,0,0,.383,1.549c.255.382.833.574,1.739.574a4.529,4.529,0,0,0,.51-.022,3.107,3.107,0,0,1,.382-.023V40.04Z" transform="translate(71.913 5.128)" fill="#d6002a"></path></g><g id="Group_91" data-name="Group 91" clip-path="url(#clip-path-4)"><rect id="Rectangle_60" data-name="Rectangle 60" width="212" height="4.885"></rect></g></g></g><g id="Mask_Group_12" data-name="Mask Group 12" transform="translate(-2324 -196)" clip-path="url(#clip-path-14)"><path id="Forbes_logo" d="M104.94,16.994c0-5.368.093-10.366.37-14.994L91.149,4.684v1.3l1.388.185a2.554,2.554,0,0,1,2.036,1.018,8.19,8.19,0,0,1,.833,2.962c.185,2.684.37,8.793.278,18.419,0,9.533-.093,15.549-.278,17.863A58.482,58.482,0,0,0,107.439,48c5.553,0,9.9-1.573,13.05-4.813,3.147-3.147,4.813-7.59,4.813-13.05a16.276,16.276,0,0,0-3.61-10.829,11.348,11.348,0,0,0-9.07-4.258A18.107,18.107,0,0,0,104.94,16.994Zm.278,28.507c-.185-2.962-.37-11.847-.37-26.378a10.662,10.662,0,0,1,3.332-.463c2.221,0,3.98,1.111,5.276,3.425a17.17,17.17,0,0,1,1.944,8.608,23.756,23.756,0,0,1-2.221,10.829c-1.481,2.869-3.332,4.35-5.646,4.35a17.275,17.275,0,0,0-2.314-.37ZM38.022,2.926H1V4.777l1.944.185A4.919,4.919,0,0,1,6.091,6.628,8.6,8.6,0,0,1,7.2,11.07a175.9,175.9,0,0,1,0,27.952,10.954,10.954,0,0,1-1.111,4.443,4.219,4.219,0,0,1-3.147,1.666L1,45.408V47.26H24.879V45.408l-2.5-.185a4.535,4.535,0,0,1-3.147-1.666,8.6,8.6,0,0,1-1.111-4.443c-.278-3.7-.463-7.96-.463-12.68l5,.093c2.684.093,4.535,2.129,5.461,6.2H29.97V17.642H28.119c-.926,3.98-2.684,6.016-5.461,6.109l-5,.093c0-8.33.185-14.254.463-17.863h7.312c5.183,0,8.7,3.332,10.736,10l2.221-.648Zm-4.35,28.507a17.781,17.781,0,0,0,4.072,11.94C40.429,46.519,44.408,48,49.406,48s9.07-1.573,12.032-4.813c2.962-3.147,4.35-7.127,4.35-11.94a17.781,17.781,0,0,0-4.072-11.94c-2.684-3.147-6.664-4.628-11.662-4.628s-9.07,1.573-12.032,4.813c-2.962,3.147-4.35,7.127-4.35,11.94Zm20.64-10.551A27.968,27.968,0,0,1,55.885,31.34c0,9.811-2.036,14.624-6.016,14.624q-3.054,0-4.72-4.165A28.615,28.615,0,0,1,43.575,31.34c0-9.718,2.036-14.531,6.016-14.531C51.628,16.716,53.2,18.1,54.312,20.881Zm78.209,22.491A15.768,15.768,0,0,0,144.091,48a15.574,15.574,0,0,0,7.59-1.759,13.932,13.932,0,0,0,5.183-4.165l-.926-1.111A11.087,11.087,0,0,1,148.9,43.28c-3.7,0-6.571-1.2-8.515-3.7-2.036-2.5-2.962-5.646-2.777-9.718h19.807c0-4.443-1.111-8.052-3.425-10.922q-3.471-4.165-9.718-4.165c-5.183,0-9.163,1.666-12.032,4.905a17.328,17.328,0,0,0-4.258,11.94,15.832,15.832,0,0,0,4.535,11.755Zm6.849-23.231c1.018-2.221,2.314-3.332,4.072-3.332,2.777,0,4.165,3.517,4.165,10.644l-9.811.185a19.348,19.348,0,0,1,1.573-7.5Zm42.946-3.7a23.218,23.218,0,0,0-9.441-1.759,13.881,13.881,0,0,0-9.256,2.962,9.112,9.112,0,0,0-3.517,7.219,7.905,7.905,0,0,0,2.129,5.831,17.538,17.538,0,0,0,6.479,3.61,17.6,17.6,0,0,1,5.368,2.684,4.593,4.593,0,0,1,0,6.757,4.96,4.96,0,0,1-3.887,1.481c-4.072,0-7.127-2.962-9.256-8.885l-1.573.463.37,9.256A30.413,30.413,0,0,0,170.839,48c4.258,0,7.5-.926,9.9-2.869a9.423,9.423,0,0,0,3.61-7.867,8.073,8.073,0,0,0-1.759-5.461,15.17,15.17,0,0,0-5.924-3.7,23.136,23.136,0,0,1-6.294-3.054,4.249,4.249,0,0,1-1.666-3.425,4.847,4.847,0,0,1,1.2-3.425,3.933,3.933,0,0,1,3.147-1.3c3.7,0,6.386,2.684,8.052,7.96l1.573-.463Zm-89.038-.833a9.268,9.268,0,0,0-4.258-.926,8.313,8.313,0,0,0-4.905,1.944,12.507,12.507,0,0,0-4.072,5.461l.093-7.4L66.066,17.457v1.3l1.388.093c1.759.185,2.777,1.573,2.962,4.072a100.909,100.909,0,0,1,0,18.326c-.185,2.5-1.2,3.795-2.962,4.072l-1.388.185V47.26H85.688V45.5l-2.5-.185c-1.759-.185-2.777-1.573-2.962-4.072a94.551,94.551,0,0,1-.185-17.03q.833-1.388,3.61-1.666a10.478,10.478,0,0,1,6.2,1.666l3.425-8.608Z" transform="translate(2359 227)"></path></g><g id="Mask_Group_13" data-name="Mask Group 13" transform="translate(-1911 -196)" clip-path="url(#clip-path-15)"><g id="NASDAQ_Logo" transform="translate(2743.012 229.984)"><path id="Path_34" data-name="Path 34" d="M114.3,33.328c-5.293,0-8.582-3.066-8.582-8.008,0-5.129,3.035-8.32,7.922-8.32h.41a20.261,20.261,0,0,1,2.61.164V10.973h3.452v21.8a42.1,42.1,0,0,1-5.812.558m-.031-13.61c-3.344,0-4.97,1.805-4.97,5.516,0,3.332,1.962,5.4,5.114,5.4.606,0,1.3-.04,2.246-.121V19.94a15.021,15.021,0,0,0-2.39-.222M67.012,32.828,57.687,16.555l0,16.273h-3.25v-20.6h4.55l9.325,16.128,0-16.128H71.6v20.6Zm29.7.317a26.912,26.912,0,0,1-5.156-.551l-.211-.04V29.676l.308.066a22.709,22.709,0,0,0,4.688.68c1.2,0,3.992-.188,3.992-1.953,0-1.48-1.93-1.852-3.48-2.149l-.1-.02c-.29-.054-.563-.109-.793-.167-2.274-.59-4.7-1.477-4.7-4.524,0-2.972,2.352-4.675,6.454-4.675a28.456,28.456,0,0,1,4.547.382l.558.082v2.793l-.3-.054a24.291,24.291,0,0,0-4.289-.485c-1.629,0-3.562.305-3.562,1.754,0,1.2,1.582,1.547,3.414,1.946,2.562.554,5.738,1.25,5.738,4.746,0,3.207-2.59,5.047-7.113,5.047m33.085,0c-3.573,0-6.882-.63-6.882-5.192,0-4.965,5.117-4.965,8.176-4.965.3,0,1.742.067,2.183.086,0-2.785-.039-3.449-4.078-3.449a29.253,29.253,0,0,0-4.949.6l-.3.054v-2.75l.2-.043a26.625,26.625,0,0,1,5.364-.55c3.914,0,7.23.394,7.23,5.25v10.59l-.238.027a57.491,57.491,0,0,1-6.707.344m1.207-7.7c-2.95,0-4.778.434-4.778,2.594,0,2.5,2.332,2.707,4.52,2.707.816,0,2.285-.1,2.734-.137V25.531c-.632-.027-2.277-.086-2.476-.086m-49.645,7.7c-3.578,0-6.886-.63-6.886-5.192,0-4.965,5.117-4.965,8.175-4.965.305,0,1.746.067,2.188.086,0-2.785-.043-3.449-4.082-3.449a29.252,29.252,0,0,0-4.95.6l-.3.054v-2.75l.207-.043a26.55,26.55,0,0,1,5.36-.55c3.913,0,7.23.394,7.23,5.25v10.59l-.239.027a57.458,57.458,0,0,1-6.7.344m1.2-7.7c-2.949,0-4.773.434-4.773,2.594,0,2.5,2.328,2.707,4.516,2.707.82,0,2.289-.1,2.738-.137V25.531c-.637-.027-2.281-.086-2.48-.086" fill="#231f20"></path><g id="Group_92" data-name="Group 92" transform="translate(139 16)"><path id="Path_35" data-name="Path 35" d="M11.492,23.828V17.07a16.738,16.738,0,0,1-2.64.188,11,11,0,0,1-4.063-.793c-2.633-1.1-4.2-3.875-4.2-7.442,0-1.78.434-5.035,3.336-6.789A10.7,10.7,0,0,1,9.684.992c.925,0,2.175.07,3.382.14l1.961.1V22.262l-3.535,1.566ZM9.426,3.711C5.918,3.71,4.14,5.5,4.14,9.023c0,4.536,2.652,5.489,4.882,5.489a17.013,17.013,0,0,0,2.5-.172V3.809c-1.058-.07-1.547-.1-2.1-.1Z" fill="#231f20"></path></g><g id="Group_93" data-name="Group 93" transform="translate(25)"><path id="Path_36" data-name="Path 36" d="M14.012.016,2.594,31.386A2.19,2.19,0,0,1,.758,32.813v.015h12.07a2.184,2.184,0,0,0,2.055-1.441L26.305.016Z" fill="#0996c7"></path></g><path id="Path_37" data-name="Path 37" d="M24.773,32.352a2.067,2.067,0,0,0,1.688-.875,2.222,2.222,0,0,0,.273-.508l4.188-11.512-2.45-6.723a2.07,2.07,0,0,0-3.6-.4,2.329,2.329,0,0,0-.273.508L20.414,24.352l2.461,6.75a2.067,2.067,0,0,0,1.9,1.25" fill="#0996c7"></path><g id="Group_94" data-name="Group 94" transform="translate(-1 10)"><path id="Path_38" data-name="Path 38" d="M26.668.984h-12.2a2.188,2.188,0,0,0-2.059,1.442L.988,33.8H13.281L24.7,2.427A2.187,2.187,0,0,1,26.668.988Z" fill="#0996c7"></path></g></g></g><g id="Mask_Group_14" data-name="Mask Group 14" transform="translate(-2058 -141)" clip-path="url(#clip-path-16)"><g id="Group_95" data-name="Group 95" transform="translate(-151 20.2)"><path id="Yahoo_Finance" data-name="Yahoo Finance" d="M61.3,44.5v13h6.4V47.2a3.36,3.36,0,0,1,.5-1.4,1.815,1.815,0,0,1,1.9-.9,2.07,2.07,0,0,1,2,2V57.4h6.4v-6a62.289,62.289,0,0,0-.1-6.6,6.357,6.357,0,0,0-1.9-4.2A5.724,5.724,0,0,0,73.2,39a8.684,8.684,0,0,0-2.3.1A5.223,5.223,0,0,0,68,40.7l-.5.4V31.5H61.1v13Zm68-12.8c-.2.4-6.7,16.1-6.7,16.1h7.6l3.4-8.1c1.9-4.5,3.4-8.2,3.4-8.2h-7.6Zm-82,7.4a8.638,8.638,0,0,0-3.6,1.3,9.185,9.185,0,0,0-4,6.6,11.23,11.23,0,0,0,.2,4.1,8.9,8.9,0,0,0,5.6,6.4,7.1,7.1,0,0,0,2.6.4,4.954,4.954,0,0,0,1.5-.1,5.812,5.812,0,0,0,3-1.6l.4-.4v1.6h6.2v-18H53V41l-.3-.3a5.44,5.44,0,0,0-3-1.6,4.922,4.922,0,0,0-1.4-.1A5.13,5.13,0,0,1,47.3,39.1Zm40.8,0a10.268,10.268,0,0,0-4.8,2A9.628,9.628,0,0,0,80,49.9a9.156,9.156,0,0,0,7,7.7,10.319,10.319,0,0,0,2.6.3,9.329,9.329,0,0,0,4.5-1,8.938,8.938,0,0,0,5-7,13.1,13.1,0,0,0,0-2.8,9.13,9.13,0,0,0-1.7-4.2,14.481,14.481,0,0,0-1.7-1.8,9.339,9.339,0,0,0-4.8-2A13.1,13.1,0,0,0,88.1,39.1Zm20.4,0a9.016,9.016,0,0,0-4.7,2,9.582,9.582,0,0,0-1.7,1.8,10.358,10.358,0,0,0-1.7,4.2,13.1,13.1,0,0,0,0,2.8,9.347,9.347,0,0,0,7.5,7.9,7.145,7.145,0,0,0,2.1.2,8.952,8.952,0,0,0,4.6-1.1,9.409,9.409,0,0,0,4.8-10.4,9.244,9.244,0,0,0-8.1-7.4A13.1,13.1,0,0,0,108.5,39.1ZM19,39.5s1.7,4.1,3.8,9.1,3.8,9.1,3.8,9.1S26,59.2,25.2,61s-1.4,3.2-1.4,3.3a31.792,31.792,0,0,0,3.4,0h3.4L35.7,52c2.8-6.8,5.1-12.3,5.1-12.4a24.9,24.9,0,0,0-3.4,0H34l-2.1,5.2C31,47.6,30.1,50,30.1,50s-.9-2.4-2.1-5.2l-2-5.2H22.5C20.6,39.5,19,39.5,19,39.5Zm31.4,5.4a3.735,3.735,0,0,1,2.7,2.6,6.054,6.054,0,0,1,0,1.9A3.452,3.452,0,0,1,50.5,52a6.054,6.054,0,0,1-1.9,0,3.787,3.787,0,0,1-2.5-2.1,3.931,3.931,0,0,1,.3-3.5A3.815,3.815,0,0,1,50.4,44.9Zm39.9.1a3.4,3.4,0,0,1,2.8,2.7,5.438,5.438,0,0,1,0,1.8,3.646,3.646,0,0,1-2.5,2.6,6.054,6.054,0,0,1-1.9,0,3.945,3.945,0,0,1-2.3-1.9,2.877,2.877,0,0,1-.3-1.6,3.194,3.194,0,0,1,.3-1.4,4.013,4.013,0,0,1,1.3-1.6A2.884,2.884,0,0,1,90.3,45Zm20.3,0a3.321,3.321,0,0,1,2.6,2.1,3.194,3.194,0,0,1,.3,1.4,4.145,4.145,0,0,1-.3,1.6,3.669,3.669,0,0,1-2.3,1.9,6.054,6.054,0,0,1-1.9,0,3.482,3.482,0,0,1-2.5-2.6,6.054,6.054,0,0,1,0-1.9,3.518,3.518,0,0,1,3.4-2.7C110.1,44.9,110.4,44.9,110.6,45Zm13.6,4.4a4.249,4.249,0,0,0-3.7,3.4,6.054,6.054,0,0,0,0,1.9,4.217,4.217,0,0,0,3.2,3.1c.2,0,.6.1.9.1a4.07,4.07,0,0,0,3-1.2,3.852,3.852,0,0,0,1.2-3,3.948,3.948,0,0,0-1.9-3.5A3.578,3.578,0,0,0,124.2,49.4Z" transform="translate(3219 123.3)" fill="#39007d" fill-rule="evenodd"></path><path id="Yahoo_Finance-2" data-name="Yahoo Finance" d="M71.5,59.2a2.04,2.04,0,0,0-1.2,3,2.276,2.276,0,0,0,.9.8,1.974,1.974,0,0,0,.9.1A2.22,2.22,0,0,0,73,63a2.41,2.41,0,0,0,1-1,2.045,2.045,0,0,0-1-2.7,1.077,1.077,0,0,0-.8-.2A1.285,1.285,0,0,0,71.5,59.2Zm-5.4.1a4.039,4.039,0,0,0-3.3,3.2,3.083,3.083,0,0,0-.1,1v.7H61.3v3h1.4v7.2h3.8V67.2h2.6v-3H66.5v-.3c.1-.7.4-1.2,1-1.3a2.25,2.25,0,0,1,1.4.1.774.774,0,0,0,.3.1V59.6l-.3-.1a3.664,3.664,0,0,0-1.6-.2A4.744,4.744,0,0,0,66.1,59.3ZM81.3,64a3.267,3.267,0,0,0-1.8,1.1l-.2.3V64.2H75.5V74.4h3.8V68.5a2.344,2.344,0,0,1,.5-1,1.377,1.377,0,0,1,1.8.2c.3.4.3.4.3,3.6v3h3.8V70.9c0-3.6,0-4-.2-4.7a2.9,2.9,0,0,0-.9-1.5,2.477,2.477,0,0,0-1.4-.8A11.484,11.484,0,0,0,81.3,64Zm9.5-.1a4.958,4.958,0,0,0-2,.8,5.5,5.5,0,0,0-2.1,3.5,8.854,8.854,0,0,0,0,2.3,5.805,5.805,0,0,0,1,2.4,4.364,4.364,0,0,0,2.7,1.7,4.893,4.893,0,0,0,2.1-.1,4.351,4.351,0,0,0,1.5-.8l.4-.4v1h3.8V64.1H94.4v1l-.3-.1a3.477,3.477,0,0,0-2-1A5.7,5.7,0,0,0,90.8,63.9Zm14.5.1a3.073,3.073,0,0,0-1.8,1.1l-.2.2V64.1H99.5V74.3h3.8V71.4c0-3.1,0-3.1.2-3.6a1.1,1.1,0,0,1,1-.6,1.4,1.4,0,0,1,.9.3c.4.4.4.3.4,3.7v3h3.8V70.5c0-3.7,0-3.7-.1-4.1a9.441,9.441,0,0,1-.3-.9,2.407,2.407,0,0,0-.6-.8,3.827,3.827,0,0,0-1.1-.8A8.129,8.129,0,0,0,105.3,64Zm9.9,0a5.141,5.141,0,0,0-3.8,2.5c-.2.4-.4.9-.6,1.4a5.313,5.313,0,0,0-.1,1.4,3.814,3.814,0,0,0,.3,1.9,5.208,5.208,0,0,0,3.9,3.4,4.153,4.153,0,0,0,1.3.1,4.378,4.378,0,0,0,2.1-.4l.4-.2V70.7l-.3.2a2.3,2.3,0,0,1-1.4.4,2.549,2.549,0,0,1-1.3-.2,1.962,1.962,0,0,1-.9-.9,1.719,1.719,0,0,1-.1-.8,1.95,1.95,0,0,1,.1-.8,2.133,2.133,0,0,1,2-1.3,3.439,3.439,0,0,1,2,.5V64.4l-.3-.1A6.322,6.322,0,0,0,115.2,64Zm8.6,0a5.54,5.54,0,0,0-3.6,8.5,4.832,4.832,0,0,0,3.2,2.1,14.045,14.045,0,0,0,2.9,0,5.1,5.1,0,0,0,2.6-1.4,10.966,10.966,0,0,0,.8-1s-.7-.3-1.6-.6l-1.6-.6-.2.2a1.623,1.623,0,0,1-.9.5,1.872,1.872,0,0,1-2.4-1.3v-.2h7v-.9a3.45,3.45,0,0,0-.1-1.2,5.33,5.33,0,0,0-1.4-2.8,4.611,4.611,0,0,0-2.6-1.3A7.378,7.378,0,0,0,123.8,64ZM70.2,69.3v5.1H74V64.2H70.2Zm55.1-2.5a2.506,2.506,0,0,1,.7.4,1.012,1.012,0,0,1,.4.7v.2h-1.7c-1.9,0-1.8,0-1.6-.4A1.908,1.908,0,0,1,125.3,66.8ZM93,67.3a2.04,2.04,0,0,1,.1,3.9,3.3,3.3,0,0,1-1.4,0,1.888,1.888,0,0,1-1.3-1.3,1.7,1.7,0,0,1-.1-.7,1.077,1.077,0,0,1,.2-.8A2.167,2.167,0,0,1,93,67.3Z" transform="translate(3219 123.3)" fill="#7e1fff" fill-rule="evenodd"></path></g></g><g id="Mask_Group_15" data-name="Mask Group 15" transform="translate(-1876 -211)" clip-path="url(#clip-path-17)"><g id="New_Bloomberg_Logo" transform="translate(2951 254.6)"><path id="Path_39" data-name="Path 39" d="M115-9.6h17.506a12.443,12.443,0,0,1,7.688,2.223,8.735,8.735,0,0,1,3.149,7.04c0,3.427-1.389,5.558-4.168,6.854V6.7a8.551,8.551,0,0,1,5.835,8.522,10.469,10.469,0,0,1-3.89,8.614c-2.038,1.482-4.631,2.13-8.151,2.13H115ZM130.747,4.294a2.943,2.943,0,0,0,3.242-3.149c0-2.038-1.389-3.057-3.335-3.057h-6.021V4.2h6.113Zm.834,13.8a3.427,3.427,0,0,0,3.705-3.612,3.377,3.377,0,0,0-3.705-3.612h-6.854v7.318h6.854Z" transform="translate(0 0)"></path><path id="Path_40" data-name="Path 40" d="M149.1-9.6h9.17V26.061H149.1Z" transform="translate(-2.514 0)"></path><path id="Path_41" data-name="Path 41" d="M161,14.131C161,6.072,166.187.7,174.246.7S187.4,6.165,187.4,14.131c0,8.059-5.094,13.431-13.153,13.431S161,22.189,161,14.131Zm17.229,0c0-4.446-1.389-7.225-4.168-7.225s-4.076,2.779-4.076,7.225,1.3,7.318,4.076,7.318C176.839,21.356,178.229,18.577,178.229,14.131Z" transform="translate(-3.392 -0.759)"></path><path id="Path_42" data-name="Path 42" d="M190.6,14.131C190.6,6.072,195.787.7,203.846.7s13.06,5.372,13.06,13.431-5.094,13.431-13.153,13.431C195.787,27.562,190.6,22.189,190.6,14.131Zm17.229,0c0-4.446-1.389-7.225-4.168-7.225s-4.076,2.779-4.076,7.225,1.3,7.318,4.076,7.318C206.439,21.356,207.829,18.577,207.829,14.131Z" transform="translate(-5.574 -0.759)"></path><path id="Path_43" data-name="Path 43" d="M221,1.341h8.522v3.8h.185A8.074,8.074,0,0,1,237.395.6a7.035,7.035,0,0,1,6.854,4.353h.185A8.436,8.436,0,0,1,252.308.6c5.928,0,8.429,4.353,8.429,10.189V26.721h-8.892V12.364c0-2.594-.834-4.261-3.057-4.261s-3.335,2.038-3.335,4.817v13.8h-8.892V12.364c0-2.594-.834-4.261-3.057-4.261s-3.335,2.038-3.335,4.817v13.8H221Z" transform="translate(-7.816 -0.752)"></path><path id="Path_44" data-name="Path 44" d="M275.314,22.634h-.093v3.335H266.7V-9.6h8.892V3.183h.185A8.433,8.433,0,0,1,283-.245c6.391,0,10.1,5.743,10.1,13.431,0,8.614-3.983,13.616-10.652,13.616A7.842,7.842,0,0,1,275.314,22.634Zm8.614-9.541c0-4.076-1.482-6.762-4.168-6.762-2.779,0-4.446,2.686-4.446,6.762s1.76,6.762,4.446,6.762S283.929,17.262,283.929,13.094Z" transform="translate(-11.185 0)"></path><path id="Path_45" data-name="Path 45" d="M296.3,14.031C296.3,6.065,301.58.6,309.175.6a12.242,12.242,0,0,1,8.892,3.335c2.964,2.871,4.261,7.318,4.168,12.5H305.192c.371,3.149,1.853,4.817,4.539,4.817a3.472,3.472,0,0,0,3.52-2.408h8.614c-1.482,5.835-6.021,8.707-12.412,8.707C301.58,27.462,296.3,22.089,296.3,14.031Zm8.892-2.686h8.151c-.185-3.057-1.853-4.631-3.983-4.631C306.859,6.621,305.47,8.381,305.192,11.345Z" transform="translate(-13.368 -0.752)"></path><path id="Path_46" data-name="Path 46" d="M334.522,5.709h.185C336.559,2.189,338.968.8,342.024.8a2.764,2.764,0,0,1,1.482.278V8.859h-.185c-5.28-.926-8.336,1.575-8.336,7.318V26.828H326V1.356h8.522Z" transform="translate(-15.557 -0.767)"></path><path id="Path_47" data-name="Path 47" d="M345.863,26.806h8.614c.371,1.112,1.482,2.13,3.612,2.13,2.871,0,3.89-1.76,3.89-4.446V22.638h-.185a7.611,7.611,0,0,1-6.113,2.871c-5.465,0-10.282-4.076-10.282-12.041C345.4,6.15,349.29.5,355.218.5a7.493,7.493,0,0,1,6.854,3.52h.185V1.241h8.522V23.286c0,4.076-1.389,7.225-3.52,9.077-2.223,1.945-5.372,2.779-8.985,2.779C351.421,35.235,346.7,32.456,345.863,26.806ZM362.351,13.1c0-3.149-1.482-5.743-4.076-5.743-2.5,0-4.076,2.223-4.076,5.743,0,3.427,1.575,5.835,4.076,5.835S362.351,16.432,362.351,13.1Z" transform="translate(-16.988 -0.745)"></path></g></g><g id="Mask_Group_17" data-name="Mask Group 17" transform="translate(-1819 -192)" clip-path="url(#clip-path-18)"><g id="National-Geographic-Logo" transform="translate(3428 225)"><path id="Path_70" data-name="Path 70" d="M0,0V46H31.68V0ZM27.1,41.369H4.566V4.634H27.1Z" fill="#fbd42c"></path><path id="Path_71" data-name="Path 71" d="M61.569,17.267h-.044C59,13.15,56.446,9.514,53.872,5.854H51.909V21.865h2.167V10.382H54.1c2.552,4.141,5.1,7.8,7.676,11.483h1.963V5.854H61.569Zm15.643,4.6L72.177,5.854H69.922L64.458,21.865h2.347L68.183,17.5h4.761l1.242,4.369Zm-8.329-6.337c.632-2.1,1.265-4.045,1.829-6.519h.046c.632,2.473,1.2,4.414,1.783,6.519Zm10.879,6.337H82.47V8h4.154V5.854H75.609V8h4.153v13.86ZM90.189,5.854H87.5V21.865h2.686Zm8.354,16.284c4.131,0,6.7-3.727,6.7-8.508,0-4.483-2.845-8.052-6.7-8.052s-6.706,3.569-6.706,8.052C91.837,18.411,94.41,22.138,98.543,22.138Zm0-14.271c2.686,0,3.814,2.813,3.814,5.764,0,3.064-.992,6.221-3.814,6.221s-3.815-3.156-3.815-6.221C94.728,10.679,95.857,7.867,98.543,7.867Zm10.517,2.516h.025c2.55,4.141,5.1,7.8,7.674,11.483h1.963V5.854h-2.167V17.267h-.045c-2.527-4.116-5.079-7.752-7.652-11.413h-1.963V21.865h2.165ZM123.166,17.5h4.764l1.241,4.369H132.2L127.163,5.854h-2.257l-5.464,16.011h2.35ZM125.7,9.009h.044c.631,2.473,1.2,4.414,1.784,6.519h-3.659C124.5,13.423,125.131,11.482,125.7,9.009Zm15.324,10.7h-5.348V5.854h-2.687V21.865h8.036V19.714ZM59.36,40.177a3.917,3.917,0,0,1-1.9.39c-2.324,0-4.582-2.243-4.582-6.039,0-3.636,1.963-5.947,4.853-5.947a5.815,5.815,0,0,1,2.889.845l.88-1.9a6.675,6.675,0,0,0-3.837-1.236c-4.739,0-7.674,3.82-7.674,8.188,0,4.712,2.935,8.372,7.583,8.372a12.259,12.259,0,0,0,4.494-.984V35.258H59.36v4.919Zm7.876-4.917h4.425V33.111H67.237V28.719h4.516v-2.15H64.529V42.58h8.035V40.428H67.237ZM80.1,26.294c-3.861,0-6.7,3.568-6.7,8.052,0,4.78,2.572,8.509,6.7,8.509s6.7-3.729,6.7-8.509C86.807,29.862,83.964,26.294,80.1,26.294Zm0,14.273c-2.823,0-3.815-3.156-3.815-6.222,0-2.951,1.128-5.765,3.815-5.765s3.814,2.813,3.814,5.765C83.918,37.41,82.926,40.567,80.1,40.567Zm17-.39a3.916,3.916,0,0,1-1.9.39c-2.325,0-4.583-2.243-4.583-6.039,0-3.636,1.964-5.947,4.855-5.947a5.8,5.8,0,0,1,2.887.845l.881-1.9a6.678,6.678,0,0,0-3.839-1.236c-4.738,0-7.672,3.82-7.672,8.188,0,4.712,2.934,8.372,7.585,8.372a12.261,12.261,0,0,0,4.491-.984V35.258H97.1v4.919Zm14.311-8.987c0-3.113-1.875-4.621-4.9-4.621h-4.222V42.58H105V36.542h1.219l2.551,6.039h3.092l-3.181-6.634A5.4,5.4,0,0,0,111.412,31.19Zm-5.282,3.292c-.272.023-.905.047-1.13.069V28.72h1.2a2.308,2.308,0,0,1,2.5,2.583C108.7,33.452,107.417,34.415,106.13,34.482Zm11.241-7.913L111.907,42.58h2.346l1.378-4.37h4.763l1.245,4.37h3.022l-5.034-16.011Zm-1.038,9.676c.632-2.106,1.263-4.05,1.828-6.52h.046c.631,2.47,1.2,4.413,1.783,6.52Zm28.147-3.524h-5.621V26.569h-2.686V42.58h2.686v-7.71h5.621v7.71h2.707V26.613H144.48Zm5.3,9.857h2.686V26.569h-2.686Zm12.167-2.012c-2.618,0-4.831-2.243-4.831-6.039,0-3.636,2.011-5.947,4.764-5.947a5.645,5.645,0,0,1,2.778.891l.857-1.942a6.592,6.592,0,0,0-3.634-1.236c-4.718,0-7.63,3.82-7.63,8.188,0,4.712,2.935,8.372,7.586,8.372a6.813,6.813,0,0,0,3.565-1.1l-.744-1.991A5.072,5.072,0,0,1,161.95,40.567Zm-32.211-14H125.52V42.58h2.709V36.542h1.217a5.2,5.2,0,0,0,5.192-5.352C134.637,28.077,132.766,26.569,129.739,26.569Zm-.383,7.913c-.271.021-.924.043-1.128.064V28.719h1.217A2.3,2.3,0,0,1,131.93,31.3C131.929,33.452,130.643,34.415,129.356,34.482Z" transform="translate(-11.01 -1.228)"></path></g></g><g id="Mask_Group_18" data-name="Mask Group 18" transform="translate(-1983 -169)" clip-path="url(#clip-path-19)"><g id="World_Economic_Forum_logo" transform="translate(3457 195.553)"><path id="Path_48" data-name="Path 48" d="M76.345,48.92l-.028.022-.249-.3A29.183,29.183,0,0,1,37.4,46.915,27.573,27.573,0,0,1,34.138,11.1,28.39,28.39,0,0,1,47.444,1L47.237.447a29.014,29.014,0,0,0-13.515,10.3A27.937,27.937,0,0,0,36.98,47.33c.521.508,1.064.986,1.616,1.45l-.715.832a30.9,30.9,0,0,0,39.3.277Z" transform="translate(-2.812)" fill="#004b86" fill-rule="evenodd"></path><g id="Group_96" data-name="Group 96" transform="translate(0 3.006)"><path id="Path_49" data-name="Path 49" d="M34.865,10.133a4.8,4.8,0,0,1-.208-1.383,3.758,3.758,0,0,1,3.881-3.942,4.611,4.611,0,0,1,1.455.208,9.89,9.89,0,0,1,1.386-.968,5.627,5.627,0,0,0-2.841-.76A5.556,5.556,0,0,0,32.924,8.75a5.913,5.913,0,0,0,.831,2.9,3.914,3.914,0,0,1,.416-.553,11.864,11.864,0,0,1,.693-.968" transform="translate(-3.261 -3.287)" fill="#141414" fill-rule="evenodd"></path><path id="Path_50" data-name="Path 50" d="M42.525,4.9a8.813,8.813,0,0,0-1.317.9A3.884,3.884,0,0,1,42.594,8.91a3.784,3.784,0,0,1-3.881,3.872,3.719,3.719,0,0,1-3.049-1.452c-.139.208-.278.346-.416.553a5.9,5.9,0,0,0-.555.83,5.845,5.845,0,0,0,4.02,1.591A5.456,5.456,0,0,0,44.327,8.91a5.323,5.323,0,0,0-1.8-4.011" transform="translate(-3.437 -3.447)" fill="#141414" fill-rule="evenodd"></path><path id="Path_51" data-name="Path 51" d="M32.119,24.506a3.87,3.87,0,0,1-2.426,3.665v1.66a5.5,5.5,0,0,0,4.158-5.325,5.588,5.588,0,0,0-2.564-4.564c-.208.553-.347,1.037-.555,1.521a3.944,3.944,0,0,1,1.386,3.043" transform="translate(-2.941 -4.937)" fill="#141414" fill-rule="evenodd"></path><path id="Path_52" data-name="Path 52" d="M27.807,28.356h-.346a3.858,3.858,0,0,1-3.951-3.941,3.759,3.759,0,0,1,3.951-3.872,3.524,3.524,0,0,1,1.524.276,11.958,11.958,0,0,1,.486-1.452,6.448,6.448,0,0,0-2.01-.346,5.431,5.431,0,1,0,0,10.857h.346c0-.276-.069-.622-.069-.9,0-.208.069-.415.069-.622" transform="translate(-2.164 -4.846)" fill="#141414" fill-rule="evenodd"></path><path id="Path_53" data-name="Path 53" d="M32.3,36.353a3.74,3.74,0,0,1,3.881,3.872,3.806,3.806,0,0,1-2.841,3.8c.277.484.555.9.831,1.383a5.466,5.466,0,0,0,3.743-5.186A5.543,5.543,0,0,0,32.3,34.832a5.412,5.412,0,0,0-2.148.415,11.582,11.582,0,0,0,.277,1.521,4.136,4.136,0,0,1,1.871-.415" transform="translate(-2.987 -6.412)" fill="#141414" fill-rule="evenodd"></path><path id="Path_54" data-name="Path 54" d="M28.041,40.332a4.041,4.041,0,0,1,1.04-2.766,14.118,14.118,0,0,1-.346-1.66,5.382,5.382,0,0,0-2.426,4.425,5.468,5.468,0,0,0,5.614,5.463,2.384,2.384,0,0,0,.693-.069c-.278-.484-.624-.968-.9-1.452a3.8,3.8,0,0,1-3.673-3.942" transform="translate(-2.606 -6.518)" fill="#141414" fill-rule="evenodd"></path><path id="Path_55" data-name="Path 55" d="M62.063,35.062v6.293c0,1.452-.485,2.835-2.356,2.835s-2.357-1.383-2.357-2.835V35.062H55.617V41.7a3.8,3.8,0,0,0,4.089,4.011A3.8,3.8,0,0,0,63.795,41.7V35.062Z" transform="translate(-5.509 -6.435)" fill="#141414" fill-rule="evenodd"></path><path id="Path_56" data-name="Path 56" d="M64.119,12.507h4.713v1.452H62.386V3.518h1.733Z" transform="translate(-6.18 -3.31)" fill="#141414" fill-rule="evenodd"></path><path id="Path_57" data-name="Path 57" d="M0,19.252H6.1v1.521H1.732v2.49h4.3v1.521h-4.3v3.388H6.1v1.521H0Z" transform="translate(0 -4.869)" fill="#141414" fill-rule="evenodd"></path><path id="Path_58" data-name="Path 58" d="M38.232,18.638l7.208,7.4V19.191h1.732V30.047l-7.208-7.26v6.845H38.232Z" transform="translate(-3.787 -4.808)" fill="#141414" fill-rule="evenodd"></path><path id="Path_59" data-name="Path 59" d="M85.926,19.252h1.733V29.693H85.926Z" transform="translate(-8.512 -4.869)" fill="#141414" fill-rule="evenodd"></path><path id="Path_60" data-name="Path 60" d="M18.5,36.584v2.489h3.742v1.453H18.5V45.5H16.77V35.062h5.614v1.521Z" transform="translate(-1.661 -6.435)" fill="#141414" fill-rule="evenodd"></path><path id="Path_61" data-name="Path 61" d="M25.3,9.995h.069l1.663-6.5H28.7L25.789,14.351,22.115,6.537l-3.673,7.814L15.463,3.495h1.732l1.664,6.5,3.257-6.708Z" transform="translate(-1.532 -3.287)" fill="#141414" fill-rule="evenodd"></path><path id="Path_62" data-name="Path 62" d="M70.475,23.147h-.069l-1.664,6.5H67.079L69.99,18.791l3.673,7.883,3.673-7.883,2.98,10.856H78.584l-1.664-6.5h-.069l-3.188,6.777Z" transform="translate(-6.645 -4.823)" fill="#141414" fill-rule="evenodd"></path><path id="Path_63" data-name="Path 63" d="M71.475,38.958l-1.664,6.5H68.079L70.99,34.6l3.743,7.814L78.406,34.6l2.91,10.857H79.584l-1.664-6.5-3.188,6.708Z" transform="translate(-6.744 -6.389)" fill="#141414" fill-rule="evenodd"></path><path id="Path_64" data-name="Path 64" d="M45.689,35.062a5.894,5.894,0,0,1,2.911.484,2.9,2.9,0,0,1,1.455,2.489,2.816,2.816,0,0,1-2.564,2.9L50.818,45.5h-1.94l-3.119-4.425H44.58V45.5H42.848V35.062ZM44.58,39.7h.763c1.386,0,3.049.069,3.049-1.591s-1.733-1.591-3.119-1.591H44.58Z" transform="translate(-4.244 -6.435)" fill="#141414" fill-rule="evenodd"></path><path id="Path_65" data-name="Path 65" d="M52.228,3.517A5.894,5.894,0,0,1,55.138,4a2.837,2.837,0,0,1,1.386,2.489,2.765,2.765,0,0,1-2.564,2.9l3.4,4.564h-1.94L52.228,9.533H51.119v4.425H49.386V3.517ZM51.119,8.15h.763c1.386,0,2.98.069,2.98-1.591s-1.733-1.59-3.049-1.59h-.693Z" transform="translate(-4.892 -3.31)" fill="#141414" fill-rule="evenodd"></path><path id="Path_66" data-name="Path 66" d="M74.658,12.507h.97c2.287,0,4.435-.83,4.435-3.8,0-3.043-2.148-3.734-4.435-3.734h-.97ZM72.925,3.518h2.841c3.327,0,6.03,1.59,6.03,5.186s-2.634,5.256-6.03,5.256H72.925Z" transform="translate(-7.224 -3.31)" fill="#141414" fill-rule="evenodd"></path><path id="Path_67" data-name="Path 67" d="M99.711,27.872a3.524,3.524,0,0,1-1.94.484,3.785,3.785,0,0,1-3.881-3.873,3.758,3.758,0,0,1,3.881-3.941,4.232,4.232,0,0,1,1.94.415l.831-1.244a5.87,5.87,0,0,0-2.772-.692,5.556,5.556,0,0,0-5.614,5.463,5.5,5.5,0,0,0,5.614,5.394,5.581,5.581,0,0,0,2.841-.692Z" transform="translate(-9.129 -4.846)" fill="#141414" fill-rule="evenodd"></path><path id="Path_68" data-name="Path 68" d="M17.947,27.872a3.441,3.441,0,0,1-1.871.484,3.907,3.907,0,1,1,0-7.814,4.138,4.138,0,0,1,1.871.415l.9-1.244a6.323,6.323,0,0,0-2.772-.692,5.512,5.512,0,0,0-5.614,5.463,5.455,5.455,0,0,0,5.614,5.394,5.5,5.5,0,0,0,2.772-.692Z" transform="translate(-1.036 -4.846)" fill="#141414" fill-rule="evenodd"></path><path id="Path_69" data-name="Path 69" d="M61.651,24.484a3.916,3.916,0,1,0-7.832,0,3.916,3.916,0,0,0,7.832,0m1.733,0a5.616,5.616,0,1,1-5.614-5.463,5.556,5.556,0,0,1,5.614,5.463" transform="translate(-5.167 -4.846)" fill="#141414" fill-rule="evenodd"></path></g></g></g></g></g></svg> 