<?xml version="1.0" encoding="UTF-8"?> <svg xmlns="http://www.w3.org/2000/svg" xmlns:xlink="http://www.w3.org/1999/xlink" id="Group_9" data-name="Group 9" width="248" height="170" viewBox="0 0 248 170"><defs><clipPath id="clip-path"><rect id="Rectangle_23" data-name="Rectangle 23" width="248" height="170" fill="#fff" stroke="#707070" stroke-width="1"></rect></clipPath></defs><g id="Mask_Group_3" data-name="Mask Group 3" clip-path="url(#clip-path)"><path id="Path_23" data-name="Path 23" d="M0,0H248V170H0Z" fill="#070441"></path><ellipse id="Ellipse_29" data-name="Ellipse 29" cx="56" cy="68" rx="56" ry="68" transform="translate(193 -72)" fill="#194fea" opacity="0.589"></ellipse><ellipse id="Ellipse_30" data-name="Ellipse 30" cx="56" cy="68" rx="56" ry="68" transform="translate(-60 130)" fill="#239bdf" opacity="0.589"></ellipse></g><g id="Group_10" data-name="Group 10"><text id="LeewayHertz" transform="translate(15 65.714)" fill="#fff" font-size="15" font-family="Georgia"><tspan x="0" y="0">LeewayHertz</tspan></text><text id="X" transform="translate(29 93.714)" fill="#049fdc" font-size="15" font-family="Georgia"><tspan x="0" y="0">X</tspan></text><path id="path3345" d="M229.284-212.951l-.145,1.739h-.71a1.7,1.7,0,0,0-1.724,1.78v3.928H224.7v-7.448h1.9l.043.93a2.168,2.168,0,0,1,1.96-.93ZM215.349-205.5h-2.012v-3.937c0-.825-.071-1.862-1.231-1.862-1.117,0-1.562.806-1.562,1.745v4.055h-2.011v-7.448H210.4l.043.952a2.525,2.525,0,0,1,2.242-1.134c2.027,0,2.667,1.447,2.667,2.953Zm-7.693-1.74-.141,1.695a5.227,5.227,0,0,1-1.429.176c-1.9,0-2.445-.869-2.445-2.616v-7.063h2.012v2.1h2l-.139,1.739h-1.863v3.072c0,.7.192,1.08.911,1.08a3.3,3.3,0,0,0,1.092-.183m-4.676-5.708-.156,1.739h-.547a1.681,1.681,0,0,0-1.695,1.78v3.928h-2.012v-7.448h1.9l.04.93a2.175,2.175,0,0,1,1.964-.93Zm-13.487,6.623a8.535,8.535,0,0,1-4.528,1.1c-3.337-.1-5.745-2.174-5.745-5.675a5.522,5.522,0,0,1,5.747-5.764,6.233,6.233,0,0,1,4.36,1.438l-1.416,1.433a4.385,4.385,0,0,0-3.077-.925,3.455,3.455,0,0,0-3.372,3.7,3.525,3.525,0,0,0,3.523,3.873,5.285,5.285,0,0,0,2.38-.395v-2.309h-2.251l.152-1.894h4.225Zm34.3-2.191h-5.515a1.822,1.822,0,0,0,1.837,1.55,2.476,2.476,0,0,0,2.075-.92l1.313,1a4.022,4.022,0,0,1-3.327,1.567,3.761,3.761,0,0,1-3.923-3.906,3.737,3.737,0,0,1,3.839-3.906c2.389,0,3.7,1.447,3.7,4.016Zm-2.015-1.557a1.564,1.564,0,0,0-1.738-1.5,1.769,1.769,0,0,0-1.763,1.5Zm-24.478-.3v4.877h-1.774l-.044-.734a2.9,2.9,0,0,1-2.337.917c-1.37,0-2.664-.675-2.691-2.248-.041-2.472,2.783-2.648,4.556-2.648h.354v-.1c0-.818-.541-1.259-1.56-1.259a2.937,2.937,0,0,0-1.987.794l-1.161-1.179a5.047,5.047,0,0,1,3.318-1.173c2.307,0,3.324,1.066,3.324,2.753m-1.935,1.629h-.28c-.952,0-2.625.049-2.619,1.045.009,1.4,2.9.957,2.9-.735Zm32.346,2.382a.81.81,0,0,1,.816-.831.809.809,0,0,1,.812.831.81.81,0,0,1-.812.839.811.811,0,0,1-.816-.839m.816,1.005a1,1,0,0,0,1.012-1.005,1,1,0,0,0-1.012-1,1,1,0,0,0-1.018,1,1,1,0,0,0,1.018,1.005m-.212-.925h.2l.3.5h.2l-.328-.509a.3.3,0,0,0,.3-.319c0-.228-.135-.329-.408-.329h-.44v1.156h.174Zm0-.149v-.357h.238c.122,0,.252.026.252.17,0,.177-.133.188-.28.188Z" transform="translate(-164.22 323.51)" fill="#fff"></path></g><g id="Group_8" data-name="Group 8" transform="translate(314 355)"><rect id="Rectangle_25" data-name="Rectangle 25" width="105" height="105" transform="translate(-185 -320)" fill="#049fdc"></rect><rect id="Rectangle_24" data-name="Rectangle 24" width="105" height="105" transform="translate(-190 -324)" fill="#fff"></rect><rect id="Rectangle_26" data-name="Rectangle 26" width="93" height="93" transform="translate(-184 -318)" fill="#172954"></rect><text id="GenAI_Vendor_2024" data-name="GenAI Vendor 2024" transform="translate(-176 -287)" fill="#fff" font-size="19" font-family="Poppins-Regular, Poppins"><tspan x="0" y="0">GenAI</tspan><tspan x="0" y="22">Vendor</tspan><tspan fill="#049fdc" font-family="Poppins-SemiBold, Poppins" font-weight="600"><tspan x="0" y="44">2024</tspan></tspan></text></g></svg> 