<?xml version="1.0" encoding="UTF-8"?> <svg xmlns="http://www.w3.org/2000/svg" xmlns:xlink="http://www.w3.org/1999/xlink" width="248" height="170" viewBox="0 0 248 170"><defs><clipPath id="clip-path"><rect id="Rectangle_50" data-name="Rectangle 50" width="248" height="170" fill="#fff"></rect></clipPath><linearGradient id="linear-gradient" y1="0.473" x2="1" y2="0.454" gradientUnits="objectBoundingBox"><stop offset="0" stop-color="#010509"></stop><stop offset="1" stop-color="#0b3457"></stop></linearGradient><linearGradient id="linear-gradient-2" x1="0.374" y1="0.849" x2="1" y2="0.5" gradientUnits="objectBoundingBox"><stop offset="0" stop-color="#0b3883"></stop><stop offset="1" stop-color="#0a3255"></stop></linearGradient></defs><g id="Mask_Group_5" data-name="Mask Group 5" clip-path="url(#clip-path)"><rect id="Rectangle_28" data-name="Rectangle 28" width="248" height="170" fill="url(#linear-gradient)"></rect><rect id="Rectangle_27" data-name="Rectangle 27" width="248" height="7" transform="translate(0 163)" fill="url(#linear-gradient-2)"></rect><g id="Layer" transform="translate(162.971 -13.962)" opacity="0.099"><path id="Layer-2" data-name="Layer" d="M44.512,209.719,26.151,230.281H8.646l35.866-32.4Zm0-23.322L8.363,230.274H.069V185.9H44.512Zm0,43.877H31.471l13.041-11.061ZM31.043,270.467l13.324-11.62V278.76H0V234.386H22.466L9.494,248.994l17.153-14.607H41.814L16.94,262.318l27.428-24.171v17.291Zm52.447-36.08L49.045,273.1V254.8l23.529-20.417Zm-34.445,0h14.1l-14.1,15.884Zm0,38.771L93.412,235.3V278.76H49.045Z" transform="translate(0 -173.073)" fill="#6390b1"></path><path id="Layer-3" data-name="Layer" d="M789.9,0h52.447V52.454H789.9Z" transform="translate(-735.397)" fill="#002f5f"></path></g><text id="The_Hackett_Group_Acquires_LeewayHertz" data-name="The Hackett Group Acquires LeewayHertz" transform="translate(13 72)" fill="#fff" font-size="16" font-family="Open Sans" font-weight="600"><tspan x="0" y="0">The Hackett Group</tspan><tspan font-family="OpenSans, Open Sans" font-weight="400"><tspan x="0" y="22">Acquires</tspan></tspan><tspan x="0" y="44">LeewayHertz</tspan></text></g></svg> 